<?xml version="1.0" encoding="utf-8"?>
<!-- Generator: Adobe Illustrator 24.2.3, SVG Export Plug-In . SVG Version: 6.00 Build 0)  -->
<svg version="1.0" xmlns="http://www.w3.org/2000/svg" xmlns:xlink="http://www.w3.org/1999/xlink" x="0px" y="0px" width="300px"
	 height="197.45px" viewBox="0 0 300 197.45" enable-background="new 0 0 300 197.45" xml:space="preserve">
<g id="レイヤー_1">
	<g id="レイヤー_1_1_">
	</g>
</g>
<g id="レイヤー_2">
	<g id="レイヤー_2_1_">
		<g>
			<g>
				<g>
					<g>
						<path d="M118.797,128.627c-0.677-0.375-1.266-0.703-1.266-1.266c0-0.311,0.09-0.835,0.689-0.835
							c0.594,0,1.207,0.615,1.467,1.46l0.017,0.156l0.2,0.028l0.085,0.007c0.33,0,0.347-0.217,0.347-0.266
							c0-0.497-0.031-1.676-0.293-1.834c-0.422-0.21-0.863-0.3-1.485-0.3c-1.604,0-2.441,1.051-2.441,2.084
							c0,1.097,0.946,1.651,1.778,2.141c0.728,0.429,1.354,0.797,1.354,1.413c0,0.649-0.292,0.946-0.913,0.946
							c-0.858,0-1.5-0.644-1.815-1.815l-0.054-0.102c-0.019-0.017-0.087-0.096-0.274-0.096c-0.215,0-0.318,0.146-0.318,0.269
							c0,1.863,0.068,1.91,0.201,2.007c0.563,0.32,1.283,0.497,1.98,0.497c1.434,0,2.56-1.012,2.56-2.31
							C120.618,129.632,119.651,129.098,118.797,128.627z"/>
						<path d="M124.225,123.999c0.512,0,0.931-0.425,0.931-0.953c0-0.497-0.413-0.919-0.901-0.919c-0.511,0-0.919,0.427-0.919,0.953
							C123.337,123.579,123.742,123.999,124.225,123.999z"/>
						<path d="M125.807,132.334L125.807,132.334c-1.009-0.115-1.009-0.115-1.009-1.214v-2.811c-0.017-0.589,0.033-2.026,0.115-2.379
							c0-0.21-0.24-0.314-0.375-0.314l-0.104,0.002l-0.071,0.068c-0.462,0.451-1.327,0.945-1.959,1.304l-0.134,0.073
							c-0.108,0.078-0.151,0.212-0.108,0.349c0.045,0.139,0.153,0.229,0.274,0.229l0.078-0.012c0.214-0.071,0.372-0.111,0.476-0.111
							c0.108,0,0.25,0,0.25,0.86v2.738c0,1.097,0,1.097-0.979,1.214l-0.153,0.01l-0.068,0.118c-0.054,0.097-0.073,0.278-0.007,0.391
							l0.122,0.123h0.134c0.366-0.045,0.972-0.071,1.752-0.071c0.761,0,1.33,0.023,1.657,0.061l0.085,0.019l0.193-0.026l0.05-0.165
							l0.017-0.116C126.041,132.423,125.904,132.334,125.807,132.334z"/>
						<path d="M135.024,132.315c-0.997-0.068-0.997-0.115-0.997-1.191v-3.141c0-1.483-0.583-2.202-1.782-2.202
							c-0.745,0-1.483,0.293-2.62,1.061c-0.024-0.455-0.045-0.754-0.061-0.887c0-0.2-0.212-0.337-0.358-0.337l-0.102,0.002
							l-0.068,0.064c-0.561,0.507-1.29,1.033-1.921,1.37c-0.083,0.059-0.156,0.174-0.104,0.34c0.036,0.123,0.132,0.252,0.287,0.252
							l0.078-0.012c0.212-0.071,0.365-0.111,0.471-0.111c0.111,0,0.25,0,0.25,0.879v2.721c0,1.092,0,1.092-0.992,1.191l-0.141,0.003
							l-0.071,0.122c-0.045,0.078-0.083,0.285-0.003,0.415l0.128,0.123h0.139c0.467-0.068,1.318-0.071,1.778-0.071
							c0.445,0,1.153,0.028,1.434,0.069l0.036,0.009h0.031c0.132,0,0.267-0.106,0.267-0.304c0-0.217-0.111-0.366-0.252-0.366l0,0
							c-0.682-0.061-0.806-0.071-0.806-1.191v-3.449c1.148-0.696,1.464-0.771,1.889-0.771c0.658,0,0.948,0.259,0.948,1.792v2.429
							c0,1.12-0.09,1.127-0.783,1.191l-0.153,0.009l-0.068,0.122c-0.054,0.092-0.087,0.281-0.012,0.408l0.123,0.123h0.139
							c0.396-0.054,0.844-0.071,1.54-0.071c0.471,0,1.398,0.028,1.653,0.061l0.045,0.019l0.24-0.026l0.045-0.172l0.017-0.12
							C135.274,132.334,135.072,132.31,135.024,132.315z"/>
						<path d="M141.338,131.292h-0.087l-0.064,0.05c-0.583,0.446-1.179,0.667-1.818,0.667c-0.96,0-2.08-0.747-2.08-2.85
							c0-1.919,0.809-2.183,1.61-2.183c0.45,0,0.82,0.201,1.144,0.366c0.269,0.148,0.504,0.269,0.754,0.269
							c0.422,0,0.74-0.778,0.74-1.096c0-0.41-0.651-0.74-1.45-0.74c-2.389,0-4.404,1.848-4.404,4.029
							c0,1.893,1.346,3.318,3.138,3.318c1.45,0,2.483-0.972,2.761-1.264c0.087-0.083,0.109-0.212,0.059-0.337
							C141.593,131.416,141.485,131.292,141.338,131.292z"/>
						<path d="M148.745,128.764l0.045-0.175c0.036-0.142,0.054-0.3,0.054-0.445c0-0.986-0.809-2.365-2.62-2.365
							c-1.861,0-3.624,1.896-3.624,3.902c0,2.032,1.344,3.445,3.268,3.445c1.042,0,2.219-0.519,2.841-1.252l0.111-0.16l-0.061-0.148
							c-0.019-0.042-0.109-0.241-0.297-0.241h-0.083l-0.064,0.049c-0.557,0.417-1.252,0.646-1.917,0.646
							c-1.005,0-2.181-0.74-2.181-2.829c0-0.109,0.007-0.224,0.017-0.337L148.745,128.764z M145.807,126.639
							c0.851,0,1.313,0.774,1.413,1.417l-2.872,0.069C144.581,127.203,145.125,126.639,145.807,126.639z"/>
						<path d="M158.928,125.59c0.123,0,0.267-0.09,0.267-0.34c0-0.226-0.137-0.323-0.306-0.323h-0.009
							c-0.311,0.042-1.321,0.071-1.83,0.071c-0.375,0-1.636-0.007-2.136-0.069l-0.031-0.007l-0.212,0.016l-0.061,0.16l-0.024,0.132
							c0,0.214,0.108,0.358,0.247,0.358h0.005c1.009,0.111,1.249,0.137,1.249,1.321v4.089c0,1.179-0.238,1.202-1.224,1.318
							l-0.153,0.009l-0.068,0.122c-0.045,0.089-0.087,0.278-0.012,0.408l0.128,0.128h0.134c0.429-0.059,1.393-0.076,2.16-0.076
							c0.505,0,1.519,0.031,1.806,0.069l0.068,0.009c0.132,0,0.274-0.102,0.274-0.328c0-0.247-0.141-0.34-0.243-0.34h-0.003
							c-0.986-0.089-1.243-0.16-1.243-1.318v-4.089C157.707,125.75,157.964,125.677,158.928,125.59z"/>
						<path d="M165.985,126.906c1.24-0.748,1.778-1.549,1.778-2.622c0-1.407-1.24-2.547-2.752-2.547
							c-1.842,0-3.237,1.327-3.237,3.065c0,1.209,0.79,1.954,1.684,2.572c-1.448,0.717-2.235,1.743-2.235,2.922
							c0,1.603,1.431,2.853,3.256,2.853c2,0,3.509-1.424,3.509-3.306C167.985,128.434,167.043,127.601,165.985,126.906z
							 M165.169,126.378c-1.117-0.691-1.901-1.283-1.901-2.292c0-0.912,0.571-1.502,1.45-1.502c0.919,0,1.563,0.728,1.563,1.775
							C166.282,125.189,165.907,125.864,165.169,126.378z M164.335,127.924l0.009,0.009c1.13,0.702,2.198,1.363,2.198,2.606
							c0,1.07-0.743,1.761-1.889,1.761c-0.926,0-1.856-0.689-1.856-2.006C162.799,129.193,163.259,128.472,164.335,127.924z"/>
						<path d="M174.205,126.906c1.243-0.748,1.778-1.549,1.778-2.622c0-1.407-1.235-2.547-2.752-2.547
							c-1.848,0-3.24,1.327-3.24,3.065c0,1.209,0.79,1.954,1.684,2.572c-1.446,0.717-2.231,1.743-2.231,2.922
							c0,1.603,1.427,2.853,3.254,2.853c2,0,3.509-1.424,3.509-3.306C176.213,128.434,175.263,127.601,174.205,126.906z
							 M173.391,126.378c-1.12-0.691-1.896-1.283-1.896-2.292c0-0.912,0.566-1.502,1.448-1.502c0.922,0,1.565,0.728,1.565,1.775
							C174.508,125.189,174.133,125.864,173.391,126.378z M172.556,127.924l0.009,0.009c1.13,0.702,2.197,1.363,2.197,2.606
							c0,1.07-0.74,1.761-1.888,1.761c-0.92,0-1.851-0.689-1.851-2.006C171.023,129.193,171.483,128.472,172.556,127.924z"/>
						<path d="M184.254,130.447c0,0-0.003-0.254-0.304-0.254c-0.311,0-0.347,0.179-0.347,0.24c-0.061,0.809-0.12,0.946-1.629,0.946
							h-1.636c1.528-1.061,2.895-2.62,2.895-4.093c0-1.464-1.066-2.52-2.542-2.52c-0.988,0-1.893,0.563-2.711,1.721
							c-0.045,0.097-0.036,0.219,0.031,0.326c0.036,0.057,0.129,0.182,0.28,0.182l0.12-0.009l0.068-0.071
							c0.58-0.613,1.057-0.849,1.695-0.849c0.887,0,1.438,0.669,1.438,1.743c0,1.561-1.212,2.881-4.051,4.426
							c-0.09,0.042-0.174,0.139-0.156,0.321c0.017,0.155,0.115,0.439,0.347,0.439l0.019-0.003c1.037-0.068,2.021-0.076,3.277-0.076
							c0.573,0,1.179,0.019,1.674,0.035c0.366,0.017,0.676,0.026,0.893,0.026c0.321,0,0.425-0.16,0.486-0.403
							C184.173,132.287,184.287,130.834,184.254,130.447z"/>
					</g>
					<g>
						<g>
							<g>
								<path d="M116.01,24.463l-10.285,2.053l-0.87-1.011c-3.699,5.689,0.042,12.27,0.042,12.27l0.62-0.531
									c0.293,0.32,1.954,0.616,1.954,0.616l7.024-0.616l1.363,1.365c1.363-0.189,3.14-1.815,3.499-2.643
									c0.354-0.797,1.009-8.113,1.009-8.113L116.01,24.463z M108.353,28.91v1.811l-1.669,0.377l-0.017-1.889L108.353,28.91z
									 M106.553,35.255l0.12-2.11l1.684-0.026l0.064,1.985L106.553,35.255z M114.494,34.629l-3.612-0.12l0.194-1.747
									c0,0,2.735-0.913,2.853-1.572c0.104-0.625-1.066-1.335-1.066-1.335l-1.509,0.089l0.087-1.537
									c0.207-0.179,1.631-0.651,2.31-0.651c0.653,0,0.919,0.432,0.919,0.432L114.494,34.629z"/>
								<path d="M106.91,24.524c0,0-0.017-0.007-0.033-0.045C106.85,24.524,106.91,24.524,106.91,24.524z"/>
								<path d="M106.466,14.446c0.179,0.472,0.856,1.063,0.856,1.063c0.804-0.328,6.434-1.332,7.772-1.629
									c1.335-0.292,1.896-1.249,1.896-1.249c0.174-0.738,0.887-1.361,0.887-1.361c0.115-0.835-1.514-1.782-1.514-1.782
									c-1.094,0.566-10.28,1.143-10.28,1.143C103.741,13.287,106.466,14.446,106.466,14.446z"/>
								<path d="M108.168,23.784c1.613-0.769,5.109-0.917,5.109-0.917l1.724,0.12c0,0,2.629-1.983,2.693-3.645
									c0.054-1.691-2.846-4.015-3.291-3.744c-0.425,0.28-6.546,1.688-6.546,1.688l-0.948-0.445
									c-0.28,0.361-0.913,0.394-1.101,0.78c-1.367,2.818,0.818,6.401,1.066,6.857C106.917,24.404,107.174,24.224,108.168,23.784z
									 M112.688,18.445v2.047l-4.27,0.953l-0.207-1.634C108.213,19.811,112.149,18.335,112.688,18.445z"/>
								<path d="M104.526,24.455c0.484-2.349-2.829-3.313-2.829-3.313c0.358-0.328,1.775-3.397,1.29-3.884
									c-0.479-0.484-0.814-1.664-2.223-2.237c-1.417-0.597-2.622,0.573-2.622,0.573c-2.108,2.589-7.548,4.135-7.548,4.135
									c-0.955,0.358-0.71,1.539-0.71,1.539c0.932,0.118,1.901,2.377,2.954,2.377h1.653L89.398,34.61
									c0.24-0.472,2.146-1.657,2.146-1.657c2-0.122,3.192-2.108,3.192-2.108l1.179-0.479l1.174-1.295
									c0,2.468-0.695,7.312-0.695,7.312l0.941,1.787l0.585-0.118c0,0-0.104,0.924,1.07,0.801c1.169-0.118,1.985-1.295,1.985-1.295
									l0.604-12.273C101.578,25.288,104.044,26.811,104.526,24.455z"/>
								<path d="M99.435,13.588c1.084,0.589,2.858,1.327,3.912,0c1.059-1.304,0.365-3.298-0.236-4.141
									c-0.599-0.816-2.013-0.816-3.435-0.931c-1.408-0.122-4.247,0.806-4.247,0.806C95.547,11.834,98.386,13.011,99.435,13.588z"
									/>
							</g>
							<path d="M209.928,22.788c-0.083-1.938-3.402-5.466-4.178-5.774c-0.375-0.141-1.019-0.201-2.039-0.08
								c0.979-1.693,1.94-3.318,2.082-3.497c0.302-0.379,0.132-1.434-0.083-1.818c-0.212-0.375-0.566-1.641-0.566-1.641
								s-0.946-1.092-1.851-1.176c-0.896-0.087-2.405,1.268-2.405,1.268s0.194,1.042,0.09,1.691
								c-0.28,1.622-0.983,3.851-1.867,6.189c-0.019,0.01-0.045,0.017-0.078,0.024c-4.082,1.209-4.082,1.822-4.082,1.822
								l-0.658,1.058c0.523,1.893,2.341,2.582,2.341,2.582s0.073-0.028,0.207-0.069c-1.21,2.596-2.44,4.803-3.31,5.848
								c-0.248,0.29-0.451,0.646-0.627,1.023c0.201-6.746,0.491-15.79,0.87-16.252h-0.12c0-0.028,0-0.059-0.009-0.096
								c-0.429-1.134-2.738-3.732-3.516-3.732c-0.748,0-1.252,0.912-1.252,0.912l-3.636,1.565c0,0,0.05,0.161,0.123,0.41
								c-0.511-0.83-0.959-1.328-0.959-1.328c-0.179-0.043-1.874,0.87-1.778,1.603c0.087,0.705-0.413,2.358-0.748,2.572
								c-0.34,0.21-0.252,13.784,0.252,14.097c0.384,0.273,0.571,1.094,0.637,1.443c-1.964,0.792-3.772,1.528-4.01,1.639
								c-0.563,0.267-1.13,1.347-1.13,1.347s1.436,1.158,2.648,1.191c1.169,0.036,6.439-3.178,9.038-3.435l-0.141,4.708
								c0,0,0.785,1.179,0.998,1.639c0.215,0.457,0.521,0.495,0.847,0.495c0.335,0,1.521-1.085,1.641-1.476
								c0.036-0.101,0.087-1.763,0.156-4.162c0.266-0.165,0.497-0.307,0.497-0.307l1.509-0.214c0.366-0.276,0.833-0.853,1.339-1.617
								c0.42,0.205,2.235,0.877,2.235,0.877l-0.649,0.3c3.402,0.96,1.156,3.532,1.156,3.532c1.117,0.168,1.037,1.097,2.244,1.097
								c1.21,0,2.846-0.547,2.846-0.547C209.451,34.587,210.011,24.739,209.928,22.788z M189.4,29.318l-1.21-0.066
								c0,0-1.084,0.432-2.506,1.005c0.071-0.587,0.231-1.919,0.413-3.558c1.24-0.377,3.405-1.151,3.405-1.151
								s0.009-0.097,0.019-0.243L189.4,29.318z M189.578,23.597c-0.017-0.174-0.036-0.32-0.078-0.391
								c-0.21-0.347-0.894-0.389-1.066-0.389c-0.102,0-1.195,0.547-2.054,0.988c0.085-0.913,0.17-1.834,0.236-2.702
								c1.059-0.33,2.598-0.873,3.072-1.04L189.578,23.597z M189.762,17.599c-0.248-0.274-0.818-0.328-0.979-0.328
								c-0.104,0-1.165,0.531-2.007,0.971c0.007-0.488,0.007-0.905-0.017-1.226c-0.031-0.382-0.092-0.757-0.174-1.117
								c0.087,0.078,0.179,0.102,0.257,0.028c0.554-0.519,2.902-1.771,2.902-1.771s0.05,0.009,0.129,0.024L189.762,17.599z
								 M201.576,31.899c-0.818,0.399-3.497-0.769-4.914-1.457c1.611-2.632,3.492-6.585,4.381-8.503
								c0.073-0.024,0.156-0.05,0.226-0.059c1.344-0.349,3.193-0.818,3.358,0.082C205.069,24.311,202.953,31.335,201.576,31.899z"/>
							<g>
								<g>
									<g>
										<g>
											<g>
												<defs>
													<path id="SVGID_1_" d="M127.845,22.242c0,12.275,9.957,22.223,22.235,22.223c12.275,0,22.235-9.946,22.235-22.223
														C172.316,9.955,162.358,0,150.081,0C137.8,0,127.845,9.955,127.845,22.242"/>
												</defs>
												<clipPath id="SVGID_2_">
													<use xlink:href="#SVGID_1_"  overflow="visible"/>
												</clipPath>
												<path clip-path="url(#SVGID_2_)" fill="#E62318" d="M172.313,22.242c0,12.275-9.959,22.223-22.235,22.223
													s-22.235-9.946-22.235-22.223C127.842,9.955,137.799,0,150.077,0C162.354,0,172.313,9.955,172.313,22.242"/>
											</g>
										</g>
									</g>
								</g>
								<g>
									<g>
										<g>
											<g>
												<defs>
													<path id="SVGID_3_" d="M127.845,22.242c0,12.275,9.957,22.223,22.235,22.223c12.275,0,22.235-9.946,22.235-22.223
														C172.316,9.955,162.358,0,150.081,0C137.8,0,127.845,9.955,127.845,22.242"/>
												</defs>
												<clipPath id="SVGID_4_">
													<use xlink:href="#SVGID_3_"  overflow="visible"/>
												</clipPath>
												<path clip-path="url(#SVGID_4_)" d="M172.243,32.949c-0.017-0.122-0.068-0.212-0.129-0.306
													c-0.148-0.26-0.38-0.521-0.611-0.705c-0.139-0.104-0.278-0.2-0.401-0.29c-0.036-0.026-0.064-0.064-0.115-0.094
													c-0.064-0.036-0.146-0.087-0.224-0.135c-0.12-0.078-0.224-0.179-0.354-0.241c-0.073-0.036-0.148-0.08-0.224-0.113
													c-0.092-0.05-0.17-0.111-0.26-0.167c-0.328-0.189-0.637-0.361-0.962-0.526c-0.2-0.094-0.406-0.179-0.615-0.273
													c-0.425-0.2-0.818-0.358-1.243-0.535c-0.432-0.175-0.882-0.33-1.283-0.519c-0.083-0.035-0.17-0.063-0.243-0.094
													c-0.073-0.026-0.156-0.054-0.224-0.087c-0.219-0.078-0.432-0.151-0.658-0.208c-0.129-0.054-0.255-0.108-0.392-0.158
													c-0.196-0.066-0.493-0.134-0.676-0.266c-0.071-0.059-0.104-0.118-0.12-0.188c-0.036-0.141,0.031-0.415,0.092-0.53
													c0.09-0.179,0.285-0.293,0.398-0.432c0.255-0.287,0.455-0.561,0.662-0.832c0.366-0.524,0.689-1.075,0.955-1.648
													c0.045-0.066,0.096-0.153,0.141-0.248c0.061-0.174,0.12-0.356,0.193-0.521c0.104-0.243,0.193-0.498,0.304-0.748
													c0.024-0.078,0.061-0.149,0.092-0.227c0.028-0.033,0.045-0.113,0.083-0.205c0.042-0.096,0.087-0.207,0.134-0.292
													c0.045-0.158,0.087-0.304,0.132-0.455c0.042-0.106,0.085-0.231,0.129-0.337c0.009-0.083,0.028-0.156,0.045-0.229
													c0.007-0.085,0.019-0.174,0.007-0.259c-0.007-0.036-0.042-0.09-0.085-0.156c-0.083-0.108-0.193-0.174-0.302-0.25
													c-0.215-0.174-0.443-0.295-0.669-0.432c-0.17-0.132-0.34-0.248-0.523-0.365c-0.29-0.221-0.599-0.413-0.905-0.587
													c-0.073-0.023-0.134-0.061-0.215-0.115c-0.547-0.398-1.12-0.762-1.684-1.139c-0.236-0.155-0.45-0.333-0.691-0.484
													c-0.335-0.175-0.665-0.372-0.983-0.597c-0.12-0.096-0.278-0.174-0.38-0.306c-0.042-0.066-0.066-0.115-0.073-0.193
													c-0.005-0.193,0.045-0.405,0.073-0.589c0.045-0.252,0.071-0.561,0.073-0.884c0-0.245,0.05-0.469,0.05-0.717
													c0-0.182-0.031-0.323-0.045-0.517c0-0.151,0.014-0.28,0-0.413c-0.03-0.198-0.071-0.366-0.087-0.55
													c-0.033-0.262-0.059-0.49-0.111-0.717c-0.045-0.156-0.097-0.304-0.134-0.46c-0.028-0.078-0.045-0.174-0.071-0.255
													c-0.087-0.266-0.21-0.484-0.321-0.724c-0.061-0.12-0.111-0.243-0.174-0.366c-0.059-0.106-0.122-0.212-0.165-0.321
													c-0.033-0.063-0.071-0.123-0.097-0.188c-0.05-0.08-0.092-0.156-0.146-0.21c-0.059-0.102-0.095-0.194-0.153-0.293
													c-0.12-0.189-0.267-0.353-0.392-0.507c-0.092-0.115-0.186-0.252-0.285-0.379c-0.045-0.045-0.085-0.097-0.134-0.141
													c-0.045-0.05-0.095-0.118-0.139-0.179c-0.066-0.059-0.123-0.108-0.182-0.158c-0.054-0.066-0.104-0.12-0.16-0.182
													c-0.158-0.137-0.328-0.267-0.479-0.401c-0.278-0.219-0.533-0.436-0.832-0.636c-0.174-0.102-0.339-0.201-0.504-0.304
													c-0.137-0.073-0.248-0.182-0.377-0.259c-0.102-0.03-0.193-0.085-0.286-0.135c-0.523-0.252-1.063-0.498-1.62-0.67
													c-0.16-0.052-0.33-0.108-0.511-0.151c-0.255-0.069-0.516-0.155-0.785-0.205c-0.139-0.023-0.278-0.03-0.42-0.066
													c-0.165-0.042-0.34-0.068-0.511-0.115c-0.165-0.017-0.347-0.05-0.521-0.073c-0.104-0.017-0.201-0.061-0.267-0.139
													c-0.12-0.137-0.141-0.328-0.189-0.488c-0.019-0.071-0.054-0.132-0.083-0.196c-0.085-0.198-0.158-0.302-0.372-0.302
													v0.007c-0.269,0.007-0.379,0.519-0.443,0.722c-0.03,0.087-0.064,0.148-0.102,0.201c-0.05,0.085-0.132,0.139-0.194,0.188
													c-0.033,0.026-0.068,0.026-0.087,0.045c-0.122,0-0.273-0.019-0.365,0.036c-0.024,0.005-0.045,0.005-0.071,0.016
													c-0.045,0-0.108-0.01-0.148,0.016c-0.042,0-0.096-0.007-0.123,0.017c-0.073,0-0.175,0.007-0.229,0.043
													c-0.019,0.016-0.042,0.016-0.068,0.024c-0.045,0-0.096,0.002-0.128,0.019c-0.087,0-0.297,0.045-0.372,0.083
													c-0.068,0-0.156,0.016-0.215,0.05c-0.115,0-0.229,0.049-0.333,0.069c-0.375,0.087-0.705,0.2-1.042,0.346
													c-0.045,0.026-0.111,0.042-0.174,0.069c-0.174,0-0.323,0.102-0.476,0.175c-0.148,0.054-0.306,0.115-0.45,0.196
													c-0.097,0.05-0.201,0.115-0.304,0.165c-0.128,0.066-0.264,0.128-0.389,0.188c-0.097,0.078-0.21,0.132-0.311,0.2
													c-0.248,0.139-0.462,0.304-0.686,0.45c-0.097,0.073-0.207,0.13-0.302,0.198c-0.128,0.102-0.264,0.234-0.394,0.354
													c-0.761,0.627-1.391,1.413-1.867,2.266c-0.141,0.26-0.285,0.512-0.392,0.761c-0.033,0.045-0.068,0.104-0.096,0.158
													c-0.054,0.144-0.12,0.288-0.182,0.429c-0.174,0.512-0.302,1.033-0.396,1.556c-0.024,0.102-0.045,0.188-0.061,0.29
													c-0.017,0.089-0.009,0.191-0.019,0.306c-0.017,0.087-0.031,0.175-0.033,0.267c-0.033,0.37-0.033,0.717-0.007,1.077
													v0.401c0.009,0.2,0.042,0.415,0.061,0.623c0.012,0.167,0.036,0.307,0.054,0.486c0.024,0.122,0.059,0.278,0.033,0.418
													c-0.028,0.064-0.061,0.118-0.097,0.168c-0.045,0.066-0.109,0.12-0.165,0.156c-0.139,0.118-0.264,0.203-0.408,0.293
													c-0.287,0.201-0.59,0.373-0.87,0.535c-0.59,0.443-1.231,0.827-1.849,1.252c-0.306,0.226-0.625,0.408-0.938,0.623
													c-0.054,0.023-0.104,0.057-0.16,0.085c-0.115,0.089-0.243,0.168-0.347,0.247c-0.323,0.21-0.627,0.432-0.952,0.636
													c-0.165,0.108-0.379,0.214-0.535,0.37c-0.073,0.08-0.122,0.148-0.148,0.226c-0.012,0.193,0.073,0.337,0.111,0.511
													c0.128,0.375,0.229,0.741,0.389,1.096c0.045,0.141,0.111,0.252,0.156,0.401c0.042,0.115,0.078,0.215,0.102,0.314
													c0.036,0.078,0.078,0.149,0.104,0.226c0.109,0.267,0.212,0.512,0.328,0.769c0.05,0.122,0.109,0.219,0.156,0.339
													c0.059,0.122,0.12,0.217,0.182,0.339c0.085,0.175,0.153,0.363,0.266,0.537c0.078,0.12,0.148,0.233,0.226,0.358
													c0.087,0.139,0.156,0.288,0.248,0.396c0.123,0.155,0.238,0.339,0.365,0.502c0.102,0.102,0.2,0.208,0.292,0.304
													c0.115,0.118,0.285,0.174,0.347,0.33c0.028,0.085,0.05,0.174,0.045,0.252c-0.007,0.135-0.045,0.266-0.083,0.358
													c-0.073,0.236-0.139,0.479-0.293,0.684c-0.061,0.076-0.139,0.123-0.207,0.172c-0.182,0-0.34-0.045-0.505-0.063
													c-0.139-0.01-0.266-0.033-0.398-0.049c-0.123-0.01-0.248-0.056-0.372-0.028c-0.318,0.059-0.637,0.486-0.887,0.729
													c-0.174,0.168-0.342,0.314-0.523,0.451c-0.054,0.071-0.12,0.122-0.174,0.175c-0.054,0.03-0.102,0.063-0.148,0.097
													c-0.214,0-0.408-0.019-0.622-0.043c-0.064-0.007-0.179-0.028-0.231,0.009c-0.102-0.009-0.2-0.016-0.297-0.016
													c-0.179-0.007-0.365,0-0.53-0.021c-0.083-0.007-0.38-0.028-0.439,0.007c-0.03,0-0.068,0.009-0.096,0.017
													c-0.306,0-0.517,0.247-0.748,0.418c-0.028,0.016-0.059,0.028-0.096,0.045c-0.219,0-0.415-0.064-0.611-0.102
													c-0.24-0.036-0.457-0.059-0.703-0.097c-0.122-0.028-0.248-0.063-0.38-0.082c-0.128-0.026-0.401-0.125-0.509-0.069
													c-0.669,0-0.104,0.932,0.031,1.189c0.042,0.073,0.083,0.139,0.123,0.226c0.05,0.085,0.09,0.172,0.146,0.266
													c0.061,0.071,0.111,0.141,0.179,0.224c0.071,0.111,0.148,0.241,0.226,0.358c0.179,0.24,0.384,0.46,0.599,0.655
													c0.092,0.064,0.182,0.122,0.292,0.174c0.109,0.052,0.274,0.13,0.34,0.26c0.045,0.097,0.073,0.208,0.097,0.311
													c0.045,0.108,0.087,0.226,0.123,0.349c0.054,0.174,0.097,0.358,0.179,0.516c0.045,0.082,0.102,0.153,0.175,0.214
													c0.064,0.045,0.16,0.108,0.207,0.186c0.042,0.085,0.061,0.2,0.068,0.304c0.009,0.174-0.007,0.254,0.141,0.356
													c0.236,0.122,0.715-0.146,0.941-0.226c0.207-0.061,0.418-0.097,0.616-0.181c0.179-0.063,0.366-0.179,0.577-0.16
													c0.134,0.016,0.267,0.063,0.406,0.097c0.297,0.047,0.59,0.099,0.868,0.146c0.097,0.009,0.194,0.009,0.302,0.016
													c0.243,0.033,0.517,0.071,0.783,0.097c0.174,0.014,0.347,0.014,0.521,0.035c0.097,0.012,0.194,0.021,0.297,0.033
													c0.12,0.01,0.229,0.01,0.347,0.01c0.087,0.012,0.179,0.026,0.267,0.028c0.134,0,0.26,0.019,0.398,0.019
													c0.215,0.019,0.425,0.045,0.644,0.045c0.108,0,0.219,0,0.33,0.009c0.174,0.024,0.354,0.045,0.54,0.045
													c0.252,0,0.512,0.016,0.766,0.016c0.102,0,0.215,0,0.321-0.016c0.207,0.016,0.445,0.035,0.662,0.016
													c0.132-0.019,0.255-0.063,0.372-0.115c0.12-0.071,0.224-0.186,0.375-0.167c0,0,0.009,0,0.019,0.016
													c0.132,0.024,0.233,0.13,0.339,0.227c0.115,0.08,0.224,0.156,0.347,0.236c0.156,0.082,0.304,0.16,0.445,0.229
													c0.115,0.063,0.252,0.071,0.342,0.161c0,0.019,0.007,0.019,0.017,0.026c0.083,0.115,0.045,0.28,0.059,0.417
													c0.005,0.089,0.042,0.193,0.092,0.288c0.151,0.262,0.347,0.392,0.583,0.545c0.175,0.122,0.342,0.233,0.53,0.344
													c0.215,0.132,0.417,0.304,0.662,0.34c0.471,0.059,0.962,0.023,1.431-0.052c0.102-0.017,0.201-0.035,0.311-0.076
													c0.252-0.031,0.516-0.049,0.754-0.134c0.25-0.083,0.458-0.295,0.728-0.356c0.122-0.028,0.233,0.026,0.33,0.061
													c0.09,0.024,0.174,0.045,0.266,0.085c0.085,0.019,0.158,0.063,0.236,0.071c0.104,0.009,0.219-0.007,0.318-0.021
													c0.158-0.042,0.293-0.125,0.408-0.247c0.122-0.108,0.2-0.3,0.389-0.3c0.186,0.026,0.359,0.045,0.547,0.063
													c0.231,0.007,0.467-0.036,0.708,0c0.108,0,0.224,0.019,0.33,0.047c0.102,0.019,0.201,0.083,0.304,0.097
													c0.153,0.017,0.297,0.028,0.445,0.035c0.111,0.007,0.212,0.021,0.318,0.04c0.083,0.016,0.156,0.03,0.236,0.05h0.304
													c0.238,0.028,0.479,0.057,0.719,0.04c0.085-0.023,0.174-0.031,0.255-0.052c0.078-0.007,0.148,0,0.219-0.021
													c0.21-0.071,0.392-0.229,0.583-0.347c0.087-0.042,0.165-0.085,0.252-0.137c0.248-0.158,0.462-0.339,0.672-0.526
													c0.109-0.102,0.215-0.234,0.266-0.372c0.03-0.076,0.03-0.174,0.087-0.24c0.061-0.052,0.165-0.064,0.24-0.076
													c0.073-0.028,0.16-0.007,0.25-0.007h0.358c0.068,0.007,0.123,0.007,0.189,0.019c0.252-0.01,0.511-0.019,0.764-0.061
													c0.215-0.019,0.408-0.076,0.599-0.106c0.104-0.031,0.212-0.057,0.311-0.069c0.2-0.096,0.365-0.25,0.58-0.266
													c0.17-0.016,0.34,0.165,0.498,0.207c0.061,0.026,0.134,0.064,0.196,0.078c0.174,0.04,0.375,0.019,0.549,0.019
													c0.451,0,0.887-0.026,1.321-0.033c0.418-0.028,0.804-0.028,1.195-0.052c0.255-0.024,0.5-0.064,0.748-0.078
													c0.302-0.024,0.583-0.033,0.868-0.036c0.165-0.016,0.321-0.059,0.486-0.068c0.224-0.019,0.429-0.016,0.644-0.035
													c0.361-0.045,0.74-0.113,1.12-0.161c0.146-0.028,0.316-0.017,0.439-0.094c0.151-0.085,0.278-0.189,0.384-0.304
													c0.134-0.13,0.247-0.361,0.432-0.417c0.151-0.043,0.354,0.016,0.537,0.016c0.219-0.016,0.42-0.059,0.632-0.094
													c0.09-0.03,0.2-0.052,0.297-0.073c0.059-0.007,0.12-0.019,0.165-0.031c0.2-0.064,0.401-0.122,0.599-0.2
													c0.097-0.035,0.189-0.08,0.278-0.132c0.104-0.045,0.226-0.08,0.342-0.115c0.087-0.024,0.179-0.085,0.255-0.122
													c0.129-0.068,0.267-0.144,0.406-0.219c0.095-0.036,0.17-0.071,0.267-0.113c0.141-0.082,0.392-0.247,0.467-0.406
													C172.271,33.139,172.259,33.043,172.243,32.949"/>
											</g>
										</g>
									</g>
								</g>
								<g>
									<g>
										<g>
											<g>
												<defs>
													<path id="SVGID_5_" d="M127.845,22.242c0,12.275,9.957,22.223,22.235,22.223c12.275,0,22.235-9.946,22.235-22.223
														C172.316,9.955,162.358,0,150.081,0C137.8,0,127.845,9.955,127.845,22.242"/>
												</defs>
												<clipPath id="SVGID_6_">
													<use xlink:href="#SVGID_5_"  overflow="visible"/>
												</clipPath>
												<path clip-path="url(#SVGID_6_)" fill="#FFFFFF" d="M165.542,22.1c0.189-0.139,0.351-0.281,0.533-0.417
													c0.045,0,0.095-0.005,0.132,0.033c0.115,0.167-0.215,0.853-0.269,1.035c-0.031,0.085-0.073,0.139-0.111,0.25
													c-0.042,0.094-0.061,0.182-0.097,0.285c-0.05,0.094-0.09,0.188-0.139,0.278c-0.071,0.172-0.146,0.346-0.229,0.507
													c-0.033,0.052-0.066,0.108-0.092,0.155c-0.059,0.13-0.12,0.252-0.175,0.366c-0.083,0.13-0.16,0.288-0.252,0.445
													c-0.134,0.234-0.25,0.469-0.396,0.695c-0.097,0.135-0.615,1.044-0.809,0.917c-0.156-0.102-0.194-0.682-0.236-0.891
													c-0.017-0.097-0.054-0.182-0.078-0.278c-0.05-0.167-0.141-0.33-0.2-0.497c-0.028-0.083-0.061-0.158-0.078-0.236
													c-0.059-0.12-0.189-0.295-0.156-0.438c0.042-0.12,0.17-0.205,0.252-0.271c0.193-0.155,0.389-0.304,0.587-0.457
													c0.226-0.189,0.445-0.391,0.663-0.578c0.087-0.09,0.196-0.165,0.297-0.245C164.983,22.545,165.266,22.317,165.542,22.1"
													/>
											</g>
										</g>
									</g>
								</g>
								<g>
									<g>
										<g>
											<g>
												<defs>
													<path id="SVGID_7_" d="M127.845,22.242c0,12.275,9.957,22.223,22.235,22.223c12.275,0,22.235-9.946,22.235-22.223
														C172.316,9.955,162.358,0,150.081,0C137.8,0,127.845,9.955,127.845,22.242"/>
												</defs>
												<clipPath id="SVGID_8_">
													<use xlink:href="#SVGID_7_"  overflow="visible"/>
												</clipPath>
												<path clip-path="url(#SVGID_8_)" fill="#FFFFFF" d="M160.859,24.594c0.182-0.115,0.354-0.25,0.521-0.379
													c0.484-0.401,0.969-0.774,1.455-1.12c0.212-0.129,0.398-0.266,0.608-0.406c0.078-0.043,0.16-0.089,0.243-0.13
													c0.285-0.21,0.563-0.417,0.851-0.592c0.115-0.064,0.247-0.125,0.366-0.198c0.031,0.033,0.031,0.059,0.012,0.106
													c-0.059,0.09-0.151,0.174-0.236,0.252c-0.311,0.276-0.599,0.556-0.91,0.785c-0.193,0.175-0.425,0.337-0.641,0.49
													c-0.25,0.179-0.486,0.377-0.719,0.557c-0.17,0.134-0.34,0.252-0.521,0.382c-0.17,0.122-0.339,0.241-0.497,0.34
													c-0.21,0.146-0.406,0.278-0.596,0.424c-0.104,0.066-0.2,0.144-0.306,0.221c-0.219,0.181-0.432,0.38-0.705,0.505
													c-0.078,0.019-0.139,0.085-0.231,0.096v-0.019c0,0-0.003-0.043-0.003-0.064c0.042-0.108,0.207-0.245,0.287-0.335
													c0.097-0.12,0.219-0.2,0.321-0.309C160.402,24.993,160.626,24.779,160.859,24.594"/>
											</g>
										</g>
									</g>
								</g>
								<g>
									<g>
										<g>
											<g>
												<defs>
													<path id="SVGID_9_" d="M127.845,22.242c0,12.275,9.957,22.223,22.235,22.223c12.275,0,22.235-9.946,22.235-22.223
														C172.316,9.955,162.358,0,150.081,0C137.8,0,127.845,9.955,127.845,22.242"/>
												</defs>
												<clipPath id="SVGID_10_">
													<use xlink:href="#SVGID_9_"  overflow="visible"/>
												</clipPath>
												<path clip-path="url(#SVGID_10_)" fill="#FFFFFF" d="M139.872,19.787c0.078-0.085,0.297-0.281,0.408-0.148
													c0.061,0.068,0.045,0.214,0.045,0.314c0.019,0.174,0.045,0.356,0.05,0.523c0.024,0.123,0.059,0.212,0.09,0.314
													c0.179,0.491,0.517,1.025,1.04,1.148c0.128,0.033,0.26,0.056,0.372-0.05c0.096-0.085,0.224-0.241,0.214-0.392
													c0-0.122-0.096-0.234-0.158-0.333c-0.045-0.05-0.087-0.097-0.123-0.13c-0.104-0.193-0.174-0.431-0.174-0.691
													c0.005-0.13,0.005-0.264,0.012-0.403c0.009-0.089,0.122-0.396,0.033-0.453c-0.238-0.155-0.451,0.511-0.488,0.663
													c-0.017,0.122-0.012,0.285-0.054,0.38c-0.028,0.045-0.061,0.094-0.111,0.078c-0.09-0.007-0.132-0.148-0.146-0.221
													c-0.073-0.278-0.078-0.561,0-0.804c0.036-0.118,0.122-0.266,0.182-0.34c0.059-0.108,0.269-0.399,0.233-0.514
													c-0.061-0.28-0.658,0.491-0.582,0.05c0.042-0.254,0.201-0.641,0.417-0.766c0.439-0.278,0.919,0.252,1.21,0.563
													c0.092,0.094,0.236,0.267,0.354,0.304c0.102,0.019,0.215-0.118,0.278-0.21c0.096-0.137,0.212-0.297,0.28-0.441
													c0.054-0.181,0.109-0.351,0.174-0.533c0.017-0.069,0.036-0.141,0.045-0.2c0.028-0.153,0.054-0.306,0.087-0.458
													c0.009-0.129,0.019-0.26,0.028-0.401c0.019-0.208,0.045-0.406,0.078-0.625c0-0.139-0.019-0.243-0.031-0.366
													c0-0.184,0.061-0.519-0.097-0.599l-0.009-0.009c-0.05-0.01-0.123-0.009-0.17,0.017c-0.137,0.075-0.243,0.2-0.38,0.304
													c-0.182,0.148-0.358,0.292-0.547,0.406c-0.128,0.045-0.25,0.087-0.366,0.139c-0.073,0.017-0.137,0.038-0.215,0.071
													c0,0-0.059,0.007-0.087,0.01c-0.054,0-0.12-0.01-0.151,0.01c-0.033,0-0.068,0-0.092,0.017
													c-0.347,0-0.658-0.085-0.913-0.267c-0.097-0.089-0.186-0.224-0.269-0.321c-0.128-0.16-0.248-0.377-0.297-0.585
													c-0.024-0.128-0.019-0.262-0.019-0.415c0-0.146-0.024-0.281-0.017-0.401c0.017-0.122,0.03-0.25,0.045-0.385
													c0.017-0.243,0.017-0.471,0.05-0.7c0.036-0.208,0.104-0.401,0.141-0.59c0.03-0.085,0.019-0.181,0.045-0.288
													c0.05-0.181,0.111-0.344,0.156-0.542c0.045-0.08,0.073-0.179,0.109-0.262c0.096-0.281,0.186-0.54,0.314-0.766
													c0.054-0.085,0.096-0.193,0.148-0.3c0.16-0.259,0.314-0.531,0.471-0.801c0.097-0.115,0.2-0.241,0.293-0.375
													c0.139-0.156,0.255-0.314,0.406-0.451c0.347-0.363,0.703-0.663,1.066-0.964c0.104-0.083,0.189-0.182,0.302-0.259
													c0.122-0.078,0.26-0.132,0.38-0.205c0.375-0.217,0.764-0.443,1.15-0.639c0.102-0.028,0.2-0.066,0.306-0.118
													c0.182-0.073,0.361-0.172,0.561-0.221c0.078-0.028,0.165-0.056,0.238-0.078c0.137-0.056,0.285-0.115,0.418-0.165
													c0.099-0.033,0.21-0.045,0.314-0.069c0.12-0.036,0.243-0.068,0.372-0.111c0.078,0,0.16-0.016,0.238-0.03
													c0.243-0.059,0.471-0.122,0.703-0.158c0.156-0.016,0.318-0.045,0.476-0.056c0.087-0.009,0.2,0,0.293-0.033
													c0.413,0.059,0.102,0.471-0.085,0.611c-0.045,0.035-0.09,0.063-0.134,0.097c-0.031,0.014-0.071,0.035-0.104,0.04
													c-0.09,0-0.165,0.033-0.243,0.071c-0.311,0.146-0.418,0.418-0.09,0.653c0.045,0.035,0.104,0.071,0.17,0.094
													c0.123,0.028,0.269,0.028,0.413,0.028c0.193-0.005,0.418,0,0.571-0.075c0.156-0.096,0.359-0.377,0.53-0.38
													c0.16-0.007,0.304,0.227,0.445,0.302c0.252,0.139,0.54,0.156,0.858,0.156c0.12,0,0.2,0.019,0.287-0.045
													c0.226-0.128,0.497-0.484,0.16-0.7c-0.174-0.106-0.375-0.106-0.549-0.201c-0.09-0.054-0.21-0.144-0.267-0.257
													c-0.045-0.068-0.097-0.208-0.024-0.278c0.16-0.158,0.599-0.056,0.79-0.035c0.342,0.035,0.651,0.104,0.983,0.191
													c0.333,0.085,0.663,0.146,0.974,0.241c0.141,0.059,0.285,0.115,0.443,0.167c0.104,0.045,0.219,0.085,0.347,0.13
													c0.097,0.043,0.207,0.087,0.314,0.137c0.064,0.019,0.123,0.043,0.189,0.069c0.078,0.052,0.146,0.085,0.236,0.127
													c0.12,0.054,0.24,0.122,0.358,0.184c0.153,0.085,0.28,0.175,0.425,0.252c0.26,0.127,0.523,0.287,0.764,0.474
													c0.083,0.066,0.156,0.139,0.231,0.21c0.078,0.056,0.146,0.115,0.212,0.175c0.085,0.08,0.151,0.151,0.215,0.241
													c0.193,0.155,0.38,0.304,0.547,0.511c0.189,0.193,0.366,0.417,0.554,0.644c0.045,0.085,0.102,0.172,0.156,0.254
													c0.108,0.156,0.212,0.318,0.321,0.488c0.096,0.168,0.165,0.366,0.255,0.521c0.215,0.441,0.413,0.896,0.524,1.408
													c0.033,0.122,0.05,0.243,0.071,0.346c0.028,0.075,0.061,0.167,0.085,0.266c0.017,0.085,0.017,0.175,0.026,0.267
													c0.017,0.069,0.031,0.141,0.045,0.221c0.054,0.45,0.087,0.931,0.068,1.386c0,0.043,0,0.085,0,0.139
													c0,0.123-0.024,0.306-0.061,0.413c-0.111,0.337-0.462,0.708-0.743,0.858c-0.054,0.036-0.111,0.078-0.174,0.096
													c-0.045,0.017-0.087,0.033-0.132,0.05c0,0-0.045,0-0.068,0.017c-0.024,0-0.061,0.002-0.085,0.002
													c-0.698,0-1.259-0.304-1.776-0.705c-0.122-0.09-0.413-0.385-0.54-0.151c-0.097,0.172-0.068,0.49-0.036,0.663
													c0.009,0.252,0.036,0.497,0.087,0.743c0.019,0.096,0.036,0.174,0.066,0.25c0.071,0.45,0.17,0.818,0.304,1.214
													c0.033,0.097,0.061,0.194,0.097,0.287c0.061,0.174,0.243,0.766,0.443,0.781c0.226,0.028,0.453-0.599,0.573-0.752
													c0.174-0.2,0.476-0.406,0.728-0.406c0.097,0.007,0.186,0.045,0.267,0.115c0.122,0.12,0.462,0.714,0.293,0.886
													c-0.111,0.12-0.29-0.104-0.375-0.174c-0.042-0.033-0.102-0.061-0.148-0.068v0.007c-0.033,0-0.017,0.049-0.017,0.061
													c0.017,0.063,0.186,0.222,0.248,0.278c0.059,0.09,0.115,0.191,0.146,0.278c0.182,0.45,0.141,1.153-0.12,1.54
													c-0.061,0.087-0.108,0.184-0.21,0.205v-0.031c-0.019,0,0.012-0.163,0.017-0.189c0.03-0.21,0.061-0.418,0.061-0.649
													c-0.007-0.252-0.12-0.91-0.425-0.856c-0.073,0.019-0.132,0.099-0.134,0.179c-0.019,0.066,0.014,0.134,0.014,0.198
													c0.028,0.212,0.087,0.399,0.083,0.634c0,0.219-0.068,0.363-0.132,0.545c-0.031,0.097-0.071,0.158-0.115,0.241
													c-0.05,0.115-0.151,0.302-0.158,0.451c-0.019,0.21,0.17,0.34,0.339,0.351c0.115,0.005,0.25,0.012,0.335-0.033
													c0.102-0.033,0.182-0.123,0.255-0.2c0.215-0.184,0.458-0.511,0.573-0.729c0.059-0.134,0.095-0.28,0.132-0.424
													c0.012-0.052,0.031-0.111,0.05-0.174c0.036-0.198-0.019-0.418,0.024-0.62c0.028-0.146,0.233-0.139,0.339-0.09
													c0.066,0.033,0.111,0.087,0.151,0.139c0.186,0.217,0.285,0.458,0.302,0.761c0.024,0.41,0.005,0.792-0.115,1.134
													c-0.148,0.424-0.504,0.754-0.84,0.979c-0.104,0.069-0.224,0.128-0.323,0.148c-0.045,0.007-0.073,0.01-0.12,0.028
													c-0.083,0-0.186,0.012-0.243,0.063c-0.071,0-0.236,0.033-0.29,0.071c-0.031,0.005-0.045,0.005-0.045,0.005
													c-0.05,0-0.073,0.01-0.102,0.019c-0.036,0-0.068,0-0.095,0.005c-0.207,0-0.413,0.019-0.582-0.024
													c-0.323-0.085-0.58-0.34-0.698-0.662c-0.083-0.208-0.122-0.922-0.314-0.972c-0.224-0.056-0.583,0.573-0.703,0.731
													c-0.215,0.304-0.401,0.608-0.547,0.901c-0.036,0.069-0.073,0.132-0.104,0.221c-0.104,0.304-0.134,0.658-0.321,0.934
													c-0.073,0.122-0.21,0.254-0.323,0.323c-0.068,0.042-0.128,0.071-0.194,0.106c-0.024,0-0.045,0-0.073,0
													c-0.033,0-0.068,0.005-0.09,0.005c-0.096,0-0.165,0.024-0.243,0.045c-0.05,0.009-0.104,0.028-0.146,0.036
													c-0.111,0-0.255,0.045-0.339-0.031c-0.115-0.08,0.096-0.392-0.139-0.406h-0.033c-0.12,0.007-0.215,0.108-0.302,0.175
													c-0.132,0.115-0.269,0.189-0.408,0.309c-0.036,0.05-0.087,0.104-0.128,0.158c-0.158,0.158-0.321,0.309-0.493,0.432
													c-0.2,0.128-0.45,0.135-0.636,0.28c0,0-0.045,0-0.083,0c-0.033,0.017-0.071,0.019-0.102,0.019
													c-0.019,0.009-0.05,0.009-0.073,0.017c-0.033,0-0.064,0.009-0.096,0.009c-0.036,0.007-0.071,0.007-0.097,0.017
													c-0.028,0.007-0.061,0.007-0.096,0.007c-0.035,0-0.068,0.017-0.102,0.021c-0.031,0-0.054,0.005-0.068,0.005
													c-0.031,0.01-0.063,0.01-0.096,0.019c-0.019,0.01-0.054,0.01-0.087,0.016c-0.031,0-0.087-0.003-0.12,0.009
													c-0.097,0-0.186-0.009-0.278-0.009c-0.297-0.003-0.585-0.003-0.887-0.059c-0.179-0.033-0.342-0.085-0.524-0.135
													c-0.229-0.073-0.455-0.149-0.672-0.241c-0.128-0.054-0.264-0.102-0.389-0.163c-0.061-0.031-0.146-0.078-0.212-0.12
													c-0.115-0.049-0.215-0.102-0.318-0.175c-0.201-0.158-0.398-0.412-0.649-0.443c-0.17-0.024-0.148,0.161-0.215,0.227
													c-0.045,0.052-0.09,0.063-0.139,0.106c-0.078,0-0.151-0.035-0.215-0.05c-0.139-0.043-0.278-0.071-0.408-0.097
													c-0.148-0.045-0.311-0.087-0.434-0.175c-0.429-0.3-0.413-0.906-0.599-1.37c-0.09-0.21-0.247-0.436-0.33-0.7
													c-0.061-0.129-0.141-0.226-0.201-0.34c-0.05-0.08-0.078-0.163-0.122-0.248c-0.061-0.12-0.132-0.24-0.193-0.356
													c-0.042-0.061-0.078-0.122-0.122-0.193c-0.033-0.045-0.108-0.071-0.174-0.059c-0.314,0.05-0.342,0.728-0.413,0.998
													c-0.071,0.297-0.311,0.649-0.533,0.785c-0.078,0.052-0.148,0.085-0.215,0.125c-0.875,0-1.851-0.21-2.396-0.884
													c-0.045-0.073-0.111-0.134-0.153-0.224c-0.156-0.3-0.207-0.677-0.207-1.016
													C139.551,20.489,139.598,20.079,139.872,19.787"/>
											</g>
										</g>
									</g>
								</g>
								<g>
									<g>
										<g>
											<g>
												<defs>
													<path id="SVGID_11_" d="M127.845,22.242c0,12.275,9.957,22.223,22.235,22.223c12.275,0,22.235-9.946,22.235-22.223
														C172.316,9.955,162.358,0,150.081,0C137.8,0,127.845,9.955,127.845,22.242"/>
												</defs>
												<clipPath id="SVGID_12_">
													<use xlink:href="#SVGID_11_"  overflow="visible"/>
												</clipPath>
												<path clip-path="url(#SVGID_12_)" fill="#FFFFFF" d="M152.493,29.067c0.059-0.115,0.108-0.234,0.174-0.34
													c0.255-0.483,0.511-0.91,0.755-1.372c0.036-0.069,0.066-0.137,0.087-0.198c0.073-0.149,0.16-0.29,0.226-0.432
													c0.064-0.158,0.134-0.321,0.219-0.422c0.111-0.212,0.236-0.436,0.366-0.655c0.036-0.069,0.085-0.175,0.16-0.217v-0.012
													c0.05,0.014,0.064,0.024,0.064,0.085c0.012,0.083-0.042,0.16-0.064,0.247c-0.019,0.078-0.036,0.16-0.059,0.241
													c-0.024,0.08-0.054,0.134-0.083,0.207c-0.031,0.118-0.085,0.181-0.111,0.292c-0.036,0.082-0.071,0.163-0.104,0.24
													c-0.064,0.142-0.115,0.304-0.16,0.443c-0.054,0.165-0.139,0.309-0.194,0.484c-0.036,0.139-0.085,0.273-0.123,0.405
													c-0.097,0.193-0.201,0.417-0.28,0.663c-0.071,0.194-0.128,0.401-0.193,0.59c-0.064,0.174-0.278,0.504-0.45,0.54
													c-0.096,0.014-0.175-0.009-0.26-0.045c-0.054-0.026-0.134-0.076-0.156-0.156
													C152.255,29.442,152.421,29.225,152.493,29.067"/>
											</g>
										</g>
									</g>
								</g>
								<g>
									<g>
										<g>
											<g>
												<defs>
													<path id="SVGID_13_" d="M127.845,22.242c0,12.275,9.957,22.223,22.235,22.223c12.275,0,22.235-9.946,22.235-22.223
														C172.316,9.955,162.358,0,150.081,0C137.8,0,127.845,9.955,127.845,22.242"/>
												</defs>
												<clipPath id="SVGID_14_">
													<use xlink:href="#SVGID_13_"  overflow="visible"/>
												</clipPath>
												<path clip-path="url(#SVGID_14_)" fill="#FFFFFF" d="M152.262,28.461c-0.05,0.094-0.102,0.194-0.141,0.293
													c-0.096,0.198-0.21,0.382-0.314,0.563c-0.083,0.144-0.146,0.266-0.26,0.38c-0.045,0.059-0.111,0.102-0.179,0.137
													c-0.031,0.009-0.059,0.01-0.083,0.021c-0.045,0.007-0.073,0.012-0.111,0.012c-0.073,0-0.267-0.024-0.323,0
													c-0.054,0-0.123-0.007-0.182,0.007c-0.156,0-0.611,0.019-0.611-0.174c-0.005-0.181,0.318-0.507,0.434-0.656
													c0.132-0.167,0.266-0.332,0.415-0.49c0.16-0.2,0.321-0.396,0.484-0.547c0.139-0.148,0.269-0.311,0.401-0.458
													c0.266-0.314,0.517-0.653,0.785-0.965c0.05-0.057,0.111-0.111,0.17-0.172c0.236-0.226,0.432-0.504,0.67-0.735
													c0.083-0.063,0.141-0.108,0.224-0.163c0.033,0.017,0.071,0.033,0.083,0.071c0.028,0.179-0.174,0.472-0.24,0.599
													c-0.073,0.156-0.139,0.285-0.229,0.445c-0.111,0.2-0.224,0.417-0.33,0.636c-0.128,0.229-0.266,0.434-0.375,0.669
													c-0.045,0.092-0.096,0.172-0.128,0.243C152.364,28.278,152.31,28.363,152.262,28.461"/>
											</g>
										</g>
									</g>
								</g>
								<g>
									<g>
										<g>
											<g>
												<defs>
													<path id="SVGID_15_" d="M127.845,22.242c0,12.275,9.957,22.223,22.235,22.223c12.275,0,22.235-9.946,22.235-22.223
														C172.316,9.955,162.358,0,150.081,0C137.8,0,127.845,9.955,127.845,22.242"/>
												</defs>
												<clipPath id="SVGID_16_">
													<use xlink:href="#SVGID_15_"  overflow="visible"/>
												</clipPath>
												<path clip-path="url(#SVGID_16_)" fill="#FFFFFF" d="M150.465,26.415c-0.05,0.153-0.212,0.267-0.314,0.37
													c-0.045,0.045-0.104,0.097-0.146,0.155c-0.054,0.03-0.102,0.056-0.148,0.085c-0.104,0-0.194-0.026-0.278-0.073
													c-0.193-0.115-0.359-0.314-0.439-0.526c-0.019-0.035-0.033-0.09,0-0.118c0.087-0.118,0.278-0.071,0.401-0.118
													c0.16,0.016,0.33,0.023,0.504,0.026c0.102,0,0.224-0.009,0.311,0.019c0.036,0.009,0.096,0.043,0.108,0.08
													C150.475,26.346,150.475,26.386,150.465,26.415"/>
											</g>
										</g>
									</g>
								</g>
								<g>
									<g>
										<g>
											<g>
												<defs>
													<path id="SVGID_17_" d="M127.845,22.242c0,12.275,9.957,22.223,22.235,22.223c12.275,0,22.235-9.946,22.235-22.223
														C172.316,9.955,162.358,0,150.081,0C137.8,0,127.845,9.955,127.845,22.242"/>
												</defs>
												<clipPath id="SVGID_18_">
													<use xlink:href="#SVGID_17_"  overflow="visible"/>
												</clipPath>
												<path clip-path="url(#SVGID_18_)" fill="#FFFFFF" d="M135.658,22.154c0.042,0.035,0.073,0.069,0.115,0.097
													c0.099,0.047,0.212,0.102,0.321,0.137c0.177,0.102,0.328,0.21,0.497,0.318c0.102,0.071,0.21,0.129,0.323,0.156
													c0.354,0.241,0.686,0.512,1.025,0.766c0.083,0.059,0.16,0.102,0.25,0.158c0.073,0.071,0.158,0.146,0.24,0.205
													c0.186,0.139,0.365,0.28,0.542,0.422c0.071,0.052,0.148,0.108,0.219,0.156c0.078,0.033,0.165,0.096,0.243,0.165
													c0.141,0.118,0.297,0.248,0.432,0.385c0.064,0.076,0.132,0.148,0.193,0.215c0.087,0.09,0.158,0.189,0.238,0.29
													c0.045,0.033,0.073,0.076,0.108,0.118c0.019,0.026,0.061,0.078,0.031,0.108c-0.009,0.023-0.031,0.028-0.045,0.023
													c-0.045-0.023-0.097-0.052-0.146-0.071c-0.122-0.085-0.243-0.165-0.365-0.252c-0.085-0.061-0.186-0.122-0.285-0.188
													c-0.099-0.094-0.215-0.184-0.328-0.274c-0.25-0.212-0.523-0.375-0.785-0.528c-0.09-0.071-0.182-0.151-0.269-0.226
													c-0.146-0.118-0.293-0.226-0.453-0.337c-0.087-0.063-0.194-0.115-0.293-0.184c-0.068-0.052-0.139-0.108-0.2-0.163
													c-0.158-0.128-0.306-0.245-0.467-0.366c-0.16-0.123-0.321-0.262-0.486-0.382c-0.083-0.061-0.17-0.096-0.25-0.155
													c-0.05-0.066-0.108-0.123-0.165-0.188c-0.073-0.082-0.148-0.156-0.233-0.24c-0.061-0.061-0.139-0.073-0.182-0.137
													c-0.031-0.043-0.054-0.069-0.054-0.12C135.519,22.079,135.59,22.105,135.658,22.154"/>
											</g>
										</g>
									</g>
								</g>
								<g>
									<g>
										<g>
											<g>
												<defs>
													<path id="SVGID_19_" d="M127.845,22.242c0,12.275,9.957,22.223,22.235,22.223c12.275,0,22.235-9.946,22.235-22.223
														C172.316,9.955,162.358,0,150.081,0C137.8,0,127.845,9.955,127.845,22.242"/>
												</defs>
												<clipPath id="SVGID_20_">
													<use xlink:href="#SVGID_19_"  overflow="visible"/>
												</clipPath>
												<path clip-path="url(#SVGID_20_)" fill="#FFFFFF" d="M136.429,26.679c-0.05,0.038-0.104,0.019-0.146-0.017
													c-0.09-0.071-0.132-0.168-0.189-0.259c-0.096-0.073-0.175-0.191-0.267-0.295c-0.019-0.045-0.054-0.118-0.087-0.175
													c-0.028-0.052-0.061-0.096-0.096-0.148c-0.036-0.071-0.061-0.13-0.09-0.2c-0.17-0.304-0.354-0.61-0.511-0.927
													c-0.019-0.063-0.045-0.099-0.064-0.172c-0.064-0.144-0.128-0.274-0.193-0.418c-0.019-0.071-0.045-0.137-0.064-0.203
													c-0.031-0.076-0.073-0.139-0.109-0.208c-0.122-0.255-0.207-0.545-0.302-0.818c-0.068-0.174-0.379-0.799-0.297-1.011
													c0.193,0.009,0.342,0.146,0.476,0.255c0.092,0.045,0.189,0.108,0.278,0.172c0.229,0.186,0.451,0.366,0.675,0.542
													c0.068,0.033,0.12,0.085,0.17,0.139c0.128,0.108,0.26,0.221,0.384,0.328c0.148,0.108,0.278,0.243,0.422,0.34
													c0.061,0.045,0.128,0.096,0.182,0.137c0.09,0.071,0.174,0.156,0.273,0.229c0.102,0.089,0.285,0.141,0.323,0.304
													c0.05,0.184-0.09,0.33-0.148,0.484c-0.083,0.194-0.182,0.385-0.236,0.608c-0.059,0.24-0.132,0.465-0.182,0.691
													C136.58,26.278,136.616,26.564,136.429,26.679"/>
											</g>
										</g>
									</g>
								</g>
								<g>
									<g>
										<g>
											<g>
												<defs>
													<path id="SVGID_21_" d="M127.845,22.242c0,12.275,9.957,22.223,22.235,22.223c12.275,0,22.235-9.946,22.235-22.223
														C172.316,9.955,162.358,0,150.081,0C137.8,0,127.845,9.955,127.845,22.242"/>
												</defs>
												<clipPath id="SVGID_22_">
													<use xlink:href="#SVGID_21_"  overflow="visible"/>
												</clipPath>
												<path clip-path="url(#SVGID_22_)" fill="#FFFFFF" d="M138.134,35.422c-0.318,0-0.608-0.028-0.91-0.063
													c-0.196-0.012-0.38-0.012-0.587-0.024c-0.102-0.017-0.212-0.033-0.318-0.035c-0.153-0.003-0.306-0.003-0.462-0.003
													c-0.122-0.014-0.252-0.042-0.375-0.059c-0.078,0-0.16,0-0.243,0c-0.134-0.012-0.266-0.045-0.415-0.059
													c-0.104,0-0.224-0.003-0.33-0.003c-0.087-0.009-0.182-0.033-0.273-0.045c-0.608-0.057-1.261-0.033-1.594-0.632
													c-0.302-0.559,0.12-1.245,0.458-1.631c0.748-0.87,1.539-1.651,2.323-2.49c0.215-0.229,0.434-0.478,0.649-0.669
													c0.104-0.122,0.212-0.236,0.318-0.354c0.05-0.05,0.115-0.083,0.174-0.123c0.085,0,0.141,0.045,0.17,0.137
													c0.061,0.144,0.042,0.346,0.045,0.5c0.012,0.063,0.017,0.128,0.042,0.21c0.012,0.122,0.012,0.247,0.012,0.372
													c0.012,0.064,0.033,0.134,0.033,0.191s0.007,0.115,0.007,0.181c0.028,0.139,0.045,0.28,0.078,0.425
													c0.045,0.519,0.134,1.028,0.26,1.539c0.031,0.139,0.071,0.287,0.104,0.438c0.031,0.096,0.083,0.165,0.122,0.262
													c0.017,0.069,0.03,0.139,0.045,0.2c0.045,0.148,0.12,0.285,0.174,0.418c0.036,0.076,0.071,0.182,0.115,0.273
													c0.109,0.186,0.207,0.366,0.306,0.563c0.059,0.089,0.196,0.168,0.2,0.285C138.262,35.337,138.188,35.379,138.134,35.422
													"/>
											</g>
										</g>
									</g>
								</g>
								<g>
									<g>
										<g>
											<g>
												<defs>
													<path id="SVGID_23_" d="M127.845,22.242c0,12.275,9.957,22.223,22.235,22.223c12.275,0,22.235-9.946,22.235-22.223
														C172.316,9.955,162.358,0,150.081,0C137.8,0,127.845,9.955,127.845,22.242"/>
												</defs>
												<clipPath id="SVGID_24_">
													<use xlink:href="#SVGID_23_"  overflow="visible"/>
												</clipPath>
												<path clip-path="url(#SVGID_24_)" fill="#FFFFFF" d="M148.638,37.61c-0.054,0.061-0.122,0.082-0.189,0.139
													c-0.179,0-0.365-0.059-0.524-0.12c-0.09-0.033-0.179-0.092-0.28-0.104c-0.318-0.04-0.425,0.227-0.651,0.358
													c-0.097,0.052-0.226,0.047-0.318,0.104c-0.017,0.007-0.045,0.007-0.068,0.007c-0.019,0.009-0.045,0.009-0.068,0.009
													c-0.031,0.009-0.045,0.009-0.064,0.019c-0.024,0.007-0.064,0.007-0.083,0.019c-0.033,0-0.064,0.009-0.096,0.012
													c-0.068,0-0.158-0.026-0.226,0.007c-0.045,0-0.108,0-0.148,0.01c-0.042,0-0.073,0.007-0.111,0.019
													c-0.036,0-0.092-0.01-0.123,0.009c-0.174,0-0.347-0.009-0.511-0.009c-0.05,0-0.122-0.019-0.174,0.009
													c-0.175,0-0.375,0.01-0.524-0.045c-0.21-0.08-0.417-0.247-0.611-0.366c-0.193-0.106-0.366-0.221-0.547-0.349
													c-0.097-0.064-0.215-0.139-0.267-0.26c-0.109-0.271,0.33-0.495,0.087-0.802c-0.092-0.104-0.231-0.118-0.358-0.165
													c-0.158-0.057-0.323-0.106-0.484-0.168c-0.115-0.04-0.224-0.118-0.328-0.167c-0.16-0.087-0.339-0.182-0.488-0.306
													c-0.16-0.149-0.38-0.432-0.599-0.45c-0.212,0-0.33,0.207-0.479,0.32c-0.064,0.054-0.132,0.064-0.193,0.115
													c-0.193,0-0.401,0.021-0.573-0.061c-0.068-0.045-0.115-0.089-0.179-0.139c-0.139-0.12-0.287-0.24-0.401-0.394
													c-0.031-0.042-0.059-0.085-0.087-0.134c-0.193-0.25-0.384-0.484-0.547-0.74c-0.128-0.214-0.252-0.424-0.358-0.616
													c-0.045-0.108-0.097-0.226-0.139-0.34c-0.059-0.104-0.104-0.194-0.158-0.293c-0.045-0.122-0.073-0.236-0.115-0.363
													c-0.087-0.28-0.174-0.552-0.233-0.818c-0.071-0.366-0.165-0.724-0.194-1.129c-0.009-0.148-0.054-0.29-0.059-0.441
													c0-0.149-0.009-0.316-0.009-0.502c0-0.097-0.024-0.181-0.024-0.285c0.005-0.12,0.017-0.233,0.017-0.358
													c-0.012-0.344-0.097-0.677-0.085-0.967c0.019-0.326-0.068-0.615-0.059-0.934c0.019-0.132,0.033-0.26,0.059-0.38
													c0.068-0.326,0.148-0.639,0.26-0.972c0.017-0.036,0.036-0.071,0.05-0.113c0.078-0.193,0.156-0.417,0.304-0.54
													c0.024-0.03,0.054-0.038,0.078-0.061c0.219,0.005,0.297,0.148,0.471,0.245c0.085,0.061,0.193,0.122,0.293,0.182
													c0.214,0.135,0.408,0.287,0.625,0.425c0.212,0.135,0.422,0.267,0.641,0.382c0.109,0.059,0.215,0.122,0.33,0.174
													c0.153,0.071,0.285,0.139,0.443,0.2c0.078,0.033,0.141,0.059,0.226,0.064c0.099,0.017,0.194-0.009,0.278,0.057
													c0.083,0.059,0.141,0.186,0.201,0.278c0.073,0.089,0.153,0.172,0.24,0.266c0.123,0.182,0.207,0.382,0.328,0.587
													c0.083,0.155,0.238,0.34,0.267,0.504h-0.009c-0.019,0-0.017,0.007-0.017,0.007c-0.068-0.007-0.134-0.113-0.186-0.155
													c-0.068-0.042-0.141-0.094-0.207-0.161c-0.104-0.099-0.201-0.226-0.287-0.32c-0.139-0.163-0.285-0.375-0.458-0.495
													c-0.045-0.024-0.139-0.036-0.189-0.007c-0.16,0.123,0.033,0.418,0.097,0.549c0.05,0.085,0.09,0.174,0.148,0.25
													c0.17,0.189,0.323,0.394,0.512,0.583c0.174,0.174,0.372,0.358,0.563,0.528c0.078,0.063,0.156,0.137,0.226,0.207
													c0.158,0.108,0.323,0.193,0.418,0.391c0.05,0.118,0.087,0.219,0.141,0.323c0.045,0.064,0.085,0.148,0.12,0.219
													c0.073,0.174,0.123,0.351,0.201,0.528c0.042,0.118,0.102,0.229,0.156,0.339c0.134,0.366,0.28,0.681,0.432,1.044
													c0.066,0.139,0.097,0.285,0.156,0.427c0.045,0.083,0.096,0.175,0.146,0.271c0.064,0.181,0.134,0.34,0.2,0.509
													c0.09,0.2,0.2,0.412,0.293,0.634c0.064,0.153,0.115,0.304,0.158,0.458c0.096,0.226,0.186,0.441,0.28,0.658
													c0.059,0.104,0.115,0.207,0.156,0.314c0.054,0.085,0.078,0.175,0.141,0.245c0.153,0.2,0.585,0.233,0.833,0.28
													c0.224,0.052,0.432,0.128,0.653,0.193c0.061,0.003,0.132,0.026,0.193,0.042c0.504,0.137,0.997,0.318,1.434,0.587
													C148.711,36.851,148.943,37.277,148.638,37.61"/>
											</g>
										</g>
									</g>
								</g>
								<g>
									<g>
										<g>
											<g>
												<defs>
													<path id="SVGID_25_" d="M127.845,22.242c0,12.275,9.957,22.223,22.235,22.223c12.275,0,22.235-9.946,22.235-22.223
														C172.316,9.955,162.358,0,150.081,0C137.8,0,127.845,9.955,127.845,22.242"/>
												</defs>
												<clipPath id="SVGID_26_">
													<use xlink:href="#SVGID_25_"  overflow="visible"/>
												</clipPath>
												<path clip-path="url(#SVGID_26_)" fill="#FFFFFF" d="M148.794,29.673c-0.012,0.125-0.122,0.161-0.193,0.205h-0.16
													c-0.21,0-0.418,0-0.611-0.007c-0.231-0.007-0.425-0.007-0.587-0.111c-0.21-0.144-0.266-0.399-0.347-0.622
													c-0.019-0.064-0.059-0.122-0.073-0.179c-0.134-0.347-0.247-0.695-0.365-1.005c-0.033-0.059-0.061-0.122-0.09-0.175
													c-0.042-0.108-0.073-0.214-0.115-0.32c-0.017-0.078-0.045-0.151-0.073-0.226c-0.059-0.128-0.102-0.252-0.156-0.375
													c-0.028-0.083-0.054-0.153-0.078-0.24c-0.122-0.323-0.297-0.648-0.406-1.012c-0.028-0.094-0.073-0.182-0.087-0.28
													c-0.009-0.045,0.012-0.085,0.028-0.122c0.193,0.036,0.292,0.254,0.408,0.398c0.148,0.174,0.28,0.346,0.417,0.528
													c0.061,0.083,0.122,0.181,0.182,0.236c0.17,0.212,0.33,0.438,0.488,0.67c0.05,0.076,0.115,0.156,0.17,0.234
													c0.05,0.076,0.104,0.174,0.16,0.252c0.096,0.12,0.189,0.236,0.287,0.358c0.201,0.254,0.406,0.537,0.611,0.827
													c0.134,0.179,0.252,0.382,0.392,0.583c0.061,0.083,0.122,0.181,0.179,0.267
													C148.787,29.588,148.796,29.624,148.794,29.673"/>
											</g>
										</g>
									</g>
								</g>
								<g>
									<g>
										<g>
											<g>
												<defs>
													<path id="SVGID_27_" d="M127.845,22.242c0,12.275,9.957,22.223,22.235,22.223c12.275,0,22.235-9.946,22.235-22.223
														C172.316,9.955,162.358,0,150.081,0C137.8,0,127.845,9.955,127.845,22.242"/>
												</defs>
												<clipPath id="SVGID_28_">
													<use xlink:href="#SVGID_27_"  overflow="visible"/>
												</clipPath>
												<path clip-path="url(#SVGID_28_)" fill="#FFFFFF" d="M148.737,28.091c-0.045,0.033-0.115,0.042-0.153,0.066
													c-0.097,0-0.189-0.017-0.25-0.066c-0.087-0.061-0.165-0.172-0.233-0.273c-0.054-0.068-0.096-0.13-0.153-0.182
													c-0.054-0.111-0.12-0.191-0.174-0.293c-0.134-0.196-0.304-0.385-0.451-0.59c-0.134-0.221-0.287-0.406-0.443-0.608
													c-0.104-0.132-0.406-0.458-0.333-0.642c0.024-0.071,0.111-0.085,0.16-0.115c0.111,0,0.224,0,0.311,0.026
													c0.085,0.012,0.146,0.052,0.224,0.089c0.17,0.071,0.328,0.158,0.497,0.254c0.09,0.052,0.194,0.12,0.304,0.208
													c0.156,0.148,0.293,0.321,0.432,0.445c0.096,0.12,0.156,0.245,0.25,0.366c0.061,0.056,0.104,0.12,0.158,0.175
													c0.139,0.151,0.318,0.313,0.314,0.533C149.185,27.705,148.903,27.997,148.737,28.091"/>
											</g>
										</g>
									</g>
								</g>
								<g>
									<g>
										<g>
											<g>
												<defs>
													<path id="SVGID_29_" d="M127.845,22.242c0,12.275,9.957,22.223,22.235,22.223c12.275,0,22.235-9.946,22.235-22.223
														C172.316,9.955,162.358,0,150.081,0C137.8,0,127.845,9.955,127.845,22.242"/>
												</defs>
												<clipPath id="SVGID_30_">
													<use xlink:href="#SVGID_29_"  overflow="visible"/>
												</clipPath>
												<path clip-path="url(#SVGID_30_)" fill="#FFFFFF" d="M149.478,29.407c-0.078,0.019-0.158-0.031-0.201-0.089
													c-0.078-0.078-0.097-0.16-0.146-0.267c-0.054-0.144-0.096-0.358-0.05-0.526c0.028-0.106,0.115-0.194,0.175-0.292
													c0.102-0.118,0.224-0.25,0.34-0.38c0.537-0.618,1.108-1.209,1.764-1.599c0.104-0.076,0.212-0.175,0.314-0.243
													c0.111-0.059,0.226-0.052,0.339-0.099c0.132-0.05,0.274-0.135,0.408-0.21c0.042,0,0.073,0.01,0.111,0.026
													c0,0.05,0.005,0.076-0.003,0.122c-0.024,0.087-0.109,0.181-0.174,0.26c-0.128,0.153-0.25,0.278-0.38,0.432
													c-0.486,0.608-1.009,1.203-1.5,1.764c-0.115,0.137-0.233,0.269-0.34,0.406c-0.087,0.122-0.186,0.24-0.285,0.358
													C149.746,29.199,149.634,29.378,149.478,29.407"/>
											</g>
										</g>
									</g>
								</g>
								<g>
									<g>
										<g>
											<g>
												<defs>
													<path id="SVGID_31_" d="M127.845,22.242c0,12.275,9.957,22.223,22.235,22.223c12.275,0,22.235-9.946,22.235-22.223
														C172.316,9.955,162.358,0,150.081,0C137.8,0,127.845,9.955,127.845,22.242"/>
												</defs>
												<clipPath id="SVGID_32_">
													<use xlink:href="#SVGID_31_"  overflow="visible"/>
												</clipPath>
												<path clip-path="url(#SVGID_32_)" fill="#FFFFFF" d="M161.132,35.445c-0.042,0.033-0.092,0.033-0.141,0.068
													c-0.26,0-0.497-0.017-0.74-0.035c-0.174,0-0.375-0.007-0.535-0.085c-0.174-0.08-0.248-0.337-0.445-0.358
													c-0.007-0.016-0.019-0.016-0.019-0.016c-0.174,0-0.314,0.115-0.434,0.207c-0.111,0.073-0.243,0.151-0.372,0.194
													c-0.099,0.054-0.224,0.087-0.328,0.102c-0.045,0.007-0.095,0.024-0.141,0.035c-0.042,0-0.102,0-0.139,0.016
													c-0.059,0-0.122-0.016-0.158,0.01c-0.028,0.007-0.066,0.009-0.097,0.009c-0.019,0.009-0.045,0.009-0.066,0.012
													c-0.031,0.01-0.064,0.01-0.097,0.01c-0.054,0-0.146-0.01-0.186,0.016c-0.061,0-0.108-0.007-0.156,0.017
													c-0.071,0-0.236-0.024-0.293,0.016c-0.123-0.009-0.247-0.016-0.366-0.033c-0.165-0.007-0.328,0.017-0.479-0.016
													c-0.129-0.026-0.257-0.045-0.38-0.071c-0.201-0.017-0.38-0.017-0.58-0.04c-0.128-0.026-0.248-0.087-0.389-0.087v0.019
													l0,0c-0.012,0.085,0.193,0.214,0.24,0.267c0.068,0.089,0.137,0.175,0.194,0.267c0.071,0.078,0.156,0.148,0.189,0.245
													c0.05,0.191-0.104,0.288-0.201,0.392c-0.071,0.096-0.16,0.163-0.269,0.212c-0.097,0.052-0.21,0.102-0.318,0.168
													c-0.193,0.104-0.372,0.222-0.557,0.347c-0.059,0.028-0.111,0.045-0.17,0.069c-0.096,0-0.342-0.026-0.413,0.019
													c-0.033,0-0.087-0.003-0.122,0.007c-0.102,0-0.306-0.047-0.398,0c-0.165,0-0.328-0.007-0.471-0.007
													c-0.156-0.003-0.358,0.007-0.471-0.087c-0.156-0.108,0.104-0.26,0.042-0.384c-0.017-0.04-0.078-0.04-0.122-0.028
													c-0.12,0.009-0.231,0.085-0.358,0.129c-0.031,0.007-0.068,0.026-0.104,0.043c-0.033,0-0.071,0-0.104,0.012
													c-0.068,0-0.17-0.012-0.229,0.007c-0.12,0-0.24-0.007-0.375-0.007c-0.045,0-0.104-0.012-0.128,0.007
													c-0.141,0-0.266-0.007-0.38-0.019c-0.122-0.017-0.408,0-0.366-0.2c0.05-0.2,0.58-0.514,0.754-0.618
													c0.153-0.073,0.304-0.184,0.476-0.262c0.158-0.071,0.323-0.175,0.479-0.254c0.085-0.043,0.165-0.087,0.25-0.132
													c0.068-0.035,0.134-0.069,0.207-0.115c0.193-0.111,0.398-0.194,0.613-0.302c0.085-0.033,0.174-0.045,0.255-0.101
													c0.207-0.115,0.365-0.313,0.53-0.514c0.224-0.266,0.429-0.53,0.644-0.816c0.083-0.12,0.174-0.243,0.269-0.358
													c0.471-0.517,0.922-1.103,1.344-1.683c0.085-0.089,0.158-0.165,0.236-0.254c0.28-0.354,0.571-0.708,0.86-1.066
													c0.036-0.069,0.071-0.125,0.12-0.175c0.05-0.059,0.115-0.134,0.174-0.194c0.111-0.141,0.201-0.278,0.33-0.41
													c0.224-0.226,0.479-0.41,0.715-0.66c0.339-0.351,0.636-0.722,0.926-1.052c0.104-0.139,0.599-0.695,0.471-0.851
													c-0.068-0.076-0.189-0.057-0.247-0.028c-0.061,0.054-0.097,0.122-0.141,0.189c-0.073,0.122-0.16,0.229-0.233,0.356
													c-0.078,0.118-0.193,0.233-0.285,0.354c-0.137,0.139-0.292,0.302-0.451,0.431c-0.05,0.042-0.156,0.12-0.212,0.064
													c-0.158-0.179,0.28-0.844,0.401-0.986c0.059-0.052,0.122-0.108,0.182-0.167c0.085-0.085,0.174-0.182,0.257-0.267
													c0.122-0.153,0.29-0.389,0.451-0.458c0.102-0.042,0.215-0.017,0.328-0.042c0.156-0.009,0.311-0.054,0.443-0.135
													c0.554-0.278,1.091-0.547,1.631-0.875c0.267-0.16,0.484-0.38,0.736-0.514c0.036-0.023,0.083-0.043,0.122-0.056
													c0.064,0.012,0.115,0.023,0.16,0.085c0.073,0.087,0.134,0.226,0.177,0.34c0.061,0.134,0.123,0.28,0.165,0.431
													c0.031,0.097,0.054,0.198,0.092,0.3c0.061,0.233,0.148,0.462,0.175,0.731c0.019,0.339-0.042,0.627-0.059,0.959
													c0,0.266-0.012,0.512-0.059,0.766c-0.033,0.214-0.073,0.431-0.111,0.648c-0.062,0.417-0.146,0.774-0.226,1.155
													c-0.028,0.234-0.068,0.46-0.095,0.679c-0.028,0.085-0.045,0.163-0.066,0.236c-0.104,0.458-0.179,0.95-0.314,1.446
													c-0.024,0.125-0.05,0.267-0.078,0.399c-0.045,0.2-0.102,0.356-0.158,0.547c-0.007,0.063-0.028,0.153-0.05,0.217
													c-0.019,0.082-0.054,0.141-0.071,0.212C161.703,34.55,161.514,35.189,161.132,35.445"/>
											</g>
										</g>
									</g>
								</g>
								<g>
									<g>
										<g>
											<g>
												<defs>
													<path id="SVGID_33_" d="M127.845,22.242c0,12.275,9.957,22.223,22.235,22.223c12.275,0,22.235-9.946,22.235-22.223
														C172.316,9.955,162.358,0,150.081,0C137.8,0,127.845,9.955,127.845,22.242"/>
												</defs>
												<clipPath id="SVGID_34_">
													<use xlink:href="#SVGID_33_"  overflow="visible"/>
												</clipPath>
												<path clip-path="url(#SVGID_34_)" fill="#FFFFFF" d="M167.558,34.295c-0.071,0.273-0.302,0.507-0.521,0.651
													c-0.066,0.033-0.146,0.054-0.2,0.089c-0.05,0-0.104,0-0.132,0.009c-0.028,0.01-0.05,0.01-0.073,0.01
													c-0.031,0.007-0.059,0.007-0.073,0.007c-0.05,0-0.102,0.016-0.139,0.033c0,0-0.05,0.003-0.087,0.003
													c0,0-0.045,0.01-0.078,0.012c0,0-0.045,0.009-0.078,0.012c-0.045,0-0.123-0.012-0.158,0.003
													c-0.045,0-0.087,0-0.122,0.014c-0.054,0-0.132,0.024-0.17,0.045c-0.033,0-0.071,0.007-0.071,0.007
													c-0.073,0-0.139-0.007-0.189,0.017c-0.071,0-0.165-0.017-0.219,0.016c-0.059,0-0.137-0.016-0.182,0.003
													c-0.054,0-0.141-0.003-0.193,0.009c-0.036,0-0.073,0.012-0.108,0.012c-0.071,0-0.165-0.012-0.219,0.017
													c-0.05,0-0.102-0.012-0.148,0.012c-0.059,0-0.132-0.012-0.186,0.014c-0.078,0-0.231-0.019-0.297,0.007
													c-0.042,0-0.085,0-0.123,0.016c-0.036,0-0.09,0-0.115,0.017c-0.095,0-0.247-0.017-0.321,0.009
													c-0.054,0-0.12-0.007-0.158,0.014c-0.045,0-0.099-0.009-0.151,0.019c-0.042,0-0.104-0.019-0.156,0.016
													c-0.054,0-0.132-0.016-0.182,0.007c-0.083,0-0.233-0.023-0.293,0.019c-0.028,0-0.061,0.003-0.096,0.003
													c-0.165,0-0.571,0.054-0.571-0.182c0.007-0.137,0.193-0.342,0.28-0.488c0.095-0.201,0.16-0.389,0.238-0.599
													c0.045-0.129,0.092-0.24,0.141-0.366c0.042-0.172,0.085-0.339,0.146-0.493c0.007-0.045,0.028-0.092,0.045-0.149
													c0.068-0.3,0.139-0.61,0.194-0.92c0.012-0.094,0.033-0.189,0.045-0.281c0.031-0.139,0.061-0.266,0.104-0.366
													c0.036-0.266,0.083-0.531,0.134-0.814c0.017-0.076,0.031-0.174,0.036-0.278c0.05-0.267,0.092-0.566,0.156-0.814
													c0.033-0.153,0.059-0.295,0.141-0.415c0.061,0,0.129,0,0.189,0.045c0.182,0.115,0.365,0.356,0.507,0.507
													c0.24,0.25,0.486,0.521,0.743,0.801c0.068,0.05,0.132,0.115,0.186,0.172c0.148,0.148,0.292,0.314,0.443,0.471
													c0.097,0.094,0.182,0.175,0.269,0.262c0.059,0.061,0.092,0.104,0.151,0.163c0.215,0.236,0.445,0.484,0.677,0.745
													c0.095,0.094,0.193,0.193,0.278,0.307c0.054,0.049,0.111,0.097,0.16,0.148c0.031,0.042,0.064,0.097,0.097,0.135
													c0.12,0.174,0.238,0.314,0.328,0.472C167.551,33.675,167.621,34.059,167.558,34.295"/>
											</g>
										</g>
									</g>
								</g>
								<g>
									<g>
										<g>
											<g>
												<defs>
													<path id="SVGID_35_" d="M127.845,22.242c0,12.275,9.957,22.223,22.235,22.223c12.275,0,22.235-9.946,22.235-22.223
														C172.316,9.955,162.358,0,150.081,0C137.8,0,127.845,9.955,127.845,22.242"/>
												</defs>
												<clipPath id="SVGID_36_">
													<use xlink:href="#SVGID_35_"  overflow="visible"/>
												</clipPath>
												<path clip-path="url(#SVGID_36_)" d="M145.717,17.186c0.097-0.007,0.193-0.038,0.302-0.052
													c0.134-0.012,0.302,0,0.439,0.014c0.207,0.026,0.413,0.123,0.577,0.217c0.141,0.071,0.285,0.137,0.425,0.212
													c0.108,0.069,0.512,0.445,0.603,0.438c0.024,0,0.042-0.003,0.064-0.017c0.132-0.134-0.09-0.505-0.151-0.636
													c-0.153-0.391-0.653-0.936-1.002-1.103c-0.207-0.092-0.384-0.108-0.616-0.108c-0.073,0.019-0.146,0.045-0.224,0.061
													c-0.146,0-0.269,0.089-0.384,0.155c-0.255,0.16-0.504,0.375-0.677,0.653c-0.042,0.059-0.102,0.198-0.03,0.266
													C145.167,17.415,145.573,17.231,145.717,17.186"/>
											</g>
										</g>
									</g>
								</g>
								<g>
									<g>
										<g>
											<g>
												<defs>
													<path id="SVGID_37_" d="M127.845,22.242c0,12.275,9.957,22.223,22.235,22.223c12.275,0,22.235-9.946,22.235-22.223
														C172.316,9.955,162.358,0,150.081,0C137.8,0,127.845,9.955,127.845,22.242"/>
												</defs>
												<clipPath id="SVGID_38_">
													<use xlink:href="#SVGID_37_"  overflow="visible"/>
												</clipPath>
												<path clip-path="url(#SVGID_38_)" d="M151.749,17.441c0.134-0.024,0.266-0.083,0.384-0.118
													c0.09-0.017,0.186-0.028,0.274-0.045c0.108-0.007,0.236-0.019,0.34-0.024c0.375,0,0.754,0.087,1.033,0.269
													c0.146,0.073,0.311,0.233,0.471,0.306c0.068,0.043,0.134,0.043,0.175-0.009c0.078-0.115,0.024-0.25,0-0.323
													c-0.153-0.458-0.45-0.868-0.84-1.09c-0.2-0.134-0.443-0.139-0.712-0.139c-0.17,0.05-0.339,0.066-0.484,0.149
													c-0.104,0.045-0.201,0.115-0.287,0.172c-0.132,0.108-0.653,0.59-0.504,0.801
													C151.637,17.434,151.696,17.45,151.749,17.441"/>
											</g>
										</g>
									</g>
								</g>
								<g>
									<g>
										<g>
											<g>
												<defs>
													<path id="SVGID_39_" d="M127.845,22.242c0,12.275,9.957,22.223,22.235,22.223c12.275,0,22.235-9.946,22.235-22.223
														C172.316,9.955,162.358,0,150.081,0C137.8,0,127.845,9.955,127.845,22.242"/>
												</defs>
												<clipPath id="SVGID_40_">
													<use xlink:href="#SVGID_39_"  overflow="visible"/>
												</clipPath>
												<path clip-path="url(#SVGID_40_)" d="M147.014,19.013c-0.141-0.059-0.292-0.083-0.467-0.083
													c-0.139,0.045-0.28,0.071-0.408,0.139c-0.111,0.049-0.226,0.108-0.321,0.188c-0.153,0.073-0.627,0.549-0.471,0.766
													c0.078,0.102,0.252,0.071,0.366,0.122c0.071,0.019,0.12,0.096,0.193,0.125c0.071,0.035,0.146,0.035,0.224,0.057
													c0.033,0.01,0.071,0.026,0.104,0.036c0.083,0.023,0.186,0.019,0.274,0c0.078-0.01,0.128-0.068,0.194-0.094
													c0.108-0.033,0.219-0.045,0.318-0.118c0.045-0.038,0.115-0.078,0.158-0.118c0.045-0.045,0.071-0.102,0.134-0.134
													c0.059-0.019,0.123-0.049,0.196-0.049c0.132,0,0.311,0.104,0.359-0.071C147.952,19.506,147.196,19.084,147.014,19.013"
													/>
											</g>
										</g>
									</g>
								</g>
								<g>
									<g>
										<g>
											<g>
												<defs>
													<path id="SVGID_41_" d="M127.845,22.242c0,12.275,9.957,22.223,22.235,22.223c12.275,0,22.235-9.946,22.235-22.223
														C172.316,9.955,162.358,0,150.081,0C137.8,0,127.845,9.955,127.845,22.242"/>
												</defs>
												<clipPath id="SVGID_42_">
													<use xlink:href="#SVGID_41_"  overflow="visible"/>
												</clipPath>
												<path clip-path="url(#SVGID_42_)" d="M153.892,19.24c-0.096-0.099-0.215-0.156-0.33-0.205
													c-0.153-0.068-0.302-0.08-0.497-0.08c-0.045,0.01-0.083,0.024-0.132,0.042c-0.139,0-0.255,0.049-0.366,0.102
													c-0.123,0.087-0.267,0.181-0.398,0.226c-0.085,0.078-0.361,0.354-0.314,0.491c0.059,0.139,0.189,0.028,0.28,0.012
													c0.033-0.007,0.085,0.016,0.128,0.026c0.036,0.043,0.078,0.071,0.12,0.102c0.179,0.144,0.377,0.321,0.599,0.389
													c0.068,0.019,0.146,0,0.224-0.01c0.078-0.019,0.175-0.042,0.267-0.056c0.115-0.033,0.21-0.108,0.33-0.127
													c0.16-0.038,0.333-0.061,0.497-0.083c0.036-0.009,0.054-0.035,0.09-0.064C154.537,19.751,154.061,19.323,153.892,19.24"
													/>
											</g>
										</g>
									</g>
								</g>
								<g>
									<g>
										<g>
											<g>
												<defs>
													<path id="SVGID_43_" d="M127.845,22.242c0,12.275,9.957,22.223,22.235,22.223c12.275,0,22.235-9.946,22.235-22.223
														C172.316,9.955,162.358,0,150.081,0C137.8,0,127.845,9.955,127.845,22.242"/>
												</defs>
												<clipPath id="SVGID_44_">
													<use xlink:href="#SVGID_43_"  overflow="visible"/>
												</clipPath>
												<path clip-path="url(#SVGID_44_)" d="M149.258,22.426c0.321,0.009,0.622-0.023,0.931-0.019
													c0.085,0.012,0.165,0.019,0.252,0.028c0.05,0,0.102,0,0.16-0.009c0.132,0.009,0.28,0.009,0.408-0.019
													c0.087-0.005,0.17,0,0.25-0.019c0.068-0.021,0.128-0.089,0.193-0.137c0.146-0.122,0.287-0.304,0.297-0.493
													c0.028-0.174-0.096-0.523-0.174-0.641c-0.031-0.054-0.059-0.068-0.096-0.122c-0.042-0.12-0.071-0.321-0.139-0.406
													c-0.05-0.059-0.122-0.071-0.193-0.083v0.019c-0.054,0-0.104,0.045-0.141,0.083c-0.045,0.066-0.059,0.13-0.059,0.208
													c0,0.186,0.078,0.304,0.16,0.445c0.05,0.094,0.128,0.226,0.115,0.354c-0.031,0.175-0.146,0.229-0.267,0.323
													c-0.153,0-0.314-0.009-0.471-0.024c-0.045,0-0.128-0.005-0.165,0.024c-0.139,0-0.26-0.009-0.398-0.024
													c-0.266-0.005-0.858,0.071-1.021-0.141c-0.036-0.052-0.05-0.122-0.036-0.175c0.009-0.023,0.012-0.05,0.019-0.059
													c0.061-0.226,0.408-0.736,0.182-0.965c-0.033-0.026-0.102-0.057-0.156-0.031c-0.064,0-0.123,0.01-0.16,0.059
													c-0.071,0.102-0.087,0.247-0.128,0.358c-0.078,0.172-0.207,0.354-0.252,0.578c-0.012,0.099-0.019,0.278,0.005,0.375
													C148.454,22.284,148.943,22.423,149.258,22.426"/>
											</g>
										</g>
									</g>
								</g>
								<g>
									<g>
										<g>
											<g>
												<defs>
													<path id="SVGID_45_" d="M127.845,22.242c0,12.275,9.957,22.223,22.235,22.223c12.275,0,22.235-9.946,22.235-22.223
														C172.316,9.955,162.358,0,150.081,0C137.8,0,127.845,9.955,127.845,22.242"/>
												</defs>
												<clipPath id="SVGID_46_">
													<use xlink:href="#SVGID_45_"  overflow="visible"/>
												</clipPath>
												<path clip-path="url(#SVGID_46_)" d="M150.8,23.069c-0.045,0.019-0.097,0.033-0.151,0.045
													c-0.073,0-0.231,0.045-0.293,0.094c-0.045,0-0.115-0.023-0.146,0.01c-0.219,0-0.422,0-0.604-0.066
													c-0.097-0.038-0.2-0.071-0.304-0.111c-0.045-0.024-0.099-0.033-0.151-0.045c-0.061-0.031-0.115-0.061-0.174-0.085
													c-0.132-0.057-0.297-0.076-0.434-0.076c-0.009,0.033-0.009,0.068,0.012,0.097c0.073,0.163,0.45,0.372,0.599,0.471
													c0.293,0.179,0.719,0.368,1.087,0.321c0.153-0.019,0.311-0.083,0.462-0.146c0.174-0.073,0.328-0.165,0.471-0.304
													c0.109-0.118,0.233-0.198,0.274-0.356c0,0-0.061-0.049-0.12-0.049C151.156,22.876,150.965,22.999,150.8,23.069"/>
											</g>
										</g>
									</g>
								</g>
								<g>
									<g>
										<g>
											<g>
												<defs>
													<path id="SVGID_47_" d="M127.845,22.242c0,12.275,9.957,22.223,22.235,22.223c12.275,0,22.235-9.946,22.235-22.223
														C172.316,9.955,162.358,0,150.081,0C137.8,0,127.845,9.955,127.845,22.242"/>
												</defs>
												<clipPath id="SVGID_48_">
													<use xlink:href="#SVGID_47_"  overflow="visible"/>
												</clipPath>
												<path clip-path="url(#SVGID_48_)" fill="#FFFFFF" d="M149.949,24.159c-0.068,0.028-0.293,0.045-0.278,0.168
													c0.017,0.12,0.292,0.153,0.375,0.134c0.078-0.007,0.179-0.052,0.207-0.134
													C150.324,24.149,150.044,24.159,149.949,24.159"/>
											</g>
										</g>
									</g>
								</g>
							</g>
						</g>
						<g>
							<path d="M64.725,61.471c0.486-0.497,0.731-1.12,0.731-1.863c0-1.111-0.585-2.004-1.74-2.674
								c-1.148-0.655-2.693-0.997-4.591-0.997c-2.039,0-4.001,0.267-5.833,0.792c-1.834,0.523-3.405,1.257-4.678,2.181
								c-1.424,1.04-2.421,2.205-2.973,3.447c-0.554,1.236-0.834,2.954-0.834,5.091v8.847H39.52v1.493h5.289v18.745
								c0,2.167-0.054,3.77-0.165,4.897c-0.104,1.117-0.293,1.96-0.557,2.511c-0.38,0.834-0.887,1.438-1.509,1.776
								c-0.625,0.349-1.674,0.625-3.119,0.814l-0.045,0.007v0.873h16.231v-0.866l-0.045-0.01c-1.797-0.328-3.058-0.827-3.732-1.476
								c-0.549-0.502-0.922-1.136-1.111-1.886c-0.196-0.757-0.29-1.941-0.29-3.614l-0.036-2.764V77.794h7.224v-1.492H50.47v-9.618
								c0-2.118,0.096-3.69,0.29-4.786c0.193-1.097,0.545-1.99,1.051-2.657c0.45-0.599,1.089-1.087,1.905-1.466
								c0.818-0.372,1.698-0.559,2.61-0.559c0.731,0,1.321,0.174,1.752,0.514c0.432,0.356,0.992,1.094,1.669,2.191
								c0.498,0.827,0.979,1.398,1.476,1.759c0.486,0.354,1.075,0.537,1.745,0.537C63.655,62.218,64.251,61.969,64.725,61.471z"/>
							<path d="M96.092,105.291c-0.566-0.297-1.078-0.783-1.512-1.462c-0.384-0.622-0.644-1.446-0.778-2.438
								c-0.134-1.005-0.201-2.726-0.201-5.255V76.304H82.774v0.899l0.042,0.009c1.837,0.314,3.101,0.799,3.766,1.445
								c0.542,0.521,0.913,1.156,1.096,1.901c0.186,0.754,0.274,1.927,0.274,3.596l0.033,2.693v7.144
								c0,2.81-0.115,4.864-0.342,6.114c-0.226,1.222-0.695,2.313-1.393,3.254c-0.663,0.91-1.599,1.639-2.78,2.165
								c-1.174,0.535-2.45,0.797-3.794,0.797c-1.222,0-2.341-0.234-3.327-0.707c-0.979-0.462-1.742-1.111-2.268-1.933
								c-0.484-0.788-0.814-1.822-0.992-3.061c-0.186-1.243-0.274-3.129-0.274-5.772V76.307H61.981v0.899l0.045,0.009
								c1.809,0.314,3.074,0.799,3.766,1.436c0.53,0.53,0.893,1.17,1.078,1.907c0.193,0.754,0.287,1.964,0.287,3.596l0.036,2.77
								v12.678c0,2.674,0.919,4.775,2.719,6.241c1.851,1.476,4.331,2.23,7.364,2.23c4.115,0,7.727-1.502,10.745-4.478
								c0.007,1.504,0.17,2.995,0.476,4.437l0.012,0.045l10.082-1.354l0.045-0.01v-0.858l-0.05-0.005
								C97.509,105.772,96.672,105.589,96.092,105.291z"/>
							<path d="M133.794,105.641c-0.801-0.429-1.495-0.894-2.068-1.372c-0.582-0.484-1.509-1.36-2.834-2.674
								c-0.024-0.019-2.207-2.481-2.976-3.32l-8.408-10.535l3.938-4.239l1.453-1.641c1.764-1.893,3.206-3.159,4.282-3.758
								c1.078-0.59,2.511-0.893,4.27-0.893h0.054V76.3h-14.154v0.901l0.054,0.009c1.259,0.071,2.129,0.2,2.584,0.392
								c1.052,0.399,1.587,1.106,1.587,2.101c0,0.741-0.233,1.485-0.686,2.217c-0.462,0.74-1.38,1.886-2.731,3.409l-6.533,7.151
								V56.05l-10.566,1.32l-0.05,0.007v0.901l0.05,0.003c1.077,0.071,1.917,0.252,2.501,0.542c0.571,0.285,1.063,0.762,1.471,1.44
								c0.408,0.62,0.675,1.44,0.797,2.454c0.122,1.005,0.179,2.712,0.179,5.241v28.586c0,2.178-0.054,3.77-0.165,4.897
								c-0.111,1.146-0.293,1.969-0.561,2.511c-0.384,0.849-0.877,1.431-1.504,1.78c-0.627,0.346-1.677,0.623-3.119,0.809
								l-0.045,0.007v0.873h16.231v-0.867l-0.045-0.01c-1.811-0.332-3.058-0.827-3.73-1.476c-0.554-0.495-0.929-1.134-1.117-1.884
								c-0.194-0.754-0.292-1.936-0.292-3.607l-0.036-2.771v-2.631l2.171-2.377l7.816,9.729l0.764,0.877
								c0.695,0.764,1.047,1.488,1.047,2.171c0,0.627-0.285,1.12-0.846,1.467c-0.413,0.234-1.134,0.403-2.153,0.497l-0.05,0.007
								v0.873h16.736v-0.873l-0.05-0.007C135.534,106.414,134.652,106.089,133.794,105.641z"/>
							<path d="M169.548,105.291c-0.566-0.297-1.075-0.783-1.512-1.462c-0.38-0.622-0.644-1.446-0.773-2.438
								c-0.139-1-0.2-2.712-0.2-5.255V76.304H156.23v0.899l0.045,0.009c1.83,0.314,3.096,0.799,3.759,1.445
								c0.554,0.523,0.922,1.16,1.101,1.901c0.182,0.748,0.269,1.927,0.269,3.596l0.036,2.693v7.144c0,2.81-0.12,4.864-0.342,6.114
								c-0.231,1.217-0.7,2.313-1.391,3.254c-0.676,0.913-1.611,1.646-2.785,2.165c-1.17,0.535-2.447,0.797-3.794,0.797
								c-1.224,0-2.346-0.234-3.332-0.707c-0.979-0.462-1.742-1.117-2.268-1.933c-0.479-0.781-0.814-1.813-0.992-3.061
								c-0.177-1.228-0.273-3.171-0.273-5.772V76.307h-10.83v0.899l0.045,0.009c1.809,0.314,3.074,0.799,3.765,1.436
								c0.524,0.528,0.887,1.165,1.078,1.907c0.193,0.755,0.292,1.964,0.292,3.596l0.036,2.77v12.678
								c0,2.676,0.913,4.78,2.719,6.241c1.849,1.476,4.326,2.23,7.364,2.23c4.112,0,7.727-1.502,10.749-4.478
								c0.007,1.518,0.17,3.008,0.471,4.437l0.009,0.045l10.082-1.354l0.045-0.01v-0.858l-0.05-0.005
								C170.969,105.772,170.13,105.589,169.548,105.291z"/>
							<path d="M189.235,89.287l-3.86-1.752c-1.782-0.788-3.115-1.679-3.97-2.629c-0.847-0.946-1.28-2.016-1.28-3.193
								c0-1.408,0.479-2.622,1.422-3.593c0.946-0.964,2.099-1.462,3.435-1.462c0.959,0,1.943,0.266,2.921,0.783
								c0.986,0.512,1.86,1.24,2.606,2.15c0.554,0.653,0.983,1.335,1.283,2.033c0.304,0.71,0.585,1.643,0.854,2.796l0.007,0.045
								h0.868l-0.401-8.342l-0.005-0.049h-0.814l-0.017,0.021c-0.401,0.708-0.832,1.07-1.271,1.07c-0.278,0-0.604-0.069-0.992-0.215
								l-1.243-0.545c-1.07-0.434-2.24-0.667-3.487-0.667c-2.775,0-5.032,0.919-6.717,2.723c-1.459,1.587-2.2,3.501-2.2,5.694
								c0,2.047,0.74,3.872,2.197,5.433c1.023,1.096,3.082,2.476,6.128,4.1c1.738,0.92,2.99,1.639,3.726,2.146
								c0.728,0.502,1.339,1.063,1.825,1.665c0.865,1.132,1.302,2.473,1.302,3.985c0,1.841-0.611,3.291-1.801,4.298
								c-1.103,0.913-2.428,1.374-3.933,1.374c-2.471,0-4.661-1.377-6.51-4.098c-1.012-1.502-1.863-3.534-2.534-6.041l-0.009-0.043
								h-0.682v10.431h0.674l0.012-0.026c0.425-0.712,1.059-1.07,1.888-1.07c0.323,0,0.604,0.03,0.827,0.094
								c0.212,0.059,0.86,0.297,1.926,0.71c1.657,0.63,3.306,0.946,4.909,0.946c2.971,0,5.442-0.986,7.33-2.933
								c1.657-1.684,2.494-3.829,2.494-6.382c0-2.12-0.573-3.985-1.716-5.548C193.287,91.656,191.539,90.338,189.235,89.287z"/>
							<path d="M231.589,105.641c-0.801-0.434-1.492-0.894-2.066-1.372c-0.582-0.484-1.532-1.38-2.839-2.676
								c-0.024-0.017-2.396-2.476-3.159-3.318l-8.224-10.535l3.938-4.239l1.453-1.641c1.764-1.889,3.206-3.159,4.284-3.758
								c1.077-0.59,2.511-0.893,4.265-0.893h0.054V76.3h-14.152v0.901l0.05,0.009c1.261,0.071,2.134,0.2,2.586,0.392
								c1.051,0.399,1.582,1.106,1.582,2.101c0,0.741-0.229,1.485-0.686,2.217c-0.462,0.736-1.38,1.886-2.726,3.409l-6.529,7.151
								V56.05l-10.57,1.32l-0.045,0.007v0.901l0.045,0.003c1.075,0.071,1.914,0.252,2.501,0.542c0.566,0.288,1.059,0.766,1.464,1.44
								c0.408,0.62,0.677,1.436,0.797,2.454c0.123,1.009,0.182,2.723,0.182,5.241v28.586c0,2.129-0.054,3.775-0.165,4.897
								c-0.102,1.104-0.292,1.952-0.561,2.511c-0.38,0.834-0.88,1.431-1.504,1.78c-0.625,0.346-1.669,0.623-3.119,0.809
								l-0.049,0.007v0.873h16.232v-0.867l-0.042-0.01c-1.802-0.328-3.058-0.823-3.732-1.476c-0.547-0.495-0.926-1.134-1.113-1.884
								c-0.193-0.757-0.29-1.936-0.29-3.607l-0.033-2.768v-2.631l2.16-2.377l7.819,9.729l0.764,0.877
								c0.695,0.761,1.042,1.486,1.042,2.171c0,0.627-0.285,1.124-0.844,1.467c-0.408,0.236-1.13,0.403-2.153,0.497l-0.05,0.007
								v0.873h16.74v-0.873l-0.045-0.007C233.332,106.414,232.452,106.089,231.589,105.641z"/>
							<path d="M259.725,99.081l-0.017,0.052c-0.625,1.858-1.375,3.223-2.24,4.065c-0.769,0.771-1.747,1.38-2.909,1.813
								c-1.169,0.434-2.41,0.653-3.706,0.653c-1.752,0-3.45-0.392-5.05-1.158c-1.596-0.771-2.955-1.849-4.034-3.199
								c-1.057-1.321-1.903-3.011-2.518-5.02c-0.615-1.992-0.926-4.079-0.926-6.184c0-0.509,0.045-1.339,0.137-2.535h21.386v-0.052
								c0-3.06-0.905-5.65-2.683-7.699c-1.139-1.308-2.558-2.32-4.211-3.015c-1.653-0.695-3.475-1.049-5.425-1.049
								c-3.645,0-6.929,1.146-9.775,3.402c-3.909,3.113-5.888,7.456-5.888,12.921c0,4.009,1.042,7.427,3.113,10.167
								c1.483,1.978,3.32,3.454,5.461,4.4c2.134,0.948,4.727,1.426,7.715,1.426c3.447,0,6.251-0.731,8.332-2.179
								c2.079-1.45,3.456-3.622,4.088-6.477l0.009-0.043L259.725,99.081z M246.878,76.662c1.217,0,2.382,0.347,3.456,1.033
								c1.078,0.689,1.954,1.634,2.596,2.81c0.714,1.295,1.162,3.153,1.335,5.536H238.7c0.29-2.667,1.217-4.918,2.758-6.692
								C242.997,77.564,244.826,76.662,246.878,76.662z"/>
						</g>
					</g>
				</g>
			</g>
		</g>
	</g>
	<g>
		<path d="M8.029,176.855c0.523,0.549,0.872,0.973,0.872,1.371c0,0.299-0.175,0.649-0.574,0.798
			c-0.224,0.075-0.573,0.275-0.872,0.524c-0.748,0.623-1.72,1.471-2.643,2.344c-1.147,1.122-2.368,2.369-3.216,3.341
			c-0.225,0.25-0.325,0.424-0.325,0.624c0,0.224,0.125,0.423,0.424,0.722c0.249,0.225,0.649,0.574,1.097,0.948
			c2.369,1.97,4.164,3.565,5.61,5.336c0.897,1.097,1.271,1.72,1.271,2.344c0,0.822-0.449,1.246-0.972,1.246
			c-0.399,0-0.673-0.299-1.097-1.047c-1.571-2.768-3.89-5.186-6.682-7.754C0.299,187.078,0,186.529,0,186.03
			c0-0.473,0.099-0.822,0.573-1.371c0.698-0.848,1.571-1.82,2.842-3.266c0.699-0.773,1.497-1.67,2.394-2.743
			c0.474-0.573,0.699-0.923,0.699-1.246c0-0.275-0.349-0.649-0.948-1.073c-0.224-0.174-0.299-0.199-0.299-0.298
			c0-0.15,0.275-0.275,0.624-0.275C6.457,175.758,7.43,176.231,8.029,176.855z"/>
		<path d="M29.419,178.326c-0.648-0.623-1.047-1.596-1.047-2.294c0-0.225,0.1-0.299,0.199-0.299c0.125,0,0.2,0.049,0.325,0.274
			c0.673,1.147,1.795,1.82,3.116,2.294c0.549,0.2,1.097,0.424,1.471,0.799c0.449,0.449,0.524,0.772,0.524,1.072
			c0,0.449-0.349,0.698-0.673,0.698c-0.299,0-0.573-0.049-0.773-0.125c-0.324-0.099-0.623-0.149-1.196-0.149
			c-0.623,0-1.895,0.199-3.141,0.723c-0.399,0.174-0.624,0.424-0.624,0.673c0,0.199,0.1,0.473,0.2,0.673
			c0.149,0.348,0.199,0.722,0.199,1.072c0,0.275-0.05,0.898-0.175,1.746c-0.175,1.072-0.299,2.368-0.324,3.59
			c0,0.1,0.025,0.175,0.125,0.175c0.075,0,0.149-0.025,0.299-0.15c0.748-0.573,1.895-1.446,3.341-2.243
			c1.746-0.997,3.067-1.471,4.612-1.471c1.72,0,3.067,0.549,3.89,1.396c0.798,0.798,1.172,1.72,1.172,2.742
			c0,2.269-1.571,3.89-4.015,5.012c-2.069,0.947-4.986,1.596-7.903,1.646c-0.275,0-0.499-0.075-0.499-0.299
			c0-0.199,0.2-0.349,0.375-0.374c2.394-0.374,5.086-1.047,6.981-2.144c1.995-1.147,3.142-2.518,3.142-4.114
			c0-0.997-0.299-1.746-0.873-2.319c-0.549-0.499-1.396-0.773-2.418-0.773c-1.147,0-2.219,0.399-3.291,1.073
			c-1.296,0.798-2.394,1.87-3.041,2.568c-0.749,0.848-1.172,1.396-1.322,1.845c-0.149,0.474-0.324,0.648-0.723,0.648
			c-0.324,0-0.648-0.249-0.947-0.722c-0.249-0.399-0.399-0.873-0.399-1.447c0-1.571,0.25-3.191,0.599-5.086
			c0.175-0.922,0.199-1.496,0.199-1.895c0-0.274-0.049-0.623-0.049-0.947c0-0.649,0.374-1.097,0.972-1.446
			c0.574-0.348,1.846-0.872,3.142-1.246C30.342,179.248,29.793,178.724,29.419,178.326z"/>
		<path d="M52.929,191.465c0-1.571,0.1-3.939,0.199-6.358c0.075-1.97,0.125-3.914,0.175-5.909c0.025-0.922-0.1-1.296-0.474-1.546
			c-0.374-0.225-0.648-0.324-0.872-0.399c-0.199-0.075-0.299-0.099-0.299-0.224c0-0.125,0.1-0.249,0.299-0.325
			c0.274-0.099,0.549-0.149,0.898-0.149c0.523,0,1.346,0.424,2.02,0.948c0.473,0.399,0.897,0.847,0.897,1.346
			c0,0.299-0.175,0.524-0.349,0.699c-0.174,0.175-0.274,0.324-0.348,0.798c-0.15,1.196-0.299,2.717-0.424,4.713
			c-0.15,2.318-0.249,4.762-0.249,6.058c0,1.247,0.199,1.97,0.623,2.369c0.449,0.374,1.222,0.523,2.169,0.523
			c1.471,0,3.74-0.648,5.585-1.62c1.372-0.723,2.693-1.745,3.915-2.942c0.125-0.125,0.225-0.199,0.324-0.199
			c0.15,0,0.249,0.099,0.275,0.224c0.025,0.15-0.075,0.349-0.199,0.499c-1.322,1.77-2.868,3.116-4.563,4.088
			c-1.67,0.948-3.69,1.571-5.684,1.571C54.45,195.629,52.929,194.458,52.929,191.465z"/>
		<path d="M83.595,186.604c0-1.421-0.348-2.02-1.246-2.02c-1.023,0-2.07,0.748-3.067,1.745c-0.798,0.823-1.371,1.646-1.97,2.494
			c-0.199,0.274-0.524,0.599-0.848,0.599c-0.474,0-0.822-0.299-0.822-0.998c0-0.374,0.274-0.722,0.772-1.221
			c0.723-0.749,1.67-1.82,2.419-2.868c0.673-0.923,1.271-1.945,1.845-2.942c-0.673,0.099-1.372,0.149-2.144,0.149
			c-1.247,0-2.244-0.424-2.892-1.596c-0.075-0.125-0.1-0.224-0.1-0.324c0-0.149,0.1-0.225,0.199-0.225
			c0.075,0,0.199,0.075,0.299,0.2c0.599,0.648,1.496,0.822,2.468,0.822c0.723,0,1.72-0.149,2.818-0.398
			c0.325-0.649,0.649-1.521,0.823-2.12c0.075-0.274,0.125-0.499,0.125-0.649c0-0.324-0.175-0.473-0.499-0.573
			c-0.325-0.1-0.649-0.149-1.023-0.199c-0.125-0.025-0.199-0.075-0.199-0.15c0-0.075,0.099-0.199,0.199-0.274
			c0.349-0.249,0.623-0.324,0.973-0.324c0.549,0,1.296,0.249,1.87,0.573c0.599,0.349,0.823,0.673,0.823,0.973
			c0,0.324-0.15,0.474-0.275,0.573c-0.199,0.15-0.449,0.374-0.623,0.673c-0.149,0.249-0.424,0.748-0.623,1.147
			c0.923-0.275,1.646-0.573,2.169-0.872c0.399-0.225,0.798-0.424,1.272-0.424c0.549,0,0.947,0.299,0.947,0.748
			c0,0.449-0.348,0.599-0.822,0.772c-1.346,0.474-2.593,0.823-4.363,1.247c-0.773,1.296-1.546,2.617-2.394,3.815
			c0.997-0.723,2.119-1.197,2.992-1.197c1.321,0,2.169,0.798,2.294,2.12c0.05,0.299,0.05,0.748,0.075,1.172
			c1.995-1.147,3.366-1.97,4.986-3.117c0.249-0.175,0.374-0.374,0.374-0.523c0-0.125-0.099-0.225-0.298-0.349
			c-0.2-0.125-0.499-0.199-0.749-0.274c-0.149-0.05-0.249-0.1-0.249-0.175c0-0.1,0.175-0.249,0.374-0.324
			c0.175-0.075,0.375-0.1,0.624-0.1c0.473,0,1.246,0.249,1.894,0.623c0.749,0.399,1.147,0.822,1.147,1.322
			c0,0.423-0.324,0.623-0.648,0.648c-0.2,0.025-0.499,0.075-0.973,0.275c-1.222,0.523-2.468,1.096-4.189,1.994
			c-0.723,0.374-1.547,0.872-2.244,1.246c0,1.172,0,2.194,0,3.491c0,0.699-0.274,1.047-0.773,1.047
			c-0.499,0-0.847-0.274-0.847-0.897c0-0.599,0.049-1.646,0.099-2.868c-2.194,1.246-3.491,2.219-3.491,3.765
			c0,1.023,0.898,1.82,3.217,1.82c1.471,0,2.493-0.05,3.491-0.175c0.623-0.099,1.096-0.199,1.471-0.299
			c0.324-0.075,0.598-0.149,0.847-0.149c0.873,0,1.72,0.499,1.72,1.097c0,0.398-0.274,0.648-1.246,0.798
			c-0.773,0.149-2.693,0.249-4.713,0.249c-3.391,0-5.684-0.823-5.684-3.191c0-2.17,1.72-3.591,4.388-5.187V186.604z"/>
		<path d="M100.896,186.279c1.521-1.321,2.793-3.041,3.591-4.662c0.324-0.673,0.573-1.272,0.698-1.846
			c1.795,0.624,2.319,0.873,2.319,1.147c0,0.275-0.225,0.374-0.973,0.474c-1.321,2.319-2.892,3.865-5.41,5.186
			C100.997,186.654,100.772,186.379,100.896,186.279z M116.13,188.025c0.749-0.748,0.898-0.872,1.048-0.872
			c0.174,0,0.324,0.125,1.296,0.923c0.374,0.348,0.449,0.499,0.449,0.648c0,0.275-0.199,0.399-1.047,0.574
			c-1.197,1.421-2.468,2.617-3.865,3.665c0.523,0.249,1.097,0.499,1.67,0.723c2.319,0.923,5.062,1.246,8.029,1.322
			c0.125,0,0.1,0.249-0.025,0.274c-0.599,0.15-0.948,0.549-1.222,1.346c-0.1,0.374-0.275,0.499-0.499,0.499
			c-0.2,0-0.449-0.025-0.773-0.075c-2.044-0.299-4.189-1.023-5.76-1.82c-0.898-0.449-1.745-0.923-2.518-1.496
			c-3.167,2.044-6.881,3.216-11.569,3.715c-0.175,0.025-0.275-0.374-0.1-0.399c4.014-0.822,7.579-2.294,10.472-4.313
			c-1.097-1.023-2.045-2.194-2.843-3.441c-1.895,1.944-4.213,3.365-6.906,4.363c-0.175,0.05-0.325-0.275-0.175-0.349
			c2.468-1.421,5.161-3.541,6.657-5.81c0.499-0.772,0.873-1.471,1.123-2.119c1.57,0.499,2.294,0.822,2.294,1.147
			c0,0.298-0.324,0.374-1.047,0.423c-0.249,0.375-0.524,0.723-0.798,1.073H116.13z M111.045,178.326
			c-0.075,5.111-1.596,7.255-6.658,9.05c-0.175,0.05-0.324-0.298-0.175-0.374c3.989-2.193,5.036-4.088,5.062-8.676h-6.009
			c-0.623,0-1.097,0.05-1.77,0.149l-0.249-0.947c0.773,0.149,1.346,0.175,2.02,0.175h7.979v-1.571c0-0.424-0.025-0.973-0.1-1.62
			c2.544,0.274,2.843,0.499,2.843,0.748c0,0.225-0.2,0.424-0.873,0.673v1.77h6.857c1.122-1.346,1.296-1.471,1.446-1.471
			c0.174,0,0.348,0.125,1.546,1.097c0.523,0.449,0.648,0.598,0.648,0.772c0,0.15-0.099,0.225-0.324,0.225h-7.38v2.593
			c0,1.621,0,2.269,0.025,3.042c0,0.848-0.324,1.271-0.897,1.57c-0.374,0.2-0.848,0.349-1.197,0.349
			c-0.274,0-0.349-0.075-0.399-0.449c-0.1-0.623-0.524-0.922-1.945-1.296c-0.175-0.05-0.175-0.424,0-0.399
			c1.023,0.15,1.72,0.175,2.294,0.175c0.249,0,0.374-0.199,0.374-0.449v-5.136H111.045z M109.249,188.923
			c0.948,1.221,2.045,2.294,3.342,3.191c1.346-1.048,2.518-2.194,3.491-3.466h-6.583L109.249,188.923z M120.37,184.609
			c-0.673-1.57-1.796-3.191-3.042-4.363c-0.1-0.099,0.1-0.324,0.225-0.249c3.091,1.446,4.812,3.167,4.812,4.538
			c0,0.673-0.399,1.122-0.922,1.122C120.968,185.656,120.744,185.456,120.37,184.609z"/>
		<path d="M139.79,189.172c0.872,0,1.496,0.424,1.945,1.146c0.499,0.848,0.798,2.045,1.172,2.868
			c0.399,0.848,0.748,1.147,2.02,1.147c0.798,0,1.62-0.125,2.368-0.275c0.325-0.075,0.699-0.149,1.073-0.149
			c0.474,0,0.947,0.125,1.272,0.374c0.324,0.249,0.473,0.523,0.473,0.822c0,0.449-0.324,0.748-1.346,0.848
			c-0.698,0.075-1.795,0.1-2.543,0.1c-0.872,0-1.995-0.05-2.668-0.249c-1.172-0.275-1.745-1.047-2.094-2.244
			c-0.274-0.973-0.523-2.169-0.872-2.917c-0.249-0.499-0.623-0.723-1.172-0.723c-0.872,0-1.696,0.897-2.667,1.92
			c-0.998,1.047-1.97,2.244-3.067,3.64c-0.2,0.249-0.449,0.374-0.798,0.374c-0.574,0-0.823-0.473-0.823-1.047
			c0-0.274,0.125-0.573,0.574-0.997c1.471-1.421,3.316-3.316,5.136-5.261c1.571-1.695,3.117-3.365,4.264-4.886
			c0.099-0.15,0.025-0.275-0.15-0.225c-1.596,0.549-3.515,1.421-5.036,2.244c-0.399,0.224-0.573,0.324-0.723,0.449
			c-0.199,0.149-0.374,0.249-0.698,0.249c-0.349,0-0.673-0.249-1.122-0.723c-0.374-0.374-0.748-0.947-0.748-1.396
			c0-0.349,0.025-0.474,0.075-0.673c0.05-0.15,0.125-0.249,0.224-0.249c0.075,0,0.125,0.049,0.299,0.348
			c0.15,0.249,0.275,0.449,0.449,0.599c0.199,0.199,0.449,0.324,0.772,0.324c0.175,0,0.449-0.025,0.973-0.199
			c1.396-0.499,3.167-1.147,4.687-1.72c0.499-0.175,0.649-0.274,0.823-0.449c0.199-0.225,0.374-0.349,0.573-0.349
			c0.275,0,0.898,0.274,1.421,0.698c0.623,0.474,0.948,0.749,0.948,1.172c0,0.349-0.299,0.474-0.649,0.524
			c-0.449,0.05-0.698,0.225-0.897,0.424c-1.596,1.62-2.992,2.992-4.837,4.887C138.843,189.346,139.316,189.172,139.79,189.172z
			 M137.645,177.204c-0.424-0.499-0.549-0.923-0.549-1.172c0-0.125,0.125-0.225,0.2-0.225c0.099,0,0.199,0.05,0.298,0.175
			c0.773,0.973,1.92,1.371,3.541,1.471c0.773,0.05,1.296,0.125,1.696,0.374c0.399,0.249,0.499,0.549,0.499,0.897
			c0,0.499-0.349,0.624-0.748,0.624c-0.275,0-0.723-0.05-0.973-0.05c-0.449,0-0.898,0.099-1.322,0.274
			c-0.947,0.399-1.646,0.723-2.568,1.172c-0.199,0.1-0.398,0.125-0.499,0.125c-0.125,0-0.224-0.099-0.224-0.199
			c0-0.125,0.049-0.249,0.199-0.349c0.798-0.523,1.446-0.947,2.493-1.67C138.817,178.3,138.094,177.753,137.645,177.204z"/>
		<path d="M162.328,187.002c1.746-1.346,3.541-1.97,5.237-1.97c3.665,0,5.685,2.294,5.685,4.986c0,3.765-3.392,5.884-7.057,5.884
			c-2.717,0-4.637-1.122-4.637-2.818c0-1.346,1.122-2.069,2.493-2.069c2.319,0,3.815,2.044,4.189,3.191
			c1.995-0.673,3.141-2.369,3.141-4.314c0-2.767-1.82-3.964-3.94-3.964c-2.318,0-4.263,1.147-5.634,2.543
			c-0.873,0.898-1.421,1.471-1.945,2.194c-0.125,0.175-0.374,0.324-0.623,0.324c-0.474,0-0.898-0.399-0.898-0.973
			c0-0.249,0.075-0.523,0.424-0.897c1.92-2.07,3.989-4.214,5.784-6.408c1.073-1.321,2.095-2.567,3.342-4.213
			c0.175-0.225,0.099-0.275,0-0.275c-0.1,0-0.324,0.075-0.474,0.125c-1.122,0.374-2.394,0.848-3.391,1.247
			c-0.449,0.174-0.623,0.274-0.848,0.523c-0.149,0.15-0.374,0.275-0.673,0.275c-0.324,0-0.848-0.275-1.246-0.723
			c-0.449-0.474-0.898-1.122-0.898-1.82c0-0.249,0.15-0.523,0.299-0.523c0.1,0,0.199,0.099,0.324,0.274
			c0.549,0.723,0.898,0.973,1.322,0.973c0.324,0,0.748-0.05,1.296-0.175c1.122-0.274,2.169-0.573,3.291-0.947
			c0.348-0.1,0.548-0.249,0.748-0.449c0.175-0.174,0.374-0.249,0.573-0.249c0.399,0,1.023,0.374,1.571,0.773
			c0.499,0.349,0.748,0.673,0.748,1.072c0,0.249-0.198,0.424-0.648,0.524c-0.249,0.05-0.473,0.175-1.023,0.723
			c-0.823,0.822-1.845,1.895-3.316,3.615c-0.923,1.072-2.269,2.368-3.267,3.49L162.328,187.002z M163.749,191.789
			c-0.897,0-1.371,0.549-1.371,1.147c0,1.023,1.322,1.72,3.316,1.72c0.424,0,0.773-0.025,0.997-0.075
			C166.318,193.161,164.971,191.789,163.749,191.789z"/>
		<path d="M187.036,193.037c1.172,0.972,1.619,1.87,1.619,2.792c0,0.773-0.522,1.371-1.296,1.371c-0.673,0-0.948-0.473-1.223-1.072
			c-0.797-2.044-1.92-3.366-3.69-4.438c-0.1-0.075-0.124-0.175-0.124-0.299c0-0.15,0.1-0.249,0.273-0.249
			C184.318,191.441,185.914,192.114,187.036,193.037z"/>
		<path d="M207.055,185.332c0.897,0.15,1.621,0.199,2.469,0.199h15.633c1.445-1.645,1.619-1.745,1.77-1.745
			c0.173,0,0.348,0.1,1.82,1.296c0.699,0.549,0.773,0.698,0.773,0.848c0,0.149-0.075,0.224-0.326,0.224h-19.647
			c-0.822,0-1.445,0.05-2.243,0.15L207.055,185.332z"/>
		<path d="M247.27,183.063h-4.489v0.549c0,0.549-0.399,0.798-1.095,0.798c-0.599,0-0.799-0.199-0.799-0.673
			c0-0.424,0.075-1.346,0.075-4.089c0-1.894-0.025-3.041-0.149-4.412c0.948,0.399,1.321,0.598,2.269,1.122h10.147
			c0.799-0.872,0.923-0.973,1.072-0.973c0.175,0,0.3,0.1,1.148,0.822c0.424,0.325,0.522,0.474,0.522,0.624
			c0,0.174-0.049,0.274-0.722,0.748v1.421c0,2.743,0.075,4.114,0.075,4.512c0,0.574-0.349,0.823-1.123,0.823
			c-0.522,0-0.772-0.175-0.772-0.623v-0.649h-4.314v4.887h4.563c0.997-1.247,1.196-1.396,1.346-1.396c0.175,0,0.424,0.1,1.496,1.047
			c0.473,0.399,0.599,0.599,0.599,0.748c0,0.15-0.075,0.225-0.324,0.225h-7.68v5.884c1.023,0.199,2.269,0.299,4.039,0.299
			c2.045,0,3.665-0.15,6.257-0.499c0.125-0.025,0.151,0.25,0.051,0.299c-0.699,0.374-0.848,0.699-0.948,1.446
			c-0.049,0.349-0.124,0.474-0.599,0.499c-0.923,0.075-2.593,0.125-4.114,0.125c-3.665,0-6.034-0.748-7.853-2.269
			c-1.372-1.097-2.444-2.543-3.291-4.663c-0.972,3.117-2.742,5.51-5.56,7.305c-0.124,0.075-0.373-0.149-0.275-0.249
			c2.12-2.144,3.592-5.036,4.239-8.103c0.2-1.072,0.349-2.194,0.324-3.291c2.269,0.449,2.718,0.574,2.718,0.898
			c0,0.199-0.151,0.349-0.799,0.599c-0.1,0.723-0.249,1.396-0.424,2.07c0.973,2.193,1.945,3.341,3.492,4.363
			c0.298,0.199,0.599,0.374,0.897,0.523V183.063z M253.429,176.979h-10.648v5.46h10.648V176.979z"/>
		<path d="M275.666,186.604c0-1.421-0.348-2.02-1.246-2.02c-1.023,0-2.069,0.748-3.066,1.745c-0.799,0.823-1.372,1.646-1.97,2.494
			c-0.198,0.274-0.524,0.599-0.848,0.599c-0.473,0-0.822-0.299-0.822-0.998c0-0.374,0.275-0.722,0.773-1.221
			c0.722-0.749,1.67-1.82,2.418-2.868c0.673-0.923,1.272-1.945,1.845-2.942c-0.673,0.099-1.372,0.149-2.143,0.149
			c-1.248,0-2.245-0.424-2.893-1.596c-0.075-0.125-0.1-0.224-0.1-0.324c0-0.149,0.1-0.225,0.2-0.225c0.075,0,0.198,0.075,0.298,0.2
			c0.599,0.648,1.496,0.822,2.469,0.822c0.722,0,1.72-0.149,2.817-0.398c0.326-0.649,0.649-1.521,0.824-2.12
			c0.075-0.274,0.124-0.499,0.124-0.649c0-0.324-0.175-0.473-0.499-0.573c-0.324-0.1-0.648-0.149-1.023-0.199
			c-0.124-0.025-0.198-0.075-0.198-0.15c0-0.075,0.098-0.199,0.198-0.274c0.349-0.249,0.624-0.324,0.973-0.324
			c0.548,0,1.296,0.249,1.869,0.573c0.599,0.349,0.824,0.673,0.824,0.973c0,0.324-0.151,0.474-0.275,0.573
			c-0.2,0.15-0.449,0.374-0.624,0.673c-0.149,0.249-0.424,0.748-0.622,1.147c0.922-0.275,1.645-0.573,2.169-0.872
			c0.398-0.225,0.797-0.424,1.272-0.424c0.548,0,0.946,0.299,0.946,0.748c0,0.449-0.348,0.599-0.822,0.772
			c-1.346,0.474-2.593,0.823-4.363,1.247c-0.773,1.296-1.545,2.617-2.393,3.815c0.997-0.723,2.118-1.197,2.991-1.197
			c1.321,0,2.169,0.798,2.294,2.12c0.049,0.299,0.049,0.748,0.075,1.172c1.994-1.147,3.366-1.97,4.986-3.117
			c0.249-0.175,0.375-0.374,0.375-0.523c0-0.125-0.1-0.225-0.298-0.349c-0.2-0.125-0.499-0.199-0.75-0.274
			c-0.149-0.05-0.249-0.1-0.249-0.175c0-0.1,0.175-0.249,0.375-0.324c0.175-0.075,0.375-0.1,0.624-0.1
			c0.473,0,1.246,0.249,1.894,0.623c0.748,0.399,1.146,0.822,1.146,1.322c0,0.423-0.324,0.623-0.648,0.648
			c-0.2,0.025-0.499,0.075-0.972,0.275c-1.223,0.523-2.469,1.096-4.189,1.994c-0.724,0.374-1.547,0.872-2.245,1.246
			c0,1.172,0,2.194,0,3.491c0,0.699-0.273,1.047-0.773,1.047c-0.499,0-0.846-0.274-0.846-0.897c0-0.599,0.049-1.646,0.098-2.868
			c-2.194,1.246-3.49,2.219-3.49,3.765c0,1.023,0.897,1.82,3.217,1.82c1.47,0,2.493-0.05,3.49-0.175
			c0.624-0.099,1.097-0.199,1.472-0.299c0.324-0.075,0.597-0.149,0.846-0.149c0.873,0,1.721,0.499,1.721,1.097
			c0,0.398-0.275,0.648-1.246,0.798c-0.773,0.149-2.693,0.249-4.713,0.249c-3.392,0-5.684-0.823-5.684-3.191
			c0-2.17,1.72-3.591,4.387-5.187V186.604z"/>
		<path d="M300,193.909c0,1.77-1.521,3.291-3.291,3.291c-1.77,0-3.292-1.52-3.292-3.291c0-1.77,1.521-3.291,3.292-3.291
			C298.479,190.618,300,192.139,300,193.909z M294.29,193.909c0,1.296,1.121,2.418,2.418,2.418c1.296,0,2.418-1.122,2.418-2.418
			c0-1.296-1.123-2.419-2.418-2.419C295.411,191.49,294.29,192.613,294.29,193.909z"/>
	</g>
</g>
</svg>
