<?xml version="1.0" encoding="utf-8"?>
<!-- Generator: Adobe Illustrator 24.2.3, SVG Export Plug-In . SVG Version: 6.00 Build 0)  -->
<svg version="1.0" id="レイヤー_1" xmlns="http://www.w3.org/2000/svg" xmlns:xlink="http://www.w3.org/1999/xlink" x="0px"
	 y="0px" width="183.2px" height="40px" viewBox="0 0 183.2 40" style="enable-background:new 0 0 183.2 40;" xml:space="preserve">
<style type="text/css">
	.st0{clip-path:url(#SVGID_2_);fill:#E62318;}
	.st1{clip-path:url(#SVGID_2_);}
	.st2{clip-path:url(#SVGID_2_);fill:#FFFFFF;}
	.st3{fill:#FFFFFF;}
</style>
<g>
	<g>
		<defs>
			<path id="SVGID_1_" d="M0,20.011C0,31.054,8.956,40,20.001,40C31.041,40,40,31.054,40,20.011C40,8.958,31.041,0,20.001,0
				C8.956,0,0,8.958,0,20.011"/>
		</defs>
		<clipPath id="SVGID_2_">
			<use xlink:href="#SVGID_1_"  style="overflow:visible;"/>
		</clipPath>
		<path class="st0" d="M40,20.011C40,31.054,31.041,40,20.001,40C8.956,40,0,31.054,0,20.011C0,8.958,8.956,0,20.001,0
			C31.041,0,40,8.958,40,20.011"/>
		<path class="st1" d="M39.941,29.644c-0.017-0.109-0.062-0.195-0.119-0.277c-0.134-0.233-0.345-0.472-0.551-0.637
			c-0.124-0.093-0.246-0.177-0.359-0.26c-0.037-0.024-0.062-0.058-0.103-0.081c-0.061-0.039-0.133-0.082-0.202-0.126
			c-0.105-0.068-0.201-0.158-0.319-0.22c-0.064-0.034-0.134-0.066-0.201-0.099c-0.079-0.045-0.15-0.099-0.232-0.15
			c-0.295-0.17-0.576-0.322-0.863-0.475c-0.182-0.082-0.369-0.16-0.555-0.243c-0.383-0.179-0.74-0.322-1.119-0.478
			c-0.387-0.16-0.794-0.299-1.153-0.469c-0.071-0.03-0.15-0.054-0.22-0.086c-0.064-0.024-0.136-0.048-0.199-0.072
			c-0.196-0.073-0.387-0.143-0.593-0.194c-0.114-0.042-0.226-0.093-0.349-0.138c-0.174-0.061-0.444-0.123-0.606-0.236
			c-0.065-0.052-0.096-0.11-0.109-0.169c-0.031-0.126,0.028-0.377,0.082-0.48c0.083-0.157,0.254-0.259,0.359-0.387
			c0.229-0.26,0.411-0.506,0.596-0.749c0.333-0.47,0.616-0.959,0.857-1.481c0.04-0.056,0.085-0.137,0.127-0.225
			c0.055-0.151,0.109-0.315,0.174-0.462c0.095-0.223,0.174-0.458,0.271-0.68c0.023-0.071,0.057-0.134,0.085-0.202
			c0.021-0.034,0.042-0.106,0.072-0.186c0.038-0.083,0.081-0.182,0.122-0.264c0.039-0.138,0.078-0.27,0.117-0.404
			c0.038-0.098,0.076-0.208,0.117-0.304c0.01-0.069,0.023-0.14,0.038-0.209c0.007-0.076,0.02-0.155,0.007-0.232
			c-0.007-0.031-0.035-0.083-0.076-0.136c-0.072-0.1-0.171-0.16-0.27-0.232c-0.196-0.153-0.4-0.266-0.602-0.389
			c-0.15-0.113-0.305-0.218-0.47-0.325c-0.261-0.199-0.542-0.369-0.814-0.526c-0.068-0.021-0.123-0.058-0.192-0.1
			c-0.492-0.36-1.009-0.691-1.516-1.028c-0.213-0.137-0.405-0.298-0.623-0.43c-0.302-0.161-0.599-0.339-0.883-0.538
			c-0.106-0.09-0.251-0.157-0.343-0.281c-0.035-0.052-0.059-0.102-0.066-0.174c-0.004-0.177,0.042-0.359,0.066-0.53
			c0.038-0.22,0.062-0.501,0.066-0.788c0-0.222,0.042-0.421,0.042-0.648c0-0.16-0.023-0.291-0.037-0.462
			c0-0.136,0.014-0.253,0-0.373c-0.025-0.171-0.062-0.329-0.079-0.494c-0.028-0.236-0.052-0.441-0.102-0.648
			c-0.041-0.134-0.088-0.271-0.119-0.407c-0.024-0.075-0.04-0.158-0.064-0.236c-0.079-0.236-0.189-0.432-0.287-0.653
			c-0.059-0.103-0.105-0.212-0.158-0.326c-0.052-0.098-0.109-0.198-0.15-0.288c-0.03-0.055-0.062-0.114-0.088-0.165
			c-0.042-0.071-0.081-0.138-0.129-0.191c-0.049-0.093-0.086-0.175-0.137-0.264c-0.109-0.172-0.239-0.312-0.355-0.454
			c-0.08-0.105-0.162-0.23-0.253-0.338c-0.041-0.044-0.075-0.086-0.121-0.131c-0.044-0.047-0.085-0.1-0.124-0.157
			c-0.056-0.052-0.113-0.1-0.168-0.143c-0.044-0.062-0.09-0.112-0.143-0.168c-0.143-0.126-0.297-0.239-0.428-0.363
			c-0.252-0.196-0.483-0.393-0.747-0.567c-0.157-0.093-0.304-0.181-0.453-0.271c-0.126-0.069-0.222-0.164-0.341-0.232
			c-0.09-0.033-0.172-0.079-0.257-0.119c-0.475-0.23-0.958-0.451-1.458-0.612c-0.146-0.044-0.298-0.09-0.458-0.133
			c-0.232-0.062-0.463-0.138-0.708-0.181c-0.126-0.023-0.25-0.028-0.379-0.058c-0.151-0.034-0.307-0.064-0.459-0.105
			c-0.152-0.017-0.311-0.047-0.47-0.068c-0.092-0.017-0.182-0.051-0.24-0.13c-0.103-0.116-0.126-0.293-0.165-0.432
			c-0.021-0.071-0.051-0.123-0.075-0.182c-0.076-0.174-0.143-0.269-0.335-0.269v0.007c-0.242,0.006-0.342,0.465-0.396,0.651
			c-0.03,0.073-0.059,0.129-0.096,0.179c-0.044,0.079-0.116,0.126-0.172,0.168c-0.03,0.023-0.062,0.023-0.079,0.039
			c-0.11,0-0.247-0.017-0.328,0.035c-0.023,0.003-0.038,0.003-0.065,0.016c-0.042,0-0.097-0.013-0.136,0.013
			c-0.031,0-0.083-0.011-0.109,0.013c-0.069,0-0.16,0.006-0.205,0.042c-0.017,0.007-0.038,0.007-0.062,0.016
			c-0.045,0-0.086,0.006-0.117,0.017c-0.078,0-0.264,0.047-0.332,0.078c-0.062,0-0.141,0.011-0.194,0.042
			c-0.104,0-0.21,0.045-0.301,0.066c-0.339,0.076-0.636,0.174-0.939,0.305c-0.041,0.027-0.1,0.042-0.157,0.066
			c-0.152,0-0.292,0.092-0.424,0.158c-0.136,0.047-0.278,0.102-0.407,0.174c-0.088,0.051-0.181,0.105-0.274,0.153
			c-0.117,0.055-0.236,0.116-0.345,0.165c-0.09,0.069-0.189,0.12-0.284,0.182c-0.222,0.124-0.414,0.273-0.614,0.406
			c-0.086,0.065-0.184,0.116-0.268,0.175c-0.119,0.093-0.24,0.212-0.356,0.318c-0.682,0.562-1.253,1.276-1.681,2.042
			c-0.127,0.232-0.254,0.459-0.35,0.682c-0.031,0.04-0.065,0.092-0.088,0.143c-0.049,0.127-0.107,0.256-0.162,0.386
			c-0.155,0.456-0.27,0.931-0.356,1.396c-0.02,0.093-0.039,0.17-0.052,0.261c-0.017,0.083-0.01,0.181-0.021,0.281
			c-0.013,0.078-0.025,0.157-0.03,0.236c-0.028,0.335-0.028,0.648-0.003,0.973v0.357c0.007,0.184,0.032,0.376,0.054,0.562
			c0.013,0.15,0.032,0.278,0.048,0.436c0.02,0.109,0.051,0.256,0.028,0.377c-0.024,0.059-0.055,0.106-0.086,0.153
			c-0.041,0.059-0.095,0.104-0.151,0.141c-0.124,0.099-0.234,0.179-0.367,0.261c-0.257,0.179-0.53,0.332-0.783,0.482
			c-0.531,0.396-1.106,0.744-1.664,1.123c-0.274,0.203-0.558,0.367-0.843,0.562c-0.047,0.02-0.093,0.049-0.146,0.073
			c-0.103,0.078-0.216,0.153-0.314,0.223c-0.29,0.191-0.565,0.389-0.856,0.574c-0.147,0.098-0.34,0.185-0.479,0.332
			c-0.066,0.071-0.109,0.131-0.131,0.199c-0.014,0.175,0.065,0.304,0.1,0.458c0.112,0.335,0.205,0.67,0.347,0.99
			c0.044,0.127,0.102,0.226,0.138,0.357c0.035,0.105,0.071,0.195,0.092,0.287c0.031,0.068,0.071,0.134,0.096,0.202
			c0.096,0.237,0.191,0.461,0.294,0.691c0.044,0.109,0.096,0.198,0.138,0.307c0.054,0.102,0.106,0.198,0.165,0.298
			c0.073,0.161,0.138,0.329,0.239,0.49c0.066,0.103,0.131,0.205,0.198,0.319c0.08,0.126,0.143,0.259,0.226,0.353
			c0.112,0.138,0.215,0.304,0.325,0.452c0.092,0.09,0.178,0.186,0.263,0.274c0.102,0.105,0.254,0.155,0.314,0.298
			c0.024,0.072,0.041,0.156,0.038,0.226c-0.007,0.122-0.038,0.239-0.072,0.321c-0.069,0.216-0.126,0.435-0.261,0.62
			c-0.061,0.066-0.127,0.106-0.189,0.151c-0.164,0-0.305-0.044-0.456-0.057c-0.123-0.013-0.236-0.028-0.356-0.045
			c-0.114-0.011-0.222-0.045-0.333-0.027c-0.284,0.055-0.574,0.441-0.799,0.663c-0.155,0.151-0.309,0.281-0.472,0.404
			c-0.045,0.062-0.106,0.109-0.154,0.16c-0.049,0.03-0.088,0.054-0.133,0.085c-0.192,0-0.369-0.017-0.56-0.037
			c-0.059-0.006-0.16-0.027-0.206,0.006c-0.092-0.006-0.181-0.011-0.267-0.011c-0.164-0.004-0.329,0-0.476-0.021
			c-0.075-0.003-0.339-0.024-0.397,0.009c-0.025,0.003-0.057,0.008-0.083,0.013c-0.277,0-0.462,0.222-0.675,0.376
			c-0.024,0.014-0.052,0.025-0.082,0.041c-0.196,0-0.376-0.059-0.554-0.09c-0.213-0.032-0.41-0.054-0.629-0.089
			c-0.112-0.025-0.222-0.054-0.342-0.072c-0.117-0.023-0.362-0.107-0.456-0.059c-0.603,0-0.095,0.841,0.03,1.071
			c0.034,0.064,0.068,0.126,0.107,0.201c0.047,0.076,0.085,0.153,0.131,0.24c0.055,0.062,0.102,0.127,0.161,0.196
			c0.062,0.106,0.134,0.22,0.203,0.323c0.16,0.212,0.346,0.418,0.54,0.595c0.083,0.058,0.162,0.109,0.261,0.154
			c0.095,0.051,0.243,0.119,0.305,0.236c0.045,0.086,0.065,0.185,0.088,0.281c0.039,0.092,0.079,0.199,0.113,0.314
			c0.047,0.15,0.089,0.318,0.162,0.463c0.038,0.076,0.089,0.134,0.154,0.191c0.064,0.047,0.148,0.098,0.186,0.165
			c0.038,0.078,0.054,0.179,0.062,0.274c0.009,0.158-0.008,0.233,0.127,0.319c0.213,0.113,0.644-0.126,0.845-0.202
			c0.185-0.051,0.379-0.086,0.559-0.16c0.155-0.057,0.331-0.161,0.516-0.144c0.121,0.01,0.242,0.055,0.364,0.088
			c0.27,0.045,0.53,0.088,0.781,0.134c0.086,0.01,0.176,0.01,0.27,0.013c0.219,0.027,0.465,0.068,0.705,0.085
			c0.154,0.008,0.314,0.008,0.468,0.03c0.089,0.015,0.18,0.023,0.267,0.032c0.105,0.013,0.206,0.013,0.311,0.013
			c0.082,0.009,0.164,0.023,0.239,0.025c0.123,0,0.236,0.01,0.36,0.01c0.195,0.025,0.384,0.042,0.582,0.042
			c0.097,0,0.198,0,0.295,0.009c0.158,0.017,0.319,0.038,0.486,0.042c0.23,0,0.462,0.013,0.689,0.013c0.093,0,0.194,0,0.287-0.013
			c0.186,0.013,0.404,0.03,0.602,0.013c0.113-0.017,0.227-0.055,0.328-0.106c0.11-0.058,0.202-0.164,0.339-0.144
			c0,0,0.009,0,0.017,0.011c0.12,0.023,0.209,0.114,0.307,0.201c0.103,0.076,0.199,0.147,0.309,0.218
			c0.143,0.073,0.276,0.144,0.404,0.21c0.1,0.051,0.228,0.061,0.309,0.14c0,0.02,0.003,0.02,0.013,0.027
			c0.072,0.099,0.042,0.254,0.052,0.37c0.004,0.088,0.038,0.182,0.082,0.26c0.137,0.242,0.312,0.355,0.526,0.496
			c0.157,0.109,0.312,0.21,0.477,0.309c0.194,0.116,0.374,0.273,0.596,0.305c0.422,0.056,0.866,0.02,1.287-0.041
			c0.089-0.017,0.181-0.038,0.277-0.068c0.229-0.034,0.466-0.048,0.678-0.127c0.226-0.072,0.411-0.264,0.656-0.318
			c0.107-0.025,0.209,0.021,0.299,0.054c0.079,0.018,0.157,0.041,0.236,0.071c0.075,0.021,0.146,0.061,0.213,0.068
			c0.096,0.01,0.198-0.004,0.285-0.018c0.144-0.038,0.264-0.116,0.365-0.22c0.112-0.103,0.181-0.268,0.35-0.268
			c0.168,0.021,0.326,0.035,0.493,0.058c0.205,0.003,0.418-0.037,0.634,0c0.097,0,0.203,0.013,0.299,0.041
			c0.09,0.017,0.182,0.071,0.274,0.085c0.136,0.016,0.266,0.025,0.401,0.034c0.099,0.007,0.191,0.018,0.285,0.037
			c0.073,0.014,0.138,0.023,0.213,0.042h0.271c0.213,0.028,0.429,0.054,0.647,0.034c0.078-0.016,0.155-0.027,0.23-0.045
			c0.072-0.008,0.133,0,0.196-0.017c0.189-0.069,0.356-0.208,0.527-0.316c0.079-0.038,0.15-0.078,0.229-0.12
			c0.219-0.143,0.415-0.305,0.602-0.476c0.097-0.09,0.196-0.209,0.236-0.333c0.03-0.066,0.03-0.155,0.083-0.215
			c0.052-0.045,0.144-0.057,0.212-0.069c0.065-0.021,0.147-0.006,0.225-0.006h0.322c0.061,0.006,0.114,0.007,0.168,0.018
			c0.23-0.011,0.461-0.018,0.689-0.055c0.193-0.015,0.366-0.068,0.541-0.096c0.092-0.028,0.191-0.051,0.278-0.066
			c0.178-0.078,0.328-0.22,0.523-0.232c0.151-0.013,0.305,0.146,0.448,0.189c0.056,0.017,0.12,0.051,0.179,0.064
			c0.153,0.034,0.336,0.017,0.494,0.017c0.404,0,0.797-0.023,1.187-0.03c0.374-0.021,0.723-0.021,1.075-0.04
			c0.23-0.025,0.451-0.064,0.674-0.072c0.271-0.023,0.527-0.03,0.783-0.038c0.147-0.011,0.288-0.052,0.435-0.054
			c0.202-0.025,0.387-0.017,0.578-0.037c0.328-0.034,0.668-0.102,1.01-0.144c0.131-0.03,0.284-0.015,0.396-0.083
			c0.134-0.078,0.25-0.17,0.347-0.274c0.12-0.119,0.22-0.324,0.387-0.374c0.136-0.04,0.319,0.011,0.48,0.011
			c0.198-0.011,0.379-0.048,0.571-0.081c0.082-0.027,0.178-0.048,0.267-0.071c0.049-0.007,0.105-0.018,0.151-0.025
			c0.175-0.058,0.359-0.11,0.538-0.181c0.086-0.032,0.168-0.071,0.25-0.117c0.095-0.042,0.202-0.069,0.307-0.107
			c0.081-0.017,0.163-0.069,0.23-0.109c0.119-0.062,0.24-0.126,0.365-0.192c0.085-0.035,0.155-0.068,0.243-0.104
			c0.127-0.076,0.352-0.223,0.417-0.367C39.962,29.815,39.953,29.725,39.941,29.644"/>
		<path class="st2" d="M33.912,19.883c0.171-0.127,0.315-0.256,0.48-0.376c0.04,0,0.085-0.007,0.119,0.032
			c0.102,0.147-0.196,0.766-0.246,0.924c-0.027,0.082-0.065,0.129-0.099,0.223c-0.034,0.085-0.055,0.168-0.088,0.254
			c-0.047,0.089-0.079,0.17-0.121,0.256c-0.065,0.156-0.133,0.312-0.211,0.454c-0.03,0.051-0.055,0.098-0.08,0.137
			c-0.049,0.116-0.106,0.23-0.16,0.331c-0.072,0.12-0.144,0.264-0.226,0.401c-0.122,0.21-0.225,0.421-0.353,0.629
			c-0.089,0.117-0.555,0.934-0.729,0.822c-0.14-0.09-0.178-0.615-0.213-0.802c-0.017-0.082-0.049-0.164-0.071-0.246
			c-0.047-0.152-0.127-0.301-0.181-0.451c-0.024-0.069-0.052-0.14-0.071-0.209c-0.048-0.107-0.168-0.269-0.137-0.398
			c0.037-0.102,0.151-0.182,0.227-0.246c0.175-0.136,0.349-0.266,0.53-0.41c0.202-0.167,0.4-0.348,0.598-0.517
			c0.079-0.079,0.175-0.146,0.266-0.218C33.407,20.283,33.663,20.08,33.912,19.883"/>
		<path class="st2" d="M29.698,22.128c0.162-0.105,0.318-0.229,0.469-0.341c0.429-0.364,0.869-0.698,1.307-1.009
			c0.189-0.114,0.359-0.233,0.547-0.359c0.069-0.044,0.147-0.085,0.219-0.126c0.257-0.185,0.506-0.367,0.763-0.531
			c0.105-0.058,0.222-0.113,0.332-0.171c0.028,0.025,0.028,0.049,0.013,0.088c-0.054,0.083-0.138,0.162-0.212,0.23
			c-0.28,0.246-0.54,0.503-0.815,0.709c-0.177,0.157-0.384,0.305-0.579,0.444c-0.225,0.158-0.436,0.335-0.646,0.499
			c-0.152,0.12-0.308,0.226-0.466,0.342c-0.153,0.114-0.305,0.219-0.446,0.311c-0.188,0.131-0.367,0.253-0.537,0.38
			c-0.093,0.065-0.179,0.127-0.274,0.199c-0.199,0.161-0.391,0.338-0.637,0.455c-0.068,0.017-0.126,0.073-0.205,0.082v-0.014
			c0,0-0.004-0.04-0.004-0.061c0.037-0.098,0.185-0.219,0.256-0.301c0.09-0.107,0.199-0.178,0.292-0.277
			C29.289,22.486,29.49,22.296,29.698,22.128"/>
		<path class="st2" d="M10.821,17.8c0.071-0.079,0.271-0.251,0.367-0.127c0.052,0.064,0.04,0.189,0.042,0.278
			c0.017,0.161,0.04,0.322,0.047,0.473c0.021,0.112,0.051,0.192,0.081,0.281c0.162,0.442,0.466,0.923,0.934,1.031
			c0.116,0.027,0.234,0.049,0.333-0.045c0.089-0.073,0.201-0.218,0.194-0.349c0-0.11-0.085-0.216-0.144-0.301
			c-0.038-0.047-0.076-0.092-0.112-0.123c-0.092-0.172-0.155-0.383-0.155-0.613c0.006-0.119,0.006-0.242,0.013-0.367
			c0.008-0.079,0.11-0.355,0.03-0.41c-0.215-0.134-0.405,0.461-0.441,0.6c-0.014,0.105-0.007,0.256-0.047,0.343
			c-0.024,0.038-0.055,0.083-0.102,0.069c-0.081-0.006-0.119-0.134-0.132-0.203c-0.065-0.243-0.068-0.499,0-0.719
			c0.035-0.107,0.112-0.24,0.168-0.312c0.051-0.096,0.243-0.353,0.208-0.462c-0.057-0.25-0.592,0.445-0.524,0.052
			c0.039-0.236,0.184-0.579,0.374-0.695c0.393-0.244,0.824,0.227,1.092,0.51c0.082,0.085,0.21,0.241,0.318,0.271
			c0.092,0.017,0.194-0.103,0.249-0.187c0.086-0.127,0.191-0.268,0.251-0.4c0.049-0.161,0.097-0.317,0.16-0.478
			c0.013-0.062,0.034-0.127,0.039-0.185c0.025-0.133,0.051-0.274,0.082-0.411c0.007-0.117,0.016-0.227,0.024-0.357
			c0.018-0.189,0.041-0.367,0.071-0.561c0-0.128-0.02-0.222-0.03-0.332c0-0.164,0.055-0.469-0.086-0.544l-0.01-0.003
			c-0.045-0.014-0.113-0.01-0.153,0.015c-0.124,0.062-0.218,0.181-0.342,0.269c-0.161,0.133-0.319,0.263-0.489,0.364
			c-0.116,0.041-0.226,0.079-0.333,0.126c-0.065,0.017-0.124,0.034-0.191,0.062c-0.021,0-0.055,0.003-0.082,0.01
			c-0.048,0-0.106-0.01-0.137,0.014c-0.028,0-0.059,0-0.081,0.014c-0.314,0-0.59-0.078-0.822-0.239
			c-0.089-0.083-0.168-0.199-0.246-0.293c-0.112-0.143-0.219-0.34-0.265-0.527c-0.021-0.116-0.018-0.235-0.018-0.376
			c0-0.127-0.02-0.251-0.013-0.357c0.013-0.112,0.027-0.225,0.038-0.35c0.016-0.219,0.016-0.421,0.048-0.631
			c0.028-0.186,0.089-0.357,0.123-0.523c0.028-0.079,0.018-0.165,0.041-0.263c0.047-0.164,0.105-0.312,0.141-0.487
			c0.042-0.072,0.069-0.16,0.099-0.24c0.086-0.249,0.167-0.482,0.284-0.682c0.047-0.079,0.083-0.172,0.133-0.271
			c0.144-0.229,0.281-0.473,0.421-0.719c0.089-0.103,0.178-0.216,0.264-0.332c0.124-0.144,0.233-0.283,0.363-0.413
			c0.314-0.328,0.632-0.596,0.959-0.867c0.095-0.073,0.171-0.164,0.274-0.232c0.109-0.068,0.232-0.12,0.342-0.184
			c0.339-0.194,0.684-0.396,1.037-0.571c0.089-0.028,0.175-0.062,0.271-0.106c0.165-0.073,0.328-0.154,0.506-0.201
			c0.069-0.028,0.147-0.054,0.215-0.069c0.127-0.052,0.254-0.102,0.377-0.153c0.092-0.028,0.188-0.037,0.282-0.064
			c0.11-0.024,0.219-0.058,0.335-0.093c0.069,0,0.144-0.017,0.215-0.03c0.22-0.054,0.424-0.11,0.636-0.143
			c0.136-0.017,0.28-0.04,0.424-0.051c0.082-0.01,0.181,0,0.266-0.03c0.369,0.054,0.09,0.42-0.078,0.551
			c-0.041,0.027-0.081,0.052-0.119,0.085c-0.033,0.011-0.066,0.031-0.096,0.035c-0.08,0-0.15,0.028-0.217,0.068
			c-0.28,0.128-0.374,0.374-0.082,0.583c0.042,0.031,0.095,0.064,0.15,0.085c0.114,0.024,0.246,0.024,0.374,0.024
			c0.172-0.004,0.373,0,0.511-0.066c0.137-0.083,0.325-0.338,0.475-0.345c0.147-0.001,0.274,0.208,0.404,0.271
			c0.223,0.129,0.482,0.14,0.768,0.14c0.107,0,0.181,0.014,0.26-0.037c0.199-0.117,0.445-0.442,0.144-0.636
			c-0.155-0.092-0.336-0.092-0.496-0.181c-0.08-0.047-0.186-0.126-0.24-0.226c-0.038-0.064-0.088-0.188-0.021-0.25
			c0.147-0.144,0.535-0.048,0.712-0.032c0.309,0.032,0.586,0.095,0.884,0.175c0.302,0.078,0.599,0.128,0.876,0.216
			c0.128,0.049,0.257,0.102,0.398,0.15c0.093,0.037,0.199,0.073,0.311,0.113c0.09,0.035,0.188,0.082,0.285,0.124
			c0.056,0.02,0.112,0.042,0.171,0.062c0.066,0.042,0.129,0.079,0.212,0.117c0.105,0.048,0.212,0.107,0.321,0.162
			c0.134,0.078,0.251,0.16,0.384,0.23c0.23,0.113,0.466,0.256,0.682,0.425c0.076,0.055,0.143,0.126,0.208,0.191
			c0.071,0.045,0.133,0.099,0.192,0.151c0.075,0.075,0.136,0.136,0.195,0.215c0.172,0.147,0.342,0.283,0.49,0.466
			c0.168,0.172,0.333,0.373,0.496,0.579c0.044,0.075,0.093,0.15,0.14,0.226c0.1,0.144,0.194,0.287,0.291,0.438
			c0.086,0.157,0.151,0.329,0.23,0.475c0.194,0.394,0.371,0.805,0.475,1.262c0.03,0.112,0.045,0.22,0.064,0.309
			c0.023,0.071,0.054,0.157,0.075,0.24c0.017,0.076,0.017,0.16,0.027,0.242c0.013,0.059,0.024,0.126,0.039,0.201
			c0.048,0.401,0.078,0.831,0.059,1.24c0,0.039,0.003,0.082,0.003,0.128c0,0.109-0.024,0.274-0.057,0.366
			c-0.102,0.302-0.415,0.64-0.667,0.774c-0.048,0.037-0.097,0.069-0.155,0.082c-0.038,0.017-0.078,0.03-0.117,0.051
			c0,0-0.039,0-0.064,0.014c-0.021,0-0.052,0.004-0.075,0.004c-0.627,0-1.13-0.273-1.593-0.636c-0.11-0.086-0.374-0.349-0.49-0.137
			c-0.086,0.154-0.058,0.441-0.03,0.592c0.007,0.23,0.03,0.452,0.076,0.674c0.017,0.079,0.037,0.153,0.057,0.222
			c0.064,0.407,0.155,0.737,0.277,1.095c0.031,0.083,0.055,0.174,0.086,0.254c0.057,0.16,0.22,0.689,0.398,0.706
			c0.206,0.023,0.407-0.541,0.516-0.678c0.157-0.179,0.429-0.366,0.658-0.366c0.085,0.004,0.167,0.041,0.237,0.105
			c0.11,0.107,0.417,0.644,0.266,0.798c-0.103,0.11-0.263-0.099-0.336-0.154c-0.041-0.033-0.093-0.057-0.134-0.064v0.007
			c-0.031,0-0.015,0.044-0.015,0.057c0.015,0.052,0.167,0.196,0.22,0.247c0.054,0.08,0.102,0.17,0.131,0.244
			c0.164,0.408,0.129,1.041-0.106,1.393c-0.055,0.078-0.1,0.16-0.189,0.179v-0.011c-0.02,0,0.011-0.15,0.017-0.168
			c0.028-0.191,0.054-0.38,0.054-0.588c-0.006-0.226-0.106-0.818-0.381-0.768c-0.068,0.021-0.12,0.09-0.126,0.164
			c-0.014,0.056,0.014,0.119,0.014,0.178c0.025,0.188,0.078,0.362,0.072,0.569c0,0.195-0.059,0.325-0.116,0.487
			c-0.027,0.086-0.065,0.143-0.103,0.22c-0.047,0.103-0.136,0.264-0.143,0.401c-0.02,0.189,0.151,0.308,0.302,0.318
			c0.103,0.003,0.223,0.01,0.301-0.03c0.089-0.03,0.161-0.116,0.233-0.177c0.189-0.168,0.41-0.462,0.513-0.663
			c0.054-0.119,0.083-0.253,0.117-0.379c0.016-0.052,0.031-0.102,0.045-0.157c0.037-0.177-0.014-0.374,0.023-0.558
			c0.024-0.13,0.212-0.124,0.305-0.079c0.058,0.031,0.096,0.075,0.137,0.123c0.165,0.195,0.254,0.406,0.27,0.682
			c0.023,0.367,0.001,0.714-0.105,1.023c-0.131,0.377-0.452,0.68-0.756,0.88c-0.093,0.061-0.198,0.113-0.291,0.133
			c-0.04,0.001-0.069,0.011-0.105,0.025c-0.076,0-0.168,0.01-0.222,0.057c-0.062,0-0.213,0.024-0.26,0.059
			c-0.025,0.001-0.042,0.001-0.059,0.004c-0.028,0-0.048,0.01-0.073,0.023c-0.032,0-0.061,0-0.086,0.001
			c-0.184,0-0.37,0.017-0.523-0.027c-0.291-0.069-0.523-0.305-0.627-0.591c-0.073-0.188-0.109-0.832-0.281-0.875
			c-0.202-0.051-0.527,0.513-0.634,0.66c-0.194,0.27-0.36,0.548-0.49,0.808c-0.032,0.064-0.068,0.124-0.095,0.196
			c-0.095,0.28-0.12,0.592-0.285,0.845c-0.071,0.112-0.191,0.23-0.294,0.291c-0.064,0.034-0.117,0.065-0.175,0.09
			c-0.024,0-0.041,0.004-0.069,0.004c-0.03,0-0.059,0.004-0.082,0.004c-0.083,0-0.147,0.018-0.218,0.039
			c-0.045,0.011-0.093,0.025-0.133,0.037c-0.099,0-0.23,0.04-0.3-0.031c-0.103-0.072,0.082-0.349-0.124-0.364h-0.031
			c-0.109,0.006-0.194,0.096-0.271,0.161c-0.119,0.1-0.243,0.17-0.365,0.278c-0.037,0.041-0.08,0.092-0.119,0.141
			c-0.143,0.141-0.288,0.275-0.444,0.386c-0.178,0.117-0.403,0.12-0.571,0.253c0,0-0.039,0-0.073,0
			c-0.028,0.014-0.061,0.018-0.092,0.018c-0.017,0.01-0.044,0.01-0.065,0.013c-0.033,0-0.058,0.01-0.086,0.01
			c-0.031,0.004-0.062,0.004-0.09,0.013c-0.021,0.006-0.052,0.006-0.081,0.01c-0.031,0-0.065,0.014-0.092,0.018
			c-0.027,0-0.049,0-0.062,0c-0.028,0.014-0.055,0.014-0.082,0.021c-0.021,0.006-0.048,0.006-0.082,0.011
			c-0.025,0-0.076-0.006-0.105,0.011c-0.089,0-0.167-0.011-0.25-0.011c-0.268-0.006-0.528-0.006-0.8-0.055
			c-0.162-0.028-0.308-0.078-0.472-0.119c-0.208-0.066-0.411-0.134-0.603-0.22c-0.117-0.042-0.237-0.083-0.35-0.14
			c-0.057-0.03-0.13-0.075-0.192-0.109c-0.1-0.047-0.194-0.092-0.284-0.16c-0.182-0.143-0.36-0.372-0.583-0.397
			c-0.153-0.024-0.136,0.144-0.192,0.203c-0.044,0.047-0.086,0.058-0.124,0.098c-0.073,0-0.136-0.035-0.195-0.047
			c-0.127-0.037-0.252-0.064-0.369-0.089c-0.134-0.045-0.278-0.079-0.39-0.16c-0.388-0.27-0.371-0.812-0.54-1.228
			c-0.085-0.189-0.219-0.396-0.298-0.629c-0.051-0.116-0.127-0.204-0.179-0.308c-0.048-0.073-0.072-0.144-0.11-0.219
			c-0.054-0.106-0.12-0.215-0.174-0.322c-0.038-0.056-0.071-0.112-0.11-0.175c-0.03-0.035-0.096-0.062-0.153-0.051
			c-0.284,0.047-0.311,0.657-0.373,0.899c-0.065,0.268-0.28,0.581-0.48,0.709c-0.069,0.045-0.133,0.069-0.193,0.113
			c-0.784,0-1.664-0.187-2.154-0.793c-0.042-0.068-0.097-0.123-0.138-0.203c-0.14-0.269-0.186-0.606-0.186-0.913
			C10.53,18.434,10.574,18.064,10.821,17.8"/>
		<path class="st2" d="M22.17,26.149c0.051-0.105,0.102-0.212,0.157-0.307c0.23-0.431,0.458-0.812,0.681-1.238
			c0.033-0.061,0.055-0.126,0.079-0.178c0.066-0.134,0.144-0.259,0.202-0.393c0.056-0.141,0.123-0.281,0.196-0.373
			c0.102-0.195,0.212-0.396,0.332-0.593c0.034-0.064,0.076-0.157,0.146-0.199v-0.006c0.045,0.015,0.058,0.024,0.058,0.071
			c0.014,0.079-0.037,0.153-0.058,0.225c-0.017,0.073-0.033,0.144-0.052,0.218c-0.02,0.069-0.045,0.122-0.069,0.191
			c-0.03,0.1-0.078,0.16-0.103,0.256c-0.034,0.071-0.064,0.148-0.093,0.212c-0.058,0.134-0.103,0.275-0.144,0.403
			c-0.049,0.153-0.126,0.28-0.178,0.435c-0.034,0.124-0.076,0.244-0.112,0.363c-0.086,0.176-0.184,0.372-0.254,0.595
			c-0.066,0.175-0.116,0.36-0.172,0.533c-0.058,0.157-0.249,0.452-0.404,0.484c-0.083,0.014-0.16-0.007-0.232-0.039
			c-0.047-0.023-0.12-0.065-0.14-0.141C21.958,26.49,22.108,26.293,22.17,26.149"/>
		<path class="st2" d="M21.966,25.601c-0.045,0.086-0.089,0.182-0.127,0.268c-0.088,0.175-0.191,0.343-0.284,0.509
			c-0.073,0.124-0.131,0.236-0.234,0.34c-0.041,0.054-0.1,0.089-0.161,0.122c-0.028,0.007-0.049,0.011-0.069,0.021
			c-0.042,0.004-0.071,0.008-0.104,0.008c-0.065,0-0.237-0.018-0.287,0c-0.052,0-0.117-0.004-0.168,0.011
			c-0.138,0-0.55,0.017-0.55-0.157c-0.003-0.165,0.285-0.459,0.393-0.593c0.116-0.15,0.239-0.301,0.374-0.444
			c0.144-0.177,0.287-0.356,0.432-0.49c0.127-0.133,0.243-0.28,0.365-0.414c0.234-0.283,0.463-0.584,0.703-0.865
			c0.048-0.048,0.102-0.102,0.155-0.155c0.209-0.196,0.387-0.452,0.603-0.658c0.071-0.054,0.129-0.1,0.199-0.15
			c0.031,0.018,0.065,0.03,0.072,0.068c0.025,0.161-0.154,0.422-0.216,0.544c-0.066,0.137-0.123,0.25-0.205,0.396
			c-0.098,0.182-0.199,0.377-0.297,0.569c-0.117,0.208-0.237,0.397-0.34,0.603c-0.037,0.081-0.081,0.154-0.113,0.223
			C22.057,25.441,22.009,25.518,21.966,25.601"/>
		<path class="st2" d="M20.346,23.763c-0.047,0.138-0.191,0.244-0.283,0.332c-0.038,0.047-0.092,0.089-0.131,0.136
			c-0.048,0.028-0.09,0.054-0.133,0.079c-0.092,0-0.178-0.023-0.246-0.066c-0.177-0.099-0.326-0.281-0.395-0.469
			c-0.017-0.037-0.031-0.085,0-0.107c0.079-0.1,0.247-0.061,0.359-0.1c0.15,0.009,0.3,0.016,0.455,0.02
			c0.088,0,0.196-0.011,0.28,0.02c0.033,0.006,0.085,0.035,0.095,0.068C20.359,23.704,20.359,23.738,20.346,23.763"/>
		<path class="st2" d="M7.029,19.931c0.038,0.03,0.065,0.059,0.105,0.086c0.093,0.042,0.191,0.089,0.287,0.124
			c0.16,0.093,0.292,0.188,0.445,0.29c0.09,0.059,0.189,0.114,0.295,0.138c0.315,0.215,0.614,0.464,0.921,0.689
			c0.072,0.049,0.147,0.093,0.225,0.138c0.065,0.066,0.14,0.131,0.218,0.186c0.165,0.119,0.325,0.253,0.486,0.379
			c0.062,0.047,0.136,0.095,0.198,0.14c0.069,0.031,0.147,0.085,0.218,0.147c0.128,0.104,0.27,0.222,0.39,0.353
			c0.059,0.064,0.116,0.127,0.172,0.194c0.076,0.082,0.147,0.167,0.215,0.257c0.038,0.033,0.068,0.072,0.099,0.105
			c0.014,0.025,0.054,0.073,0.027,0.098c-0.01,0.021-0.027,0.024-0.042,0.021c-0.045-0.021-0.092-0.045-0.133-0.066
			c-0.109-0.073-0.216-0.147-0.326-0.226c-0.076-0.057-0.165-0.106-0.253-0.161c-0.096-0.086-0.198-0.164-0.297-0.249
			c-0.224-0.191-0.47-0.336-0.708-0.479c-0.082-0.062-0.162-0.133-0.243-0.199c-0.131-0.104-0.263-0.202-0.404-0.299
			c-0.082-0.059-0.178-0.107-0.264-0.174c-0.061-0.044-0.127-0.095-0.182-0.144c-0.141-0.112-0.277-0.216-0.418-0.332
			c-0.147-0.11-0.29-0.232-0.439-0.342c-0.071-0.058-0.151-0.086-0.224-0.141C7.351,20.408,7.299,20.355,7.25,20.3
			c-0.068-0.071-0.136-0.144-0.212-0.213c-0.057-0.055-0.121-0.069-0.164-0.126c-0.03-0.034-0.048-0.061-0.048-0.109
			C6.905,19.865,6.966,19.889,7.029,19.931"/>
		<path class="st2" d="M7.721,24.007c-0.045,0.027-0.096,0.013-0.131-0.018c-0.081-0.066-0.116-0.152-0.17-0.232
			c-0.083-0.068-0.157-0.171-0.239-0.27c-0.021-0.042-0.048-0.102-0.081-0.157c-0.024-0.045-0.056-0.082-0.085-0.128
			c-0.032-0.065-0.052-0.12-0.079-0.179c-0.157-0.28-0.322-0.551-0.462-0.835c-0.021-0.054-0.039-0.092-0.057-0.154
			c-0.061-0.13-0.117-0.246-0.172-0.377c-0.018-0.059-0.042-0.122-0.058-0.185c-0.027-0.065-0.066-0.119-0.097-0.184
			c-0.109-0.235-0.188-0.49-0.27-0.74c-0.064-0.15-0.339-0.715-0.267-0.906c0.172,0.004,0.308,0.127,0.428,0.23
			c0.08,0.045,0.168,0.099,0.247,0.155c0.206,0.163,0.407,0.328,0.607,0.483c0.061,0.035,0.107,0.076,0.153,0.127
			c0.116,0.098,0.233,0.199,0.347,0.295c0.13,0.1,0.247,0.216,0.376,0.307c0.055,0.04,0.117,0.085,0.167,0.122
			c0.082,0.062,0.16,0.141,0.244,0.213c0.093,0.076,0.256,0.127,0.295,0.27c0.041,0.165-0.085,0.297-0.136,0.434
			c-0.073,0.179-0.164,0.35-0.215,0.55c-0.054,0.213-0.119,0.415-0.161,0.617C7.857,23.641,7.892,23.901,7.721,24.007"/>
		<path class="st2" d="M9.257,31.871c-0.284,0-0.547-0.031-0.815-0.058c-0.179-0.01-0.341-0.01-0.531-0.023
			c-0.09-0.015-0.189-0.028-0.285-0.031c-0.136-0.006-0.274-0.006-0.412-0.006c-0.112-0.013-0.229-0.03-0.339-0.047
			c-0.068,0-0.146,0-0.22,0c-0.12-0.014-0.235-0.042-0.37-0.058c-0.095,0-0.199-0.003-0.297-0.003
			c-0.083-0.006-0.165-0.023-0.249-0.031c-0.544-0.055-1.134-0.03-1.431-0.574c-0.273-0.504,0.104-1.119,0.411-1.468
			c0.677-0.778,1.386-1.479,2.089-2.235c0.195-0.205,0.391-0.427,0.581-0.599c0.097-0.113,0.192-0.212,0.288-0.322
			c0.045-0.041,0.102-0.071,0.154-0.109c0.078,0,0.126,0.038,0.153,0.114c0.057,0.136,0.033,0.319,0.038,0.458
			c0.014,0.055,0.018,0.114,0.037,0.185c0.011,0.106,0.011,0.225,0.011,0.336c0.014,0.057,0.032,0.114,0.032,0.171
			c0,0.049,0.007,0.104,0.007,0.16c0.02,0.124,0.04,0.257,0.068,0.384c0.041,0.466,0.122,0.928,0.236,1.389
			c0.027,0.124,0.061,0.256,0.09,0.39c0.028,0.081,0.075,0.151,0.109,0.236c0.018,0.065,0.031,0.124,0.042,0.181
			c0.039,0.136,0.104,0.253,0.155,0.376c0.031,0.071,0.064,0.164,0.102,0.244c0.096,0.168,0.182,0.332,0.278,0.504
			c0.051,0.083,0.175,0.157,0.179,0.261C9.371,31.79,9.306,31.83,9.257,31.871"/>
		<path class="st2" d="M18.705,33.835c-0.049,0.058-0.11,0.075-0.171,0.124c-0.158,0-0.331-0.049-0.473-0.104
			c-0.079-0.031-0.162-0.082-0.25-0.098c-0.285-0.037-0.383,0.206-0.588,0.326c-0.088,0.047-0.203,0.041-0.285,0.09
			c-0.014,0.007-0.041,0.007-0.061,0.007c-0.02,0.013-0.037,0.013-0.061,0.013c-0.027,0.01-0.037,0.01-0.059,0.017
			c-0.02,0.003-0.055,0.006-0.071,0.014c-0.03,0-0.057,0.009-0.085,0.013c-0.061,0-0.144-0.021-0.205,0.007
			c-0.042,0-0.096,0-0.134,0.014c-0.034,0-0.065,0.004-0.097,0.013c-0.035,0-0.082-0.008-0.114,0.011
			c-0.152,0-0.311-0.011-0.46-0.011c-0.044,0-0.106-0.013-0.155,0.011c-0.158,0-0.336,0.011-0.473-0.045
			c-0.186-0.071-0.373-0.219-0.551-0.331c-0.17-0.092-0.331-0.199-0.489-0.309c-0.086-0.062-0.194-0.123-0.24-0.243
			c-0.1-0.24,0.295-0.44,0.078-0.712c-0.081-0.098-0.209-0.11-0.318-0.153c-0.147-0.048-0.294-0.096-0.436-0.154
			c-0.106-0.034-0.202-0.103-0.295-0.15c-0.147-0.079-0.307-0.164-0.441-0.277c-0.144-0.134-0.345-0.388-0.54-0.4
			c-0.188-0.003-0.295,0.184-0.428,0.285c-0.061,0.045-0.12,0.059-0.172,0.105c-0.175,0-0.362,0.018-0.516-0.059
			c-0.064-0.033-0.105-0.078-0.161-0.12c-0.124-0.105-0.259-0.219-0.364-0.355c-0.027-0.038-0.049-0.082-0.078-0.124
			c-0.172-0.218-0.345-0.435-0.49-0.663c-0.117-0.191-0.23-0.381-0.325-0.558C9.154,29.923,9.11,29.82,9.07,29.712
			c-0.052-0.098-0.093-0.177-0.141-0.266c-0.038-0.112-0.066-0.212-0.103-0.321c-0.078-0.256-0.154-0.5-0.212-0.74
			c-0.059-0.333-0.144-0.653-0.172-1.014c-0.011-0.133-0.048-0.261-0.054-0.397c0-0.134-0.009-0.285-0.009-0.446
			c0-0.088-0.023-0.165-0.023-0.256c0.006-0.107,0.017-0.212,0.017-0.322c-0.011-0.309-0.088-0.612-0.076-0.872
			c0.018-0.295-0.061-0.552-0.051-0.842c0.016-0.119,0.03-0.229,0.051-0.343c0.059-0.287,0.133-0.571,0.233-0.87
			c0.015-0.033,0.035-0.068,0.047-0.1c0.071-0.179,0.136-0.374,0.274-0.49c0.021-0.025,0.049-0.031,0.068-0.049
			c0.199,0.001,0.27,0.13,0.427,0.22c0.076,0.057,0.174,0.106,0.263,0.157c0.189,0.127,0.367,0.263,0.561,0.389
			c0.194,0.117,0.38,0.237,0.576,0.339c0.1,0.054,0.198,0.114,0.298,0.16c0.137,0.062,0.257,0.127,0.398,0.182
			c0.071,0.028,0.13,0.051,0.203,0.056c0.092,0.016,0.178-0.006,0.252,0.047c0.072,0.056,0.127,0.17,0.181,0.251
			c0.065,0.079,0.136,0.155,0.213,0.236c0.112,0.17,0.186,0.349,0.295,0.53c0.073,0.136,0.216,0.305,0.239,0.455h-0.007
			c-0.02,0-0.016,0.007-0.016,0.007c-0.061-0.007-0.122-0.104-0.167-0.137c-0.059-0.039-0.129-0.089-0.186-0.146
			c-0.093-0.093-0.181-0.201-0.258-0.288c-0.124-0.146-0.253-0.341-0.411-0.444c-0.042-0.025-0.126-0.035-0.171-0.004
			c-0.147,0.107,0.031,0.376,0.089,0.489c0.044,0.078,0.082,0.16,0.133,0.227c0.154,0.17,0.289,0.353,0.46,0.524
			c0.158,0.157,0.333,0.319,0.507,0.478c0.072,0.054,0.137,0.119,0.206,0.182c0.143,0.095,0.29,0.175,0.376,0.347
			c0.047,0.11,0.079,0.199,0.129,0.295c0.038,0.059,0.072,0.13,0.105,0.198c0.068,0.157,0.114,0.319,0.179,0.473
			c0.042,0.103,0.093,0.209,0.144,0.302c0.122,0.332,0.251,0.617,0.387,0.944c0.056,0.126,0.086,0.249,0.138,0.381
			c0.039,0.078,0.088,0.161,0.131,0.246c0.057,0.161,0.123,0.308,0.181,0.458c0.079,0.175,0.177,0.367,0.263,0.565
			c0.055,0.137,0.103,0.273,0.144,0.411c0.085,0.204,0.165,0.398,0.25,0.592c0.052,0.095,0.102,0.186,0.141,0.284
			c0.045,0.078,0.068,0.161,0.127,0.225c0.138,0.179,0.528,0.209,0.749,0.246c0.201,0.049,0.391,0.116,0.588,0.175
			c0.056,0.006,0.122,0.02,0.174,0.038c0.452,0.12,0.897,0.284,1.29,0.523C18.771,33.156,18.983,33.535,18.705,33.835"/>
		<path class="st2" d="M18.845,26.697c-0.011,0.11-0.107,0.143-0.175,0.184h-0.143c-0.189,0-0.374,0-0.551-0.011
			c-0.203-0.004-0.383-0.004-0.531-0.095c-0.184-0.131-0.234-0.362-0.309-0.562c-0.02-0.058-0.048-0.109-0.068-0.16
			c-0.123-0.315-0.22-0.625-0.328-0.903c-0.031-0.055-0.054-0.109-0.079-0.164c-0.04-0.096-0.068-0.188-0.107-0.281
			c-0.013-0.071-0.041-0.14-0.064-0.205c-0.049-0.116-0.093-0.229-0.14-0.339c-0.028-0.071-0.049-0.134-0.071-0.213
			c-0.107-0.287-0.267-0.576-0.366-0.907c-0.023-0.086-0.068-0.163-0.075-0.256c-0.011-0.042,0.007-0.075,0.023-0.107
			c0.171,0.032,0.26,0.232,0.367,0.359c0.133,0.154,0.253,0.311,0.373,0.473c0.055,0.076,0.107,0.164,0.164,0.213
			c0.151,0.195,0.297,0.394,0.438,0.606c0.045,0.068,0.103,0.137,0.155,0.209c0.045,0.066,0.09,0.154,0.141,0.23
			c0.086,0.103,0.175,0.213,0.26,0.316c0.182,0.233,0.364,0.489,0.551,0.745c0.119,0.162,0.229,0.346,0.353,0.524
			c0.052,0.078,0.107,0.165,0.161,0.246C18.84,26.62,18.849,26.656,18.845,26.697"/>
		<path class="st2" d="M18.794,25.275c-0.042,0.025-0.104,0.033-0.138,0.055c-0.086,0-0.168-0.016-0.226-0.055
			c-0.076-0.059-0.147-0.158-0.206-0.244c-0.049-0.065-0.088-0.12-0.138-0.172c-0.049-0.096-0.103-0.17-0.153-0.26
			c-0.124-0.178-0.273-0.347-0.407-0.533c-0.121-0.195-0.261-0.37-0.397-0.547c-0.095-0.119-0.366-0.414-0.302-0.581
			c0.021-0.059,0.1-0.075,0.146-0.102c0.099,0,0.199,0,0.281,0.023c0.072,0.01,0.129,0.051,0.196,0.079
			c0.156,0.066,0.297,0.144,0.446,0.23c0.086,0.052,0.178,0.109,0.274,0.188c0.141,0.131,0.263,0.291,0.388,0.401
			c0.089,0.104,0.14,0.219,0.228,0.325c0.055,0.055,0.093,0.113,0.141,0.161c0.124,0.134,0.287,0.283,0.283,0.482
			C19.198,24.928,18.941,25.186,18.794,25.275"/>
		<path class="st2" d="M19.458,26.457c-0.066,0.017-0.141-0.034-0.178-0.079c-0.071-0.069-0.09-0.148-0.131-0.24
			c-0.049-0.133-0.086-0.325-0.045-0.475c0.028-0.095,0.103-0.178,0.155-0.259c0.093-0.11,0.199-0.227,0.309-0.347
			c0.48-0.557,0.997-1.086,1.586-1.438c0.096-0.072,0.192-0.156,0.285-0.219c0.096-0.052,0.202-0.051,0.301-0.089
			c0.117-0.045,0.249-0.12,0.367-0.185c0.035,0,0.066,0.006,0.1,0.023c0,0.042,0.004,0.069-0.004,0.107
			c-0.02,0.081-0.096,0.164-0.158,0.232c-0.113,0.141-0.223,0.252-0.343,0.393c-0.434,0.547-0.903,1.079-1.343,1.587
			c-0.105,0.123-0.213,0.242-0.311,0.363c-0.076,0.107-0.167,0.215-0.254,0.325C19.701,26.272,19.6,26.423,19.458,26.457"/>
		<path class="st2" d="M29.945,31.889c-0.038,0.028-0.085,0.028-0.13,0.062c-0.232,0-0.444-0.015-0.663-0.034
			c-0.161,0-0.339-0.009-0.479-0.078c-0.158-0.069-0.225-0.301-0.403-0.319c-0.007-0.011-0.018-0.011-0.018-0.011
			c-0.155-0.003-0.278,0.106-0.393,0.184c-0.1,0.066-0.218,0.137-0.333,0.178c-0.089,0.047-0.199,0.076-0.294,0.092
			c-0.044,0.003-0.086,0.02-0.129,0.031c-0.039,0-0.089,0-0.123,0.011c-0.051,0-0.11-0.011-0.144,0.011
			c-0.025,0.006-0.058,0.01-0.085,0.01c-0.02,0.007-0.041,0.007-0.062,0.01c-0.027,0.011-0.054,0.011-0.085,0.016
			c-0.051,0-0.131-0.016-0.17,0.013c-0.055,0-0.099-0.003-0.137,0.011c-0.066,0-0.212-0.014-0.264,0.015
			c-0.114-0.008-0.223-0.015-0.333-0.027c-0.15-0.003-0.294,0.011-0.429-0.017c-0.116-0.021-0.232-0.042-0.339-0.065
			c-0.181-0.017-0.346-0.017-0.521-0.035c-0.119-0.025-0.222-0.076-0.35-0.076v0.014h-0.003c-0.009,0.078,0.174,0.191,0.216,0.247
			c0.061,0.078,0.123,0.153,0.178,0.233c0.061,0.071,0.14,0.134,0.171,0.222c0.047,0.171-0.093,0.261-0.184,0.353
			c-0.064,0.081-0.147,0.148-0.243,0.191c-0.089,0.049-0.189,0.093-0.287,0.15c-0.172,0.099-0.335,0.202-0.499,0.315
			c-0.051,0.023-0.1,0.041-0.151,0.061c-0.086,0-0.311-0.02-0.371,0.017c-0.031,0-0.081-0.006-0.109,0.006
			c-0.092,0-0.28-0.042-0.357,0c-0.148,0-0.297-0.006-0.422-0.006c-0.143-0.006-0.323,0.006-0.424-0.078
			c-0.137-0.103,0.093-0.242,0.038-0.345c-0.015-0.035-0.069-0.035-0.11-0.027c-0.106,0.011-0.208,0.073-0.324,0.113
			c-0.027,0.006-0.061,0.017-0.09,0.042c-0.034,0-0.068,0-0.093,0.007c-0.068,0-0.157-0.007-0.213,0.009
			c-0.103,0-0.212-0.009-0.333-0.009c-0.039,0-0.092-0.007-0.114,0.009c-0.128,0-0.237-0.009-0.346-0.016
			c-0.109-0.015-0.369,0-0.329-0.184c0.047-0.181,0.523-0.459,0.677-0.554c0.137-0.071,0.275-0.168,0.427-0.239
			c0.144-0.068,0.292-0.157,0.434-0.229c0.073-0.041,0.148-0.079,0.22-0.113c0.064-0.039,0.124-0.068,0.188-0.105
			c0.174-0.103,0.36-0.182,0.548-0.274c0.079-0.034,0.162-0.042,0.234-0.089c0.185-0.105,0.326-0.281,0.476-0.463
			c0.198-0.24,0.386-0.482,0.578-0.735c0.075-0.107,0.157-0.218,0.244-0.319c0.424-0.47,0.826-0.997,1.206-1.517
			c0.078-0.078,0.146-0.147,0.215-0.225c0.25-0.325,0.511-0.641,0.771-0.963c0.037-0.059,0.065-0.107,0.109-0.157
			c0.047-0.054,0.1-0.12,0.152-0.181c0.102-0.122,0.185-0.249,0.3-0.367c0.2-0.198,0.431-0.366,0.646-0.589
			c0.304-0.318,0.568-0.651,0.828-0.948c0.099-0.124,0.54-0.629,0.424-0.767c-0.057-0.069-0.164-0.052-0.218-0.023
			c-0.058,0.045-0.089,0.11-0.129,0.168c-0.066,0.107-0.144,0.209-0.208,0.319c-0.073,0.11-0.175,0.209-0.257,0.319
			c-0.123,0.129-0.263,0.27-0.407,0.384c-0.047,0.038-0.138,0.11-0.189,0.058c-0.143-0.16,0.253-0.762,0.359-0.883
			c0.054-0.051,0.11-0.1,0.162-0.151c0.08-0.076,0.157-0.161,0.233-0.244c0.109-0.134,0.26-0.347,0.405-0.406
			c0.09-0.038,0.196-0.018,0.295-0.038c0.14-0.009,0.281-0.055,0.395-0.122c0.499-0.249,0.986-0.494,1.468-0.79
			c0.239-0.146,0.435-0.341,0.664-0.461c0.032-0.023,0.071-0.037,0.107-0.051c0.059,0.014,0.103,0.024,0.147,0.076
			c0.066,0.083,0.12,0.202,0.162,0.308c0.052,0.117,0.11,0.249,0.147,0.383c0.027,0.085,0.049,0.18,0.082,0.273
			c0.057,0.206,0.136,0.41,0.158,0.658c0.017,0.304-0.035,0.564-0.049,0.863c-0.004,0.235-0.014,0.458-0.052,0.682
			c-0.031,0.196-0.068,0.39-0.102,0.585c-0.058,0.369-0.131,0.694-0.202,1.04c-0.028,0.205-0.064,0.411-0.088,0.609
			c-0.024,0.078-0.04,0.148-0.057,0.215c-0.095,0.41-0.162,0.856-0.281,1.3c-0.021,0.117-0.047,0.243-0.071,0.362
			c-0.042,0.178-0.09,0.316-0.144,0.487c-0.007,0.064-0.025,0.141-0.042,0.202c-0.023,0.068-0.051,0.126-0.065,0.192
			C30.456,31.08,30.288,31.656,29.945,31.889"/>
		<path class="st2" d="M35.725,30.855c-0.066,0.246-0.271,0.458-0.469,0.582c-0.058,0.034-0.13,0.052-0.178,0.083
			c-0.048,0-0.096,0-0.12,0.013c-0.023,0.006-0.047,0.006-0.066,0.006c-0.025,0.008-0.049,0.008-0.068,0.008
			c-0.048,0-0.09,0.013-0.122,0.03c0,0-0.048,0.009-0.082,0.009c-0.018,0-0.042,0.004-0.066,0.009c0,0-0.044,0.007-0.072,0.008
			c-0.039,0-0.114-0.008-0.147,0.009c-0.035,0-0.075,0-0.105,0.013c-0.051,0-0.12,0.017-0.153,0.032
			c-0.03,0.006-0.062,0.009-0.082,0.009c-0.051,0-0.105-0.003-0.154,0.017c-0.061,0-0.147-0.017-0.196,0.011
			c-0.049,0-0.12-0.011-0.162,0.006c-0.049,0-0.129-0.006-0.175,0.009c-0.033,0-0.065,0.013-0.095,0.013
			c-0.065,0-0.148-0.013-0.199,0.013c-0.045,0-0.088-0.009-0.133,0.008c-0.051,0-0.12-0.008-0.165,0.013
			c-0.071,0-0.206-0.015-0.268,0.009c-0.034,0-0.076,0-0.112,0.013c-0.034,0-0.082,0-0.103,0.015c-0.086,0-0.223-0.015-0.287,0.013
			c-0.051,0-0.109-0.009-0.143,0.01c-0.044,0-0.095-0.006-0.137,0.017c-0.039,0-0.096-0.017-0.141,0.01
			c-0.049,0-0.119-0.01-0.162,0.007c-0.075,0-0.212-0.017-0.266,0.021c-0.025,0-0.057,0.003-0.085,0.003
			c-0.148,0-0.514,0.047-0.514-0.164c0.006-0.122,0.172-0.315,0.252-0.442c0.085-0.185,0.147-0.35,0.216-0.537
			c0.038-0.116,0.082-0.215,0.128-0.332c0.037-0.152,0.076-0.304,0.129-0.444c0.007-0.042,0.024-0.081,0.044-0.133
			c0.062-0.267,0.122-0.55,0.175-0.828c0.013-0.086,0.031-0.168,0.042-0.256c0.028-0.123,0.054-0.233,0.095-0.332
			c0.035-0.235,0.073-0.478,0.123-0.726c0.014-0.071,0.027-0.161,0.031-0.25c0.047-0.243,0.085-0.509,0.143-0.73
			c0.03-0.138,0.052-0.266,0.124-0.373c0.058,0,0.117,0,0.171,0.038c0.165,0.106,0.331,0.316,0.459,0.458
			c0.213,0.223,0.435,0.47,0.663,0.719c0.062,0.049,0.119,0.109,0.17,0.154c0.134,0.136,0.26,0.284,0.398,0.428
			c0.085,0.082,0.162,0.157,0.242,0.233c0.052,0.049,0.081,0.098,0.136,0.146c0.194,0.215,0.403,0.435,0.612,0.668
			c0.086,0.088,0.172,0.177,0.25,0.273c0.048,0.052,0.099,0.095,0.146,0.136c0.027,0.038,0.054,0.092,0.088,0.123
			c0.106,0.154,0.213,0.285,0.295,0.425C35.718,30.299,35.782,30.64,35.725,30.855"/>
		<path class="st1" d="M16.076,15.46c0.089-0.006,0.174-0.031,0.27-0.045c0.12-0.016,0.268,0,0.394,0.011
			c0.186,0.024,0.369,0.11,0.521,0.196c0.127,0.064,0.253,0.126,0.38,0.189c0.097,0.058,0.463,0.403,0.544,0.393
			c0.018,0,0.038-0.003,0.058-0.01c0.122-0.126-0.079-0.46-0.136-0.574c-0.138-0.352-0.588-0.845-0.904-0.992
			c-0.184-0.082-0.346-0.103-0.554-0.103c-0.068,0.021-0.131,0.044-0.201,0.057c-0.13,0-0.243,0.079-0.345,0.143
			c-0.23,0.143-0.455,0.333-0.612,0.585c-0.037,0.054-0.089,0.174-0.027,0.239C15.584,15.665,15.947,15.504,16.076,15.46"/>
		<path class="st1" d="M21.505,15.693c0.12-0.02,0.236-0.072,0.347-0.107c0.081-0.01,0.164-0.024,0.244-0.037
			c0.097-0.007,0.209-0.018,0.308-0.023c0.338,0,0.674,0.082,0.925,0.24c0.131,0.071,0.281,0.209,0.425,0.28
			c0.059,0.034,0.119,0.034,0.155-0.01c0.071-0.103,0.023-0.225,0-0.288c-0.136-0.411-0.403-0.778-0.753-0.985
			c-0.179-0.116-0.397-0.127-0.644-0.127c-0.148,0.051-0.301,0.062-0.431,0.14c-0.093,0.042-0.184,0.104-0.26,0.158
			c-0.12,0.093-0.588,0.526-0.452,0.716C21.404,15.686,21.455,15.702,21.505,15.693"/>
		<path class="st1" d="M17.245,17.1c-0.13-0.047-0.258-0.066-0.419-0.066c-0.124,0.04-0.256,0.062-0.369,0.124
			c-0.1,0.047-0.203,0.096-0.285,0.17c-0.136,0.066-0.568,0.493-0.425,0.688c0.068,0.096,0.226,0.066,0.329,0.11
			c0.062,0.017,0.107,0.086,0.174,0.116c0.061,0.031,0.131,0.031,0.199,0.049c0.033,0.014,0.064,0.021,0.093,0.035
			c0.072,0.02,0.167,0.015,0.247,0c0.068-0.014,0.113-0.059,0.175-0.085c0.097-0.03,0.198-0.047,0.288-0.105
			c0.041-0.035,0.102-0.069,0.14-0.106c0.042-0.042,0.066-0.093,0.122-0.123c0.052-0.018,0.114-0.042,0.175-0.042
			c0.119,0,0.28,0.09,0.325-0.066C18.09,17.548,17.412,17.168,17.245,17.1"/>
		<path class="st1" d="M23.431,17.307c-0.086-0.085-0.194-0.138-0.295-0.179c-0.14-0.064-0.271-0.073-0.448-0.073
			c-0.041,0.01-0.075,0.023-0.117,0.037c-0.127,0-0.233,0.042-0.331,0.095c-0.114,0.079-0.24,0.158-0.36,0.201
			c-0.076,0.066-0.325,0.319-0.281,0.442c0.049,0.123,0.168,0.027,0.249,0.011c0.032-0.009,0.079,0.013,0.119,0.023
			c0.034,0.038,0.068,0.064,0.106,0.089c0.161,0.131,0.339,0.291,0.537,0.355c0.064,0.014,0.133,0,0.199-0.014
			c0.071-0.018,0.161-0.037,0.242-0.049c0.103-0.03,0.188-0.099,0.295-0.116c0.147-0.031,0.302-0.051,0.449-0.069
			c0.032-0.011,0.049-0.034,0.079-0.059C24.012,17.764,23.58,17.386,23.431,17.307"/>
		<path class="st1" d="M19.261,20.179c0.292,0.006,0.564-0.023,0.84-0.017c0.075,0.013,0.15,0.017,0.228,0.023
			c0.045,0,0.092,0,0.145-0.006c0.117,0.006,0.252,0.006,0.366-0.017c0.08-0.006,0.157,0,0.227-0.02
			c0.059-0.023,0.113-0.076,0.172-0.124c0.13-0.107,0.257-0.271,0.266-0.446c0.025-0.15-0.088-0.469-0.157-0.575
			c-0.028-0.047-0.052-0.057-0.086-0.109c-0.035-0.107-0.061-0.287-0.123-0.363c-0.045-0.052-0.109-0.068-0.174-0.073v0.018
			c-0.049,0-0.092,0.041-0.129,0.072c-0.038,0.057-0.054,0.116-0.054,0.185c0,0.167,0.072,0.274,0.146,0.4
			c0.049,0.086,0.119,0.202,0.106,0.321c-0.024,0.154-0.13,0.203-0.236,0.29c-0.141,0-0.284-0.004-0.425-0.02
			c-0.038,0-0.114-0.001-0.148,0.02c-0.124,0-0.236-0.004-0.356-0.02c-0.239-0.001-0.774,0.062-0.918-0.124
			c-0.034-0.047-0.047-0.112-0.034-0.164c0.008-0.021,0.011-0.044,0.02-0.049c0.054-0.202,0.367-0.663,0.161-0.869
			c-0.03-0.024-0.092-0.054-0.14-0.028c-0.058,0-0.11,0.014-0.146,0.055c-0.062,0.088-0.076,0.222-0.116,0.322
			c-0.071,0.153-0.185,0.318-0.225,0.52c-0.01,0.089-0.017,0.249,0.004,0.338C18.539,20.047,18.983,20.174,19.261,20.179"/>
		<path class="st1" d="M20.651,20.755c-0.041,0.017-0.086,0.03-0.136,0.042c-0.068,0-0.208,0.039-0.264,0.083
			c-0.044,0-0.106-0.02-0.133,0.007c-0.196,0-0.38,0-0.544-0.054c-0.089-0.037-0.177-0.065-0.27-0.102
			c-0.044-0.018-0.092-0.031-0.141-0.044c-0.054-0.024-0.102-0.051-0.151-0.069c-0.117-0.048-0.268-0.072-0.394-0.072
			c-0.008,0.034-0.008,0.065,0.017,0.09c0.062,0.147,0.401,0.333,0.534,0.425c0.266,0.158,0.647,0.328,0.976,0.29
			c0.138-0.024,0.281-0.081,0.419-0.138c0.154-0.065,0.291-0.147,0.421-0.273c0.096-0.102,0.212-0.172,0.249-0.314
			c0,0-0.055-0.048-0.107-0.048C20.969,20.58,20.795,20.692,20.651,20.755"/>
		<path class="st2" d="M19.881,21.736c-0.057,0.027-0.264,0.04-0.246,0.151c0.013,0.107,0.26,0.137,0.336,0.126
			c0.068-0.011,0.161-0.049,0.184-0.126C20.222,21.726,19.972,21.736,19.881,21.736"/>
	</g>
	<g>
		<path class="st3" d="M62.767,7.393c0.297-0.303,0.447-0.687,0.447-1.142c0-0.681-0.359-1.232-1.07-1.641
			C61.437,4.205,60.489,4,59.32,4c-1.251,0-2.459,0.161-3.585,0.484c-1.128,0.319-2.095,0.77-2.877,1.338
			c-0.875,0.641-1.49,1.353-1.829,2.117c-0.34,0.761-0.512,1.811-0.512,3.126v5.429h-3.253v0.918h3.253v11.507
			c0,1.331-0.034,2.312-0.1,3.007c-0.065,0.681-0.181,1.201-0.343,1.54c-0.236,0.513-0.548,0.88-0.929,1.093
			c-0.383,0.213-1.028,0.38-1.918,0.498L47.2,35.06v0.533h9.98v-0.532l-0.027-0.004c-1.107-0.204-1.879-0.511-2.295-0.907
			c-0.338-0.31-0.568-0.697-0.685-1.158c-0.118-0.465-0.178-1.19-0.178-2.218l-0.023-1.7V17.412h4.442v-0.918h-4.419v-5.9
			c0-1.302,0.06-2.264,0.179-2.939c0.119-0.673,0.335-1.221,0.644-1.63c0.277-0.366,0.671-0.668,1.175-0.898
			c0.503-0.228,1.042-0.344,1.603-0.344c0.451,0,0.814,0.107,1.078,0.317c0.266,0.216,0.61,0.671,1.024,1.347
			c0.308,0.504,0.605,0.856,0.907,1.073c0.3,0.219,0.663,0.332,1.075,0.332C62.106,7.851,62.471,7.696,62.767,7.393z"/>
		<path class="st3" d="M82.052,34.289c-0.351-0.181-0.662-0.481-0.93-0.895c-0.239-0.382-0.397-0.885-0.476-1.496
			c-0.084-0.615-0.125-1.671-0.125-3.227V16.494h-6.66v0.554l0.028,0.003c1.126,0.194,1.905,0.494,2.315,0.888
			c0.335,0.322,0.562,0.712,0.674,1.168c0.114,0.463,0.168,1.184,0.168,2.207l0.023,1.653v4.385c0,1.725-0.072,2.988-0.212,3.753
			c-0.142,0.75-0.429,1.425-0.858,1.997c-0.409,0.56-0.985,1.005-1.709,1.333c-0.723,0.323-1.508,0.486-2.333,0.486
			c-0.751,0-1.44-0.143-2.046-0.431c-0.603-0.288-1.073-0.686-1.395-1.188c-0.295-0.489-0.502-1.12-0.611-1.878
			c-0.113-0.764-0.169-1.926-0.169-3.546V16.494h-6.659v0.554l0.027,0.003c1.112,0.194,1.891,0.494,2.314,0.888
			c0.325,0.324,0.55,0.716,0.665,1.168c0.118,0.463,0.179,1.206,0.179,2.207l0.021,1.699v7.785c0,1.643,0.564,2.93,1.673,3.829
			c1.138,0.908,2.662,1.37,4.53,1.37c2.528,0,4.75-0.924,6.605-2.748c0.005,0.923,0.103,1.838,0.293,2.723L77.389,36l6.201-0.833
			l0.03-0.004v-0.53l-0.032-0.001C82.922,34.59,82.407,34.472,82.052,34.289z"/>
		<path class="st3" d="M105.236,34.507c-0.491-0.265-0.919-0.548-1.273-0.841c-0.357-0.297-0.928-0.834-1.745-1.642
			c-0.014-0.016-1.357-1.522-1.828-2.038l-5.172-6.471l2.422-2.601l0.894-1.006c1.085-1.163,1.972-1.938,2.634-2.304
			c0.662-0.365,1.544-0.551,2.624-0.551h0.034v-0.56h-8.703v0.555l0.031,0.005c0.777,0.042,1.312,0.125,1.591,0.239
			c0.645,0.246,0.971,0.68,0.971,1.295c0,0.45-0.141,0.908-0.421,1.359c-0.283,0.452-0.847,1.155-1.677,2.089l-4.018,4.392V4.064
			l-6.499,0.811l-0.029,0.002v0.554l0.031,0.003c0.662,0.044,1.178,0.154,1.537,0.332c0.35,0.174,0.655,0.471,0.906,0.883
			c0.249,0.381,0.414,0.887,0.489,1.505c0.074,0.62,0.11,1.67,0.11,3.217v17.549c0,1.336-0.032,2.317-0.1,3.006
			c-0.07,0.702-0.181,1.208-0.345,1.541c-0.239,0.52-0.541,0.878-0.927,1.095c-0.386,0.212-1.031,0.38-1.917,0.496l-0.029,0.003
			v0.533h9.981v-0.532l-0.027-0.004c-1.11-0.204-1.881-0.511-2.292-0.906c-0.339-0.307-0.571-0.697-0.687-1.157
			c-0.121-0.464-0.179-1.189-0.179-2.214l-0.023-1.698v-1.618l1.333-1.458l4.807,5.973l0.47,0.536
			c0.427,0.468,0.644,0.915,0.644,1.333c0,0.385-0.178,0.69-0.522,0.904c-0.252,0.143-0.697,0.246-1.324,0.305l-0.029,0.001v0.535
			h10.29v-0.535l-0.03-0.001C106.305,34.979,105.762,34.781,105.236,34.507z"/>
		<path class="st3" d="M127.222,34.289c-0.35-0.181-0.662-0.48-0.93-0.895c-0.237-0.382-0.398-0.885-0.476-1.496
			c-0.083-0.613-0.124-1.667-0.124-3.227V16.494h-6.661v0.554l0.027,0.003c1.127,0.194,1.906,0.494,2.316,0.888
			c0.338,0.323,0.565,0.716,0.674,1.168c0.113,0.46,0.168,1.182,0.168,2.207l0.023,1.653v4.385c0,1.725-0.071,2.988-0.214,3.753
			c-0.139,0.75-0.427,1.423-0.854,1.997c-0.414,0.561-0.99,1.008-1.711,1.333c-0.72,0.323-1.506,0.486-2.335,0.486
			c-0.751,0-1.441-0.143-2.046-0.431c-0.602-0.288-1.071-0.686-1.394-1.188c-0.295-0.482-0.499-1.114-0.609-1.878
			c-0.113-0.756-0.17-1.949-0.17-3.546V16.494h-6.659v0.554l0.027,0.003c1.111,0.194,1.89,0.494,2.314,0.888
			c0.323,0.322,0.546,0.714,0.665,1.168c0.119,0.464,0.179,1.206,0.179,2.207l0.021,1.699v7.785c0,1.646,0.564,2.933,1.673,3.829
			c1.139,0.908,2.662,1.37,4.529,1.37c2.528,0,4.751-0.924,6.609-2.748c0.005,0.931,0.103,1.845,0.29,2.723L122.559,36l6.201-0.833
			l0.029-0.004v-0.53l-0.031-0.001C128.094,34.59,127.576,34.472,127.222,34.289z"/>
		<path class="st3" d="M139.326,24.468l-2.372-1.074c-1.096-0.488-1.916-1.031-2.44-1.617c-0.521-0.578-0.786-1.24-0.786-1.959
			c0-0.865,0.294-1.607,0.873-2.205c0.581-0.595,1.291-0.896,2.112-0.896c0.589,0,1.195,0.161,1.797,0.477
			c0.605,0.318,1.143,0.764,1.601,1.324c0.34,0.399,0.605,0.818,0.79,1.245c0.185,0.434,0.36,1.013,0.523,1.721l0.005,0.025h0.534
			l-0.248-5.119l-0.002-0.032h-0.5l-0.01,0.015c-0.247,0.437-0.51,0.656-0.781,0.656c-0.173,0-0.374-0.044-0.611-0.132l-0.765-0.335
			c-0.66-0.269-1.381-0.407-2.144-0.407c-1.706,0-3.096,0.561-4.13,1.669c-0.899,0.973-1.355,2.149-1.355,3.495
			c0,1.255,0.455,2.377,1.352,3.334c0.628,0.672,1.895,1.519,3.769,2.515c1.069,0.565,1.839,1.008,2.29,1.319
			c0.447,0.308,0.825,0.652,1.125,1.024c0.528,0.694,0.797,1.518,0.797,2.444c0,1.134-0.373,2.022-1.107,2.639
			c-0.677,0.558-1.489,0.842-2.417,0.842c-1.519,0-2.864-0.845-4.003-2.513c-0.621-0.922-1.145-2.171-1.558-3.71l-0.008-0.024
			h-0.418v6.403h0.412l0.01-0.016c0.259-0.436,0.65-0.656,1.158-0.656c0.2,0,0.371,0.019,0.509,0.057
			c0.13,0.034,0.53,0.181,1.184,0.436c1.017,0.386,2.033,0.582,3.019,0.582c1.827,0,3.344-0.607,4.509-1.8
			c1.018-1.033,1.535-2.352,1.535-3.919c0-1.303-0.355-2.447-1.058-3.405C141.816,25.92,140.743,25.11,139.326,24.468z"/>
		<path class="st3" d="M165.369,34.507c-0.491-0.268-0.917-0.55-1.271-0.841c-0.356-0.297-0.943-0.851-1.745-1.643
			c-0.013-0.015-1.474-1.521-1.943-2.037l-5.054-6.471l2.42-2.601l0.894-1.006c1.084-1.163,1.971-1.938,2.634-2.304
			c0.664-0.365,1.547-0.551,2.625-0.551h0.033v-0.56h-8.702v0.555l0.032,0.005c0.776,0.042,1.31,0.125,1.589,0.239
			c0.645,0.246,0.972,0.68,0.972,1.295c0,0.45-0.142,0.908-0.421,1.359c-0.283,0.452-0.848,1.155-1.678,2.089l-4.016,4.392V4.064
			l-6.497,0.811l-0.029,0.002v0.554l0.031,0.003c0.66,0.044,1.176,0.154,1.535,0.332c0.351,0.176,0.655,0.472,0.905,0.883
			c0.25,0.379,0.414,0.887,0.489,1.505c0.075,0.621,0.111,1.671,0.111,3.217v17.549c0,1.307-0.034,2.318-0.1,3.007
			c-0.066,0.679-0.181,1.197-0.346,1.54c-0.231,0.511-0.542,0.878-0.926,1.095c-0.383,0.212-1.028,0.378-1.917,0.496l-0.03,0.003
			v0.533h9.981v-0.532l-0.026-0.004c-1.108-0.204-1.879-0.508-2.294-0.906c-0.339-0.307-0.571-0.697-0.687-1.157
			c-0.12-0.464-0.178-1.189-0.178-2.214l-0.023-1.698v-1.618l1.332-1.458l4.808,5.973l0.469,0.536
			c0.425,0.466,0.641,0.913,0.641,1.333c0,0.385-0.176,0.69-0.521,0.904c-0.249,0.143-0.694,0.246-1.323,0.305l-0.03,0.001v0.535
			h10.292v-0.535l-0.03-0.001C166.443,34.979,165.899,34.781,165.369,34.507z"/>
		<path class="st3" d="M182.671,30.481l-0.01,0.032c-0.385,1.138-0.848,1.977-1.379,2.494c-0.472,0.473-1.075,0.846-1.788,1.112
			c-0.717,0.267-1.484,0.402-2.278,0.402c-1.078,0-2.123-0.241-3.105-0.713c-0.982-0.473-1.818-1.134-2.482-1.964
			c-0.648-0.811-1.169-1.846-1.547-3.079c-0.378-1.227-0.57-2.505-0.57-3.798c0-0.313,0.029-0.821,0.086-1.556h13.149V23.38
			c0-1.88-0.553-3.469-1.647-4.724c-0.701-0.806-1.574-1.43-2.59-1.856c-1.018-0.424-2.139-0.641-3.335-0.641
			c-2.239,0-4.262,0.704-6.009,2.088c-2.405,1.91-3.624,4.577-3.624,7.931c0,2.46,0.644,4.563,1.915,6.247
			c0.912,1.209,2.042,2.118,3.356,2.697c1.313,0.581,2.91,0.875,4.747,0.875c2.12,0,3.843-0.45,5.122-1.339
			c1.279-0.886,2.124-2.222,2.513-3.972l0.006-0.028L182.671,30.481z M174.773,16.718c0.749,0,1.464,0.212,2.126,0.63
			c0.663,0.425,1.2,1.006,1.594,1.726c0.438,0.793,0.716,1.936,0.821,3.398h-9.574c0.181-1.64,0.751-3.022,1.697-4.109
			C172.385,17.273,173.508,16.718,174.773,16.718z"/>
	</g>
</g>
</svg>
