<?xml version="1.0" encoding="utf-8"?>
<!-- Generator: Adobe Illustrator 24.2.3, SVG Export Plug-In . SVG Version: 6.00 Build 0)  -->
<svg version="1.1" id="レイヤー_1" xmlns="http://www.w3.org/2000/svg" xmlns:xlink="http://www.w3.org/1999/xlink" x="0px"
	 y="0px" width="260px" height="130px" viewBox="0 0 260 130" style="enable-background:new 0 0 260 130;" xml:space="preserve">
<style type="text/css">
	.st0{clip-path:url(#SVGID_2_);fill:#E62318;}
	.st1{clip-path:url(#SVGID_4_);}
	.st2{clip-path:url(#SVGID_6_);fill:#FFFFFF;}
	.st3{clip-path:url(#SVGID_8_);fill:#FFFFFF;}
	.st4{clip-path:url(#SVGID_10_);fill:#FFFFFF;}
	.st5{clip-path:url(#SVGID_12_);fill:#FFFFFF;}
	.st6{clip-path:url(#SVGID_14_);fill:#FFFFFF;}
	.st7{clip-path:url(#SVGID_16_);fill:#FFFFFF;}
	.st8{clip-path:url(#SVGID_18_);fill:#FFFFFF;}
	.st9{clip-path:url(#SVGID_20_);fill:#FFFFFF;}
	.st10{clip-path:url(#SVGID_22_);fill:#FFFFFF;}
	.st11{clip-path:url(#SVGID_24_);fill:#FFFFFF;}
	.st12{clip-path:url(#SVGID_26_);fill:#FFFFFF;}
	.st13{clip-path:url(#SVGID_28_);fill:#FFFFFF;}
	.st14{clip-path:url(#SVGID_30_);fill:#FFFFFF;}
	.st15{clip-path:url(#SVGID_32_);fill:#FFFFFF;}
	.st16{clip-path:url(#SVGID_34_);fill:#FFFFFF;}
	.st17{clip-path:url(#SVGID_36_);}
	.st18{clip-path:url(#SVGID_38_);}
	.st19{clip-path:url(#SVGID_40_);}
	.st20{clip-path:url(#SVGID_42_);}
	.st21{clip-path:url(#SVGID_44_);}
	.st22{clip-path:url(#SVGID_46_);}
	.st23{clip-path:url(#SVGID_48_);fill:#FFFFFF;}
	.st24{fill:#DCDC32;}
</style>
<g id="レイヤー_1_1_">
</g>
<g>
	<g>
		<g>
			<g>
				<path d="M112.5,81.7c-0.4-0.2-0.7-0.4-0.7-0.7c0-0.2,0.1-0.5,0.4-0.5c0.3,0,0.7,0.3,0.8,0.8l0,0.1l0.1,0l0,0
					c0.2,0,0.2-0.1,0.2-0.1c0-0.3,0-0.9-0.2-1c-0.2-0.1-0.5-0.2-0.8-0.2c-0.9,0-1.4,0.6-1.4,1.2c0,0.6,0.5,0.9,1,1.2
					c0.4,0.2,0.8,0.4,0.8,0.8c0,0.4-0.2,0.5-0.5,0.5c-0.5,0-0.8-0.4-1-1l0-0.1c0,0,0-0.1-0.2-0.1c-0.1,0-0.2,0.1-0.2,0.2
					c0,1,0,1.1,0.1,1.1c0.3,0.2,0.7,0.3,1.1,0.3c0.8,0,1.4-0.6,1.4-1.3C113.5,82.3,113,82,112.5,81.7z"/>
				<path d="M115.5,79.1c0.3,0,0.5-0.2,0.5-0.5c0-0.3-0.2-0.5-0.5-0.5c-0.3,0-0.5,0.2-0.5,0.5C115,78.9,115.3,79.1,115.5,79.1z"/>
				<path d="M116.4,83.8L116.4,83.8c-0.6-0.1-0.6-0.1-0.6-0.7v-1.6c0-0.3,0-1.1,0.1-1.3c0-0.1-0.1-0.2-0.2-0.2l-0.1,0l0,0
					c-0.3,0.3-0.7,0.5-1.1,0.7l-0.1,0c-0.1,0-0.1,0.1-0.1,0.2c0,0.1,0.1,0.1,0.2,0.1l0,0c0.1,0,0.2-0.1,0.3-0.1c0.1,0,0.1,0,0.1,0.5
					v1.5c0,0.6,0,0.6-0.6,0.7l-0.1,0l0,0.1c0,0.1,0,0.2,0,0.2l0.1,0.1h0.1c0.2,0,0.5,0,1,0c0.4,0,0.7,0,0.9,0l0,0l0.1,0l0-0.1l0-0.1
					C116.5,83.8,116.5,83.8,116.4,83.8z"/>
				<path d="M121.6,83.8c-0.6,0-0.6-0.1-0.6-0.7v-1.8c0-0.8-0.3-1.2-1-1.2c-0.4,0-0.8,0.2-1.5,0.6c0-0.3,0-0.4,0-0.5
					c0-0.1-0.1-0.2-0.2-0.2l-0.1,0l0,0c-0.3,0.3-0.7,0.6-1.1,0.8c0,0-0.1,0.1-0.1,0.2c0,0.1,0.1,0.1,0.2,0.1l0,0
					c0.1,0,0.2-0.1,0.3-0.1c0.1,0,0.1,0,0.1,0.5v1.5c0,0.6,0,0.6-0.6,0.7l-0.1,0l0,0.1c0,0,0,0.2,0,0.2l0.1,0.1h0.1c0.3,0,0.7,0,1,0
					c0.2,0,0.6,0,0.8,0l0,0h0c0.1,0,0.2-0.1,0.2-0.2c0-0.1-0.1-0.2-0.1-0.2l0,0c-0.4,0-0.5,0-0.5-0.7v-1.9c0.6-0.4,0.8-0.4,1.1-0.4
					c0.4,0,0.5,0.1,0.5,1v1.4c0,0.6-0.1,0.6-0.4,0.7l-0.1,0l0,0.1c0,0.1,0,0.2,0,0.2l0.1,0.1h0.1c0.2,0,0.5,0,0.9,0
					c0.3,0,0.8,0,0.9,0l0,0l0.1,0l0-0.1l0-0.1C121.7,83.8,121.6,83.8,121.6,83.8z"/>
				<path d="M125.1,83.2L125.1,83.2L125.1,83.2c-0.4,0.3-0.7,0.4-1.1,0.4c-0.5,0-1.2-0.4-1.2-1.6c0-1.1,0.5-1.2,0.9-1.2
					c0.3,0,0.5,0.1,0.6,0.2c0.2,0.1,0.3,0.2,0.4,0.2c0.2,0,0.4-0.4,0.4-0.6c0-0.2-0.4-0.4-0.8-0.4c-1.3,0-2.5,1-2.5,2.3
					c0,1.1,0.8,1.9,1.8,1.9c0.8,0,1.4-0.5,1.6-0.7c0,0,0.1-0.1,0-0.2C125.3,83.3,125.2,83.2,125.1,83.2z"/>
				<path d="M129.3,81.8L129.3,81.8c0-0.2,0.1-0.3,0.1-0.3c0-0.6-0.5-1.3-1.5-1.3c-1,0-2,1.1-2,2.2c0,1.1,0.8,1.9,1.8,1.9
					c0.6,0,1.2-0.3,1.6-0.7l0.1-0.1l0-0.1c0,0-0.1-0.1-0.2-0.1h0l0,0c-0.3,0.2-0.7,0.4-1.1,0.4c-0.6,0-1.2-0.4-1.2-1.6
					c0-0.1,0-0.1,0-0.2L129.3,81.8z M127.6,80.6c0.5,0,0.7,0.4,0.8,0.8l-1.6,0C127,80.9,127.3,80.6,127.6,80.6z"/>
				<path d="M135,80c0.1,0,0.1-0.1,0.1-0.2c0-0.1-0.1-0.2-0.2-0.2h0c-0.2,0-0.7,0-1,0c-0.2,0-0.9,0-1.2,0l0,0l-0.1,0l0,0.1l0,0.1
					c0,0.1,0.1,0.2,0.1,0.2h0c0.6,0.1,0.7,0.1,0.7,0.7V83c0,0.7-0.1,0.7-0.7,0.7l-0.1,0l0,0.1c0,0.1,0,0.2,0,0.2l0.1,0.1h0.1
					c0.2,0,0.8,0,1.2,0c0.3,0,0.9,0,1,0l0,0c0.1,0,0.2-0.1,0.2-0.2c0-0.1-0.1-0.2-0.1-0.2h0c-0.6-0.1-0.7-0.1-0.7-0.7v-2.3
					C134.3,80.1,134.5,80.1,135,80z"/>
				<path d="M139,80.7c0.7-0.4,1-0.9,1-1.5c0-0.8-0.7-1.4-1.5-1.4c-1,0-1.8,0.7-1.8,1.7c0,0.7,0.4,1.1,0.9,1.4
					c-0.8,0.4-1.3,1-1.3,1.6c0,0.9,0.8,1.6,1.8,1.6c1.1,0,2-0.8,2-1.9C140.1,81.6,139.6,81.1,139,80.7z M138.5,80.4
					c-0.6-0.4-1.1-0.7-1.1-1.3c0-0.5,0.3-0.8,0.8-0.8c0.5,0,0.9,0.4,0.9,1C139.1,79.8,138.9,80.2,138.5,80.4z M138.1,81.3
					L138.1,81.3c0.6,0.4,1.2,0.8,1.2,1.5c0,0.6-0.4,1-1.1,1c-0.5,0-1-0.4-1-1.1C137.2,82,137.4,81.6,138.1,81.3z"/>
				<path d="M143.6,80.7c0.7-0.4,1-0.9,1-1.5c0-0.8-0.7-1.4-1.5-1.4c-1,0-1.8,0.7-1.8,1.7c0,0.7,0.4,1.1,0.9,1.4
					c-0.8,0.4-1.3,1-1.3,1.6c0,0.9,0.8,1.6,1.8,1.6c1.1,0,2-0.8,2-1.9C144.7,81.6,144.2,81.1,143.6,80.7z M143.1,80.4
					c-0.6-0.4-1.1-0.7-1.1-1.3c0-0.5,0.3-0.8,0.8-0.8c0.5,0,0.9,0.4,0.9,1C143.8,79.8,143.6,80.2,143.1,80.4z M142.7,81.3
					L142.7,81.3c0.6,0.4,1.2,0.8,1.2,1.5c0,0.6-0.4,1-1.1,1c-0.5,0-1-0.4-1-1.1C141.8,82,142.1,81.6,142.7,81.3z"/>
				<path d="M149.2,82.7c0,0,0-0.1-0.2-0.1c-0.2,0-0.2,0.1-0.2,0.1c0,0.5-0.1,0.5-0.9,0.5H147c0.9-0.6,1.6-1.5,1.6-2.3
					c0-0.8-0.6-1.4-1.4-1.4c-0.6,0-1.1,0.3-1.5,1c0,0.1,0,0.1,0,0.2c0,0,0.1,0.1,0.2,0.1l0.1,0l0,0c0.3-0.3,0.6-0.5,1-0.5
					c0.5,0,0.8,0.4,0.8,1c0,0.9-0.7,1.6-2.3,2.5c-0.1,0-0.1,0.1-0.1,0.2c0,0.1,0.1,0.2,0.2,0.2l0,0c0.6,0,1.1,0,1.8,0
					c0.3,0,0.7,0,0.9,0c0.2,0,0.4,0,0.5,0c0.2,0,0.2-0.1,0.3-0.2C149.2,83.8,149.3,83,149.2,82.7z"/>
			</g>
			<g>
				<g>
					<g>
						<path d="M110.9,23.2l-5.8,1.2l-0.5-0.6c-2.1,3.2,0,6.9,0,6.9l0.3-0.3c0.2,0.2,1.1,0.3,1.1,0.3l3.9-0.3l0.8,0.8
							c0.8-0.1,1.8-1,2-1.5c0.2-0.4,0.6-4.6,0.6-4.6L110.9,23.2z M106.6,25.7v1l-0.9,0.2l0-1.1L106.6,25.7z M105.6,29.3l0.1-1.2
							l0.9,0l0,1.1L105.6,29.3z M110.1,28.9l-2-0.1l0.1-1c0,0,1.5-0.5,1.6-0.9c0.1-0.4-0.6-0.8-0.6-0.8l-0.8,0l0-0.9
							c0.1-0.1,0.9-0.4,1.3-0.4c0.4,0,0.5,0.2,0.5,0.2L110.1,28.9z"/>
						<path d="M105.8,23.2C105.8,23.2,105.8,23.2,105.8,23.2C105.8,23.2,105.8,23.2,105.8,23.2z"/>
						<path d="M105.6,17.6c0.1,0.3,0.5,0.6,0.5,0.6c0.5-0.2,3.6-0.7,4.4-0.9c0.7-0.2,1.1-0.7,1.1-0.7c0.1-0.4,0.5-0.8,0.5-0.8
							c0.1-0.5-0.9-1-0.9-1c-0.6,0.3-5.8,0.6-5.8,0.6C104,16.9,105.6,17.6,105.6,17.6z"/>
						<path d="M106.5,22.8c0.9-0.4,2.9-0.5,2.9-0.5l1,0.1c0,0,1.5-1.1,1.5-2c0-1-1.6-2.3-1.8-2.1c-0.2,0.2-3.7,0.9-3.7,0.9l-0.5-0.2
							c-0.2,0.2-0.5,0.2-0.6,0.4c-0.8,1.6,0.5,3.6,0.6,3.8C105.8,23.2,105.9,23.1,106.5,22.8z M109,19.8V21l-2.4,0.5l-0.1-0.9
							C106.5,20.6,108.7,19.8,109,19.8z"/>
						<path d="M104.5,23.2c0.3-1.3-1.6-1.9-1.6-1.9c0.2-0.2,1-1.9,0.7-2.2c-0.3-0.3-0.5-0.9-1.2-1.3c-0.8-0.3-1.5,0.3-1.5,0.3
							c-1.2,1.5-4.2,2.3-4.2,2.3c-0.5,0.2-0.4,0.9-0.4,0.9c0.5,0.1,1.1,1.3,1.7,1.3h0.9L96,28.9c0.1-0.3,1.2-0.9,1.2-0.9
							c1.1-0.1,1.8-1.2,1.8-1.2l0.7-0.3l0.7-0.7c0,1.4-0.4,4.1-0.4,4.1l0.5,1l0.3-0.1c0,0-0.1,0.5,0.6,0.4c0.7-0.1,1.1-0.7,1.1-0.7
							l0.3-6.9C102.8,23.7,104.2,24.5,104.5,23.2z"/>
						<path d="M101.6,17.1c0.6,0.3,1.6,0.7,2.2,0c0.6-0.7,0.2-1.9-0.1-2.3c-0.3-0.5-1.1-0.5-1.9-0.5c-0.8-0.1-2.4,0.5-2.4,0.5
							C99.4,16.1,101,16.8,101.6,17.1z"/>
					</g>
					<path d="M163.7,22.3c0-1.1-1.9-3.1-2.3-3.2c-0.2-0.1-0.6-0.1-1.1,0c0.6-1,1.1-1.9,1.2-2c0.2-0.2,0.1-0.8,0-1
						c-0.1-0.2-0.3-0.9-0.3-0.9s-0.5-0.6-1-0.7c-0.5,0-1.4,0.7-1.4,0.7s0.1,0.6,0.1,0.9c-0.2,0.9-0.6,2.2-1,3.5c0,0,0,0,0,0
						c-2.3,0.7-2.3,1-2.3,1l-0.4,0.6c0.3,1.1,1.3,1.5,1.3,1.5s0,0,0.1,0c-0.7,1.5-1.4,2.7-1.9,3.3c-0.1,0.2-0.3,0.4-0.4,0.6
						c0.1-3.8,0.3-8.9,0.5-9.1h-0.1c0,0,0,0,0-0.1c-0.2-0.6-1.5-2.1-2-2.1c-0.4,0-0.7,0.5-0.7,0.5l-2,0.9c0,0,0,0.1,0.1,0.2
						c-0.3-0.5-0.5-0.7-0.5-0.7c-0.1,0-1.1,0.5-1,0.9c0,0.4-0.2,1.3-0.4,1.4c-0.2,0.1-0.1,7.7,0.1,7.9c0.2,0.2,0.3,0.6,0.4,0.8
						c-1.1,0.4-2.1,0.9-2.3,0.9c-0.3,0.2-0.6,0.8-0.6,0.8s0.8,0.7,1.5,0.7c0.7,0,3.6-1.8,5.1-1.9l-0.1,2.6c0,0,0.4,0.7,0.6,0.9
						c0.1,0.3,0.3,0.3,0.5,0.3c0.2,0,0.9-0.6,0.9-0.8c0-0.1,0-1,0.1-2.3c0.1-0.1,0.3-0.2,0.3-0.2l0.8-0.1c0.2-0.2,0.5-0.5,0.8-0.9
						c0.2,0.1,1.3,0.5,1.3,0.5l-0.4,0.2c1.9,0.5,0.6,2,0.6,2c0.6,0.1,0.6,0.6,1.3,0.6c0.7,0,1.6-0.3,1.6-0.3
						C163.4,28.9,163.7,23.4,163.7,22.3z M152.1,25.9l-0.7,0c0,0-0.6,0.2-1.4,0.6c0-0.3,0.1-1.1,0.2-2c0.7-0.2,1.9-0.6,1.9-0.6
						s0-0.1,0-0.1L152.1,25.9z M152.2,22.7c0-0.1,0-0.2,0-0.2c-0.1-0.2-0.5-0.2-0.6-0.2c-0.1,0-0.7,0.3-1.2,0.6c0-0.5,0.1-1,0.1-1.5
						c0.6-0.2,1.5-0.5,1.7-0.6L152.2,22.7z M152.3,19.4c-0.1-0.2-0.5-0.2-0.6-0.2c-0.1,0-0.7,0.3-1.1,0.5c0-0.3,0-0.5,0-0.7
						c0-0.2-0.1-0.4-0.1-0.6c0,0,0.1,0.1,0.1,0c0.3-0.3,1.6-1,1.6-1s0,0,0.1,0L152.3,19.4z M159,27.4c-0.5,0.2-2-0.4-2.8-0.8
						c0.9-1.5,2-3.7,2.5-4.8c0,0,0.1,0,0.1,0c0.8-0.2,1.8-0.5,1.9,0C160.9,23.1,159.7,27.1,159,27.4z"/>
					<g>
						<g>
							<g>
								<g>
									<defs>
										<path id="SVGID_1_" d="M117.6,22c0,6.9,5.6,12.5,12.5,12.5c6.9,0,12.5-5.6,12.5-12.5c0-6.9-5.6-12.5-12.5-12.5
											C123.1,9.5,117.6,15.1,117.6,22"/>
									</defs>
									<clipPath id="SVGID_2_">
										<use xlink:href="#SVGID_1_"  style="overflow:visible;"/>
									</clipPath>
									<path class="st0" d="M142.5,22c0,6.9-5.6,12.5-12.5,12.5c-6.9,0-12.5-5.6-12.5-12.5c0-6.9,5.6-12.5,12.5-12.5
										C136.9,9.5,142.5,15.1,142.5,22"/>
								</g>
							</g>
						</g>
						<g>
							<g>
								<g>
									<defs>
										<path id="SVGID_3_" d="M117.6,22c0,6.9,5.6,12.5,12.5,12.5c6.9,0,12.5-5.6,12.5-12.5c0-6.9-5.6-12.5-12.5-12.5
											C123.1,9.5,117.6,15.1,117.6,22"/>
									</defs>
									<clipPath id="SVGID_4_">
										<use xlink:href="#SVGID_3_"  style="overflow:visible;"/>
									</clipPath>
									<path class="st1" d="M142.5,28c0-0.1,0-0.1-0.1-0.2c-0.1-0.1-0.2-0.3-0.3-0.4c-0.1-0.1-0.2-0.1-0.2-0.2c0,0,0,0-0.1-0.1
										c0,0-0.1,0-0.1-0.1c-0.1,0-0.1-0.1-0.2-0.1c0,0-0.1,0-0.1-0.1c-0.1,0-0.1-0.1-0.1-0.1c-0.2-0.1-0.4-0.2-0.5-0.3
										c-0.1-0.1-0.2-0.1-0.3-0.2c-0.2-0.1-0.5-0.2-0.7-0.3c-0.2-0.1-0.5-0.2-0.7-0.3c0,0-0.1,0-0.1-0.1c0,0-0.1,0-0.1,0
										c-0.1,0-0.2-0.1-0.4-0.1c-0.1,0-0.1-0.1-0.2-0.1c-0.1,0-0.3-0.1-0.4-0.1c0,0-0.1-0.1-0.1-0.1c0-0.1,0-0.2,0.1-0.3
										c0.1-0.1,0.2-0.2,0.2-0.2c0.1-0.2,0.3-0.3,0.4-0.5c0.2-0.3,0.4-0.6,0.5-0.9c0,0,0.1-0.1,0.1-0.1c0-0.1,0.1-0.2,0.1-0.3
										c0.1-0.1,0.1-0.3,0.2-0.4c0,0,0-0.1,0.1-0.1c0,0,0-0.1,0-0.1c0-0.1,0-0.1,0.1-0.2c0-0.1,0-0.2,0.1-0.3c0-0.1,0-0.1,0.1-0.2
										c0,0,0-0.1,0-0.1c0,0,0-0.1,0-0.1c0,0,0-0.1,0-0.1c0-0.1-0.1-0.1-0.2-0.1c-0.1-0.1-0.2-0.2-0.4-0.2
										c-0.1-0.1-0.2-0.1-0.3-0.2c-0.2-0.1-0.3-0.2-0.5-0.3c0,0-0.1,0-0.1-0.1c-0.3-0.2-0.6-0.4-0.9-0.6c-0.1-0.1-0.3-0.2-0.4-0.3
										c-0.2-0.1-0.4-0.2-0.6-0.3c-0.1-0.1-0.2-0.1-0.2-0.2c0,0,0-0.1,0-0.1c0-0.1,0-0.2,0-0.3c0-0.1,0-0.3,0-0.5
										c0-0.1,0-0.3,0-0.4c0-0.1,0-0.2,0-0.3c0-0.1,0-0.2,0-0.2c0-0.1,0-0.2,0-0.3c0-0.1,0-0.3-0.1-0.4c0-0.1-0.1-0.2-0.1-0.3
										c0,0,0-0.1,0-0.1c0-0.1-0.1-0.3-0.2-0.4c0-0.1-0.1-0.1-0.1-0.2c0-0.1-0.1-0.1-0.1-0.2c0,0,0-0.1-0.1-0.1
										c0,0-0.1-0.1-0.1-0.1c0-0.1-0.1-0.1-0.1-0.2c-0.1-0.1-0.1-0.2-0.2-0.3c-0.1-0.1-0.1-0.1-0.2-0.2c0,0,0-0.1-0.1-0.1
										c0,0-0.1-0.1-0.1-0.1c0,0-0.1-0.1-0.1-0.1c0,0-0.1-0.1-0.1-0.1c-0.1-0.1-0.2-0.2-0.3-0.2c-0.2-0.1-0.3-0.2-0.5-0.4
										c-0.1-0.1-0.2-0.1-0.3-0.2c-0.1,0-0.1-0.1-0.2-0.1c-0.1,0-0.1,0-0.2-0.1c-0.3-0.1-0.6-0.3-0.9-0.4c-0.1,0-0.2-0.1-0.3-0.1
										c-0.1,0-0.3-0.1-0.4-0.1c-0.1,0-0.2,0-0.2,0c-0.1,0-0.2,0-0.3-0.1c-0.1,0-0.2,0-0.3,0c-0.1,0-0.1,0-0.1-0.1
										c-0.1-0.1-0.1-0.2-0.1-0.3c0,0,0-0.1,0-0.1c0-0.1-0.1-0.2-0.2-0.2v0c-0.2,0-0.2,0.3-0.2,0.4c0,0,0,0.1-0.1,0.1
										c0,0-0.1,0.1-0.1,0.1c0,0,0,0,0,0c-0.1,0-0.2,0-0.2,0c0,0,0,0,0,0c0,0-0.1,0-0.1,0c0,0-0.1,0-0.1,0c0,0-0.1,0-0.1,0
										c0,0,0,0,0,0c0,0-0.1,0-0.1,0c0,0-0.2,0-0.2,0c0,0-0.1,0-0.1,0c-0.1,0-0.1,0-0.2,0c-0.2,0-0.4,0.1-0.6,0.2c0,0-0.1,0-0.1,0
										c-0.1,0-0.2,0.1-0.3,0.1c-0.1,0-0.2,0.1-0.3,0.1c-0.1,0-0.1,0.1-0.2,0.1c-0.1,0-0.1,0.1-0.2,0.1c-0.1,0-0.1,0.1-0.2,0.1
										c-0.1,0.1-0.3,0.2-0.4,0.3c-0.1,0-0.1,0.1-0.2,0.1c-0.1,0.1-0.1,0.1-0.2,0.2c-0.4,0.4-0.8,0.8-1,1.3
										c-0.1,0.1-0.2,0.3-0.2,0.4c0,0,0,0.1-0.1,0.1c0,0.1-0.1,0.2-0.1,0.2c-0.1,0.3-0.2,0.6-0.2,0.9c0,0.1,0,0.1,0,0.2
										c0,0,0,0.1,0,0.2c0,0,0,0.1,0,0.1c0,0.2,0,0.4,0,0.6v0.2c0,0.1,0,0.2,0,0.4c0,0.1,0,0.2,0,0.3c0,0.1,0,0.2,0,0.2
										c0,0,0,0.1-0.1,0.1c0,0-0.1,0.1-0.1,0.1c-0.1,0.1-0.1,0.1-0.2,0.2c-0.2,0.1-0.3,0.2-0.5,0.3c-0.3,0.2-0.7,0.5-1,0.7
										c-0.2,0.1-0.4,0.2-0.5,0.4c0,0-0.1,0-0.1,0c-0.1,0-0.1,0.1-0.2,0.1c-0.2,0.1-0.4,0.2-0.5,0.4c-0.1,0.1-0.2,0.1-0.3,0.2
										c0,0-0.1,0.1-0.1,0.1c0,0.1,0,0.2,0.1,0.3c0.1,0.2,0.1,0.4,0.2,0.6c0,0.1,0.1,0.1,0.1,0.2c0,0.1,0,0.1,0.1,0.2
										c0,0,0,0.1,0.1,0.1c0.1,0.1,0.1,0.3,0.2,0.4c0,0.1,0.1,0.1,0.1,0.2c0,0.1,0.1,0.1,0.1,0.2c0,0.1,0.1,0.2,0.1,0.3
										c0,0.1,0.1,0.1,0.1,0.2c0,0.1,0.1,0.2,0.1,0.2c0.1,0.1,0.1,0.2,0.2,0.3c0.1,0.1,0.1,0.1,0.2,0.2c0.1,0.1,0.2,0.1,0.2,0.2
										c0,0,0,0.1,0,0.1c0,0.1,0,0.1,0,0.2c0,0.1-0.1,0.3-0.2,0.4c0,0-0.1,0.1-0.1,0.1c-0.1,0-0.2,0-0.3,0c-0.1,0-0.1,0-0.2,0
										c-0.1,0-0.1,0-0.2,0c-0.2,0-0.4,0.3-0.5,0.4c-0.1,0.1-0.2,0.2-0.3,0.3c0,0-0.1,0.1-0.1,0.1c0,0-0.1,0-0.1,0.1
										c-0.1,0-0.2,0-0.3,0c0,0-0.1,0-0.1,0c-0.1,0-0.1,0-0.2,0c-0.1,0-0.2,0-0.3,0c0,0-0.2,0-0.2,0c0,0,0,0-0.1,0
										c-0.2,0-0.3,0.1-0.4,0.2c0,0,0,0-0.1,0c-0.1,0-0.2,0-0.3-0.1c-0.1,0-0.3,0-0.4-0.1c-0.1,0-0.1,0-0.2,0
										c-0.1,0-0.2-0.1-0.3,0c-0.4,0-0.1,0.5,0,0.7c0,0,0,0.1,0.1,0.1c0,0,0.1,0.1,0.1,0.1c0,0,0.1,0.1,0.1,0.1
										c0,0.1,0.1,0.1,0.1,0.2c0.1,0.1,0.2,0.3,0.3,0.4c0.1,0,0.1,0.1,0.2,0.1c0.1,0,0.2,0.1,0.2,0.1c0,0.1,0,0.1,0.1,0.2
										c0,0.1,0,0.1,0.1,0.2c0,0.1,0.1,0.2,0.1,0.3c0,0,0.1,0.1,0.1,0.1c0,0,0.1,0.1,0.1,0.1c0,0,0,0.1,0,0.2c0,0.1,0,0.1,0.1,0.2
										c0.1,0.1,0.4-0.1,0.5-0.1c0.1,0,0.2-0.1,0.3-0.1c0.1,0,0.2-0.1,0.3-0.1c0.1,0,0.2,0,0.2,0.1c0.2,0,0.3,0.1,0.5,0.1
										c0.1,0,0.1,0,0.2,0c0.1,0,0.3,0,0.4,0.1c0.1,0,0.2,0,0.3,0c0.1,0,0.1,0,0.2,0c0.1,0,0.1,0,0.2,0c0,0,0.1,0,0.2,0
										c0.1,0,0.1,0,0.2,0c0.1,0,0.2,0,0.4,0c0.1,0,0.1,0,0.2,0c0.1,0,0.2,0,0.3,0c0.1,0,0.3,0,0.4,0c0.1,0,0.1,0,0.2,0
										c0.1,0,0.2,0,0.4,0c0.1,0,0.1,0,0.2-0.1c0.1,0,0.1-0.1,0.2-0.1c0,0,0,0,0,0c0.1,0,0.1,0.1,0.2,0.1c0.1,0,0.1,0.1,0.2,0.1
										c0.1,0,0.2,0.1,0.2,0.1c0.1,0,0.1,0,0.2,0.1c0,0,0,0,0,0c0,0.1,0,0.2,0,0.2c0,0,0,0.1,0.1,0.2c0.1,0.1,0.2,0.2,0.3,0.3
										c0.1,0.1,0.2,0.1,0.3,0.2c0.1,0.1,0.2,0.2,0.4,0.2c0.3,0,0.5,0,0.8,0c0.1,0,0.1,0,0.2,0c0.1,0,0.3,0,0.4-0.1
										c0.1,0,0.3-0.2,0.4-0.2c0.1,0,0.1,0,0.2,0c0.1,0,0.1,0,0.1,0c0,0,0.1,0,0.1,0c0.1,0,0.1,0,0.2,0c0.1,0,0.2-0.1,0.2-0.1
										c0.1-0.1,0.1-0.2,0.2-0.2c0.1,0,0.2,0,0.3,0c0.1,0,0.3,0,0.4,0c0.1,0,0.1,0,0.2,0c0.1,0,0.1,0,0.2,0.1c0.1,0,0.2,0,0.2,0
										c0.1,0,0.1,0,0.2,0c0,0,0.1,0,0.1,0h0.2c0.1,0,0.3,0,0.4,0c0,0,0.1,0,0.1,0c0,0,0.1,0,0.1,0c0.1,0,0.2-0.1,0.3-0.2
										c0,0,0.1,0,0.1-0.1c0.1-0.1,0.3-0.2,0.4-0.3c0.1-0.1,0.1-0.1,0.1-0.2c0,0,0-0.1,0-0.1c0,0,0.1,0,0.1,0c0,0,0.1,0,0.1,0h0.2
										c0,0,0.1,0,0.1,0c0.1,0,0.3,0,0.4,0c0.1,0,0.2,0,0.3-0.1c0.1,0,0.1,0,0.2,0c0.1-0.1,0.2-0.1,0.3-0.1c0.1,0,0.2,0.1,0.3,0.1
										c0,0,0.1,0,0.1,0c0.1,0,0.2,0,0.3,0c0.3,0,0.5,0,0.7,0c0.2,0,0.5,0,0.7,0c0.1,0,0.3,0,0.4,0c0.2,0,0.3,0,0.5,0
										c0.1,0,0.2,0,0.3,0c0.1,0,0.2,0,0.4,0c0.2,0,0.4-0.1,0.6-0.1c0.1,0,0.2,0,0.2-0.1c0.1,0,0.2-0.1,0.2-0.2
										c0.1-0.1,0.1-0.2,0.2-0.2c0.1,0,0.2,0,0.3,0c0.1,0,0.2,0,0.4-0.1c0.1,0,0.1,0,0.2,0c0,0,0.1,0,0.1,0c0.1,0,0.2-0.1,0.3-0.1
										c0.1,0,0.1,0,0.2-0.1c0.1,0,0.1,0,0.2-0.1c0,0,0.1,0,0.1-0.1c0.1,0,0.1-0.1,0.2-0.1c0.1,0,0.1,0,0.1-0.1
										c0.1,0,0.2-0.1,0.3-0.2C142.5,28.1,142.5,28,142.5,28"/>
								</g>
							</g>
						</g>
						<g>
							<g>
								<g>
									<defs>
										<path id="SVGID_5_" d="M117.6,22c0,6.9,5.6,12.5,12.5,12.5c6.9,0,12.5-5.6,12.5-12.5c0-6.9-5.6-12.5-12.5-12.5
											C123.1,9.5,117.6,15.1,117.6,22"/>
									</defs>
									<clipPath id="SVGID_6_">
										<use xlink:href="#SVGID_5_"  style="overflow:visible;"/>
									</clipPath>
									<path class="st2" d="M138.7,21.9c0.1-0.1,0.2-0.2,0.3-0.2c0,0,0.1,0,0.1,0c0.1,0.1-0.1,0.5-0.2,0.6c0,0,0,0.1-0.1,0.1
										c0,0.1,0,0.1-0.1,0.2c0,0.1-0.1,0.1-0.1,0.2c0,0.1-0.1,0.2-0.1,0.3c0,0,0,0.1-0.1,0.1c0,0.1-0.1,0.1-0.1,0.2
										c0,0.1-0.1,0.2-0.1,0.2c-0.1,0.1-0.1,0.3-0.2,0.4c-0.1,0.1-0.3,0.6-0.5,0.5c-0.1-0.1-0.1-0.4-0.1-0.5c0-0.1,0-0.1,0-0.2
										c0-0.1-0.1-0.2-0.1-0.3c0,0,0-0.1,0-0.1c0-0.1-0.1-0.2-0.1-0.2c0-0.1,0.1-0.1,0.1-0.2c0.1-0.1,0.2-0.2,0.3-0.3
										c0.1-0.1,0.2-0.2,0.4-0.3c0-0.1,0.1-0.1,0.2-0.1C138.4,22.1,138.6,22,138.7,21.9"/>
								</g>
							</g>
						</g>
						<g>
							<g>
								<g>
									<defs>
										<path id="SVGID_7_" d="M117.6,22c0,6.9,5.6,12.5,12.5,12.5c6.9,0,12.5-5.6,12.5-12.5c0-6.9-5.6-12.5-12.5-12.5
											C123.1,9.5,117.6,15.1,117.6,22"/>
									</defs>
									<clipPath id="SVGID_8_">
										<use xlink:href="#SVGID_7_"  style="overflow:visible;"/>
									</clipPath>
									<path class="st3" d="M136.1,23.3c0.1-0.1,0.2-0.1,0.3-0.2c0.3-0.2,0.5-0.4,0.8-0.6c0.1-0.1,0.2-0.1,0.3-0.2
										c0,0,0.1,0,0.1-0.1c0.2-0.1,0.3-0.2,0.5-0.3c0.1,0,0.1-0.1,0.2-0.1c0,0,0,0,0,0.1c0,0.1-0.1,0.1-0.1,0.1
										c-0.2,0.2-0.3,0.3-0.5,0.4c-0.1,0.1-0.2,0.2-0.4,0.3c-0.1,0.1-0.3,0.2-0.4,0.3c-0.1,0.1-0.2,0.1-0.3,0.2
										c-0.1,0.1-0.2,0.1-0.3,0.2c-0.1,0.1-0.2,0.2-0.3,0.2c-0.1,0-0.1,0.1-0.2,0.1c-0.1,0.1-0.2,0.2-0.4,0.3c0,0-0.1,0-0.1,0.1v0
										c0,0,0,0,0,0c0-0.1,0.1-0.1,0.2-0.2c0.1-0.1,0.1-0.1,0.2-0.2C135.8,23.5,136,23.4,136.1,23.3"/>
								</g>
							</g>
						</g>
						<g>
							<g>
								<g>
									<defs>
										<path id="SVGID_9_" d="M117.6,22c0,6.9,5.6,12.5,12.5,12.5c6.9,0,12.5-5.6,12.5-12.5c0-6.9-5.6-12.5-12.5-12.5
											C123.1,9.5,117.6,15.1,117.6,22"/>
									</defs>
									<clipPath id="SVGID_10_">
										<use xlink:href="#SVGID_9_"  style="overflow:visible;"/>
									</clipPath>
									<path class="st4" d="M124.3,20.6c0,0,0.2-0.2,0.2-0.1c0,0,0,0.1,0,0.2c0,0.1,0,0.2,0,0.3c0,0.1,0,0.1,0.1,0.2
										c0.1,0.3,0.3,0.6,0.6,0.6c0.1,0,0.1,0,0.2,0c0.1,0,0.1-0.1,0.1-0.2c0-0.1-0.1-0.1-0.1-0.2c0,0,0-0.1-0.1-0.1
										c-0.1-0.1-0.1-0.2-0.1-0.4c0-0.1,0-0.1,0-0.2c0,0,0.1-0.2,0-0.3c-0.1-0.1-0.3,0.3-0.3,0.4c0,0.1,0,0.2,0,0.2
										c0,0,0,0.1-0.1,0c-0.1,0-0.1-0.1-0.1-0.1c0-0.2,0-0.3,0-0.5c0-0.1,0.1-0.1,0.1-0.2c0-0.1,0.2-0.2,0.1-0.3
										c0-0.2-0.4,0.3-0.3,0c0-0.1,0.1-0.4,0.2-0.4c0.2-0.2,0.5,0.1,0.7,0.3c0.1,0.1,0.1,0.1,0.2,0.2c0.1,0,0.1-0.1,0.2-0.1
										c0.1-0.1,0.1-0.2,0.2-0.2c0-0.1,0.1-0.2,0.1-0.3c0,0,0-0.1,0-0.1c0-0.1,0-0.2,0-0.3c0-0.1,0-0.1,0-0.2c0-0.1,0-0.2,0-0.4
										c0-0.1,0-0.1,0-0.2c0-0.1,0-0.3-0.1-0.3l0,0c0,0-0.1,0-0.1,0c-0.1,0-0.1,0.1-0.2,0.2c-0.1,0.1-0.2,0.2-0.3,0.2
										c-0.1,0-0.1,0-0.2,0.1c0,0-0.1,0-0.1,0c0,0,0,0,0,0c0,0-0.1,0-0.1,0c0,0,0,0-0.1,0c-0.2,0-0.4,0-0.5-0.1
										c-0.1,0-0.1-0.1-0.2-0.2c-0.1-0.1-0.1-0.2-0.2-0.3c0-0.1,0-0.1,0-0.2c0-0.1,0-0.2,0-0.2c0-0.1,0-0.1,0-0.2
										c0-0.1,0-0.3,0-0.4c0-0.1,0.1-0.2,0.1-0.3c0,0,0-0.1,0-0.2c0-0.1,0.1-0.2,0.1-0.3c0,0,0-0.1,0.1-0.1
										c0.1-0.2,0.1-0.3,0.2-0.4c0,0,0.1-0.1,0.1-0.2c0.1-0.1,0.2-0.3,0.3-0.4c0.1-0.1,0.1-0.1,0.2-0.2c0.1-0.1,0.1-0.2,0.2-0.3
										c0.2-0.2,0.4-0.4,0.6-0.5c0.1,0,0.1-0.1,0.2-0.1c0.1,0,0.1-0.1,0.2-0.1c0.2-0.1,0.4-0.2,0.6-0.4c0.1,0,0.1,0,0.2-0.1
										c0.1,0,0.2-0.1,0.3-0.1c0,0,0.1,0,0.1,0c0.1,0,0.2-0.1,0.2-0.1c0.1,0,0.1,0,0.2,0c0.1,0,0.1,0,0.2-0.1c0,0,0.1,0,0.1,0
										c0.1,0,0.3-0.1,0.4-0.1c0.1,0,0.2,0,0.3,0c0,0,0.1,0,0.2,0c0.2,0,0.1,0.3,0,0.3c0,0-0.1,0-0.1,0.1c0,0,0,0-0.1,0
										c-0.1,0-0.1,0-0.1,0c-0.2,0.1-0.2,0.2-0.1,0.4c0,0,0.1,0,0.1,0.1c0.1,0,0.2,0,0.2,0c0.1,0,0.2,0,0.3,0
										c0.1-0.1,0.2-0.2,0.3-0.2c0.1,0,0.2,0.1,0.2,0.2c0.1,0.1,0.3,0.1,0.5,0.1c0.1,0,0.1,0,0.2,0c0.1-0.1,0.3-0.3,0.1-0.4
										c-0.1-0.1-0.2-0.1-0.3-0.1c-0.1,0-0.1-0.1-0.1-0.1c0,0-0.1-0.1,0-0.2c0.1-0.1,0.3,0,0.4,0c0.2,0,0.4,0.1,0.6,0.1
										c0.2,0,0.4,0.1,0.5,0.1c0.1,0,0.2,0.1,0.2,0.1c0.1,0,0.1,0,0.2,0.1c0.1,0,0.1,0,0.2,0.1c0,0,0.1,0,0.1,0c0,0,0.1,0,0.1,0.1
										c0.1,0,0.1,0.1,0.2,0.1c0.1,0,0.2,0.1,0.2,0.1c0.1,0.1,0.3,0.2,0.4,0.3c0,0,0.1,0.1,0.1,0.1c0,0,0.1,0.1,0.1,0.1
										c0,0,0.1,0.1,0.1,0.1c0.1,0.1,0.2,0.2,0.3,0.3c0.1,0.1,0.2,0.2,0.3,0.4c0,0,0.1,0.1,0.1,0.1c0.1,0.1,0.1,0.2,0.2,0.3
										c0.1,0.1,0.1,0.2,0.1,0.3c0.1,0.2,0.2,0.5,0.3,0.8c0,0.1,0,0.1,0,0.2c0,0,0,0.1,0,0.1c0,0,0,0.1,0,0.1c0,0,0,0.1,0,0.1
										c0,0.3,0,0.5,0,0.8c0,0,0,0,0,0.1c0,0.1,0,0.2,0,0.2c-0.1,0.2-0.3,0.4-0.4,0.5c0,0-0.1,0-0.1,0.1c0,0,0,0-0.1,0
										c0,0,0,0,0,0c0,0,0,0,0,0c-0.4,0-0.7-0.2-1-0.4c-0.1-0.1-0.2-0.2-0.3-0.1c-0.1,0.1,0,0.3,0,0.4c0,0.1,0,0.3,0,0.4
										c0,0.1,0,0.1,0,0.1c0,0.3,0.1,0.5,0.2,0.7c0,0.1,0,0.1,0.1,0.2c0,0.1,0.1,0.4,0.2,0.4c0.1,0,0.3-0.3,0.3-0.4
										c0.1-0.1,0.3-0.2,0.4-0.2c0.1,0,0.1,0,0.1,0.1c0.1,0.1,0.3,0.4,0.2,0.5c-0.1,0.1-0.2-0.1-0.2-0.1c0,0-0.1,0-0.1,0v0
										c0,0,0,0,0,0c0,0,0.1,0.1,0.1,0.2c0,0.1,0.1,0.1,0.1,0.2c0.1,0.3,0.1,0.6-0.1,0.9c0,0-0.1,0.1-0.1,0.1v0c0,0,0-0.1,0-0.1
										c0-0.1,0-0.2,0-0.4c0-0.1-0.1-0.5-0.2-0.5c0,0-0.1,0.1-0.1,0.1c0,0,0,0.1,0,0.1c0,0.1,0,0.2,0,0.4c0,0.1,0,0.2-0.1,0.3
										c0,0.1,0,0.1-0.1,0.1c0,0.1-0.1,0.2-0.1,0.3c0,0.1,0.1,0.2,0.2,0.2c0.1,0,0.1,0,0.2,0c0.1,0,0.1-0.1,0.1-0.1
										c0.1-0.1,0.3-0.3,0.3-0.4c0-0.1,0.1-0.2,0.1-0.2c0,0,0-0.1,0-0.1c0-0.1,0-0.2,0-0.3c0-0.1,0.1-0.1,0.2-0.1
										c0,0,0.1,0,0.1,0.1c0.1,0.1,0.2,0.3,0.2,0.4c0,0.2,0,0.4-0.1,0.6c-0.1,0.2-0.3,0.4-0.5,0.5c-0.1,0-0.1,0.1-0.2,0.1
										c0,0,0,0-0.1,0c0,0-0.1,0-0.1,0c0,0-0.1,0-0.2,0c0,0,0,0,0,0c0,0,0,0-0.1,0c0,0,0,0-0.1,0c-0.1,0-0.2,0-0.3,0
										c-0.2,0-0.3-0.2-0.4-0.4c0-0.1-0.1-0.5-0.2-0.5c-0.1,0-0.3,0.3-0.4,0.4c-0.1,0.2-0.2,0.3-0.3,0.5c0,0,0,0.1-0.1,0.1
										c-0.1,0.2-0.1,0.4-0.2,0.5c0,0.1-0.1,0.1-0.2,0.2c0,0-0.1,0-0.1,0.1c0,0,0,0,0,0c0,0,0,0-0.1,0c-0.1,0-0.1,0-0.1,0
										c0,0-0.1,0-0.1,0c-0.1,0-0.1,0-0.2,0c-0.1,0,0.1-0.2-0.1-0.2h0c-0.1,0-0.1,0.1-0.2,0.1c-0.1,0.1-0.2,0.1-0.2,0.2
										c0,0,0,0.1-0.1,0.1c-0.1,0.1-0.2,0.2-0.3,0.2c-0.1,0.1-0.3,0.1-0.4,0.2c0,0,0,0,0,0c0,0,0,0-0.1,0c0,0,0,0,0,0
										c0,0,0,0-0.1,0c0,0,0,0-0.1,0c0,0,0,0-0.1,0s0,0-0.1,0c0,0,0,0,0,0c0,0,0,0-0.1,0c0,0,0,0,0,0c0,0,0,0-0.1,0
										c-0.1,0-0.1,0-0.2,0c-0.2,0-0.3,0-0.5,0c-0.1,0-0.2,0-0.3-0.1c-0.1,0-0.3-0.1-0.4-0.1c-0.1,0-0.1-0.1-0.2-0.1
										c0,0-0.1,0-0.1-0.1c-0.1,0-0.1-0.1-0.2-0.1c-0.1-0.1-0.2-0.2-0.4-0.2c-0.1,0-0.1,0.1-0.1,0.1c0,0-0.1,0-0.1,0.1
										c0,0-0.1,0-0.1,0c-0.1,0-0.2,0-0.2-0.1c-0.1,0-0.2,0-0.2-0.1c-0.2-0.2-0.2-0.5-0.3-0.8c-0.1-0.1-0.1-0.2-0.2-0.4
										c0-0.1-0.1-0.1-0.1-0.2c0,0,0-0.1-0.1-0.1c0-0.1-0.1-0.1-0.1-0.2c0,0,0-0.1-0.1-0.1c0,0-0.1,0-0.1,0
										c-0.2,0-0.2,0.4-0.2,0.6c0,0.2-0.2,0.4-0.3,0.4c0,0-0.1,0-0.1,0.1c-0.5,0-1-0.1-1.3-0.5c0,0-0.1-0.1-0.1-0.1
										c-0.1-0.2-0.1-0.4-0.1-0.6C124.1,21,124.2,20.8,124.3,20.6"/>
								</g>
							</g>
						</g>
						<g>
							<g>
								<g>
									<defs>
										<path id="SVGID_11_" d="M117.6,22c0,6.9,5.6,12.5,12.5,12.5c6.9,0,12.5-5.6,12.5-12.5c0-6.9-5.6-12.5-12.5-12.5
											C123.1,9.5,117.6,15.1,117.6,22"/>
									</defs>
									<clipPath id="SVGID_12_">
										<use xlink:href="#SVGID_11_"  style="overflow:visible;"/>
									</clipPath>
									<path class="st5" d="M131.4,25.8c0-0.1,0.1-0.1,0.1-0.2c0.1-0.3,0.3-0.5,0.4-0.8c0,0,0-0.1,0-0.1c0-0.1,0.1-0.2,0.1-0.2
										c0-0.1,0.1-0.2,0.1-0.2c0.1-0.1,0.1-0.2,0.2-0.4c0,0,0-0.1,0.1-0.1v0c0,0,0,0,0,0c0,0,0,0.1,0,0.1c0,0,0,0.1,0,0.1
										c0,0,0,0.1,0,0.1c0,0.1,0,0.1-0.1,0.2c0,0,0,0.1-0.1,0.1c0,0.1-0.1,0.2-0.1,0.2c0,0.1-0.1,0.2-0.1,0.3c0,0.1,0,0.2-0.1,0.2
										c-0.1,0.1-0.1,0.2-0.2,0.4c0,0.1-0.1,0.2-0.1,0.3c0,0.1-0.2,0.3-0.3,0.3c-0.1,0-0.1,0-0.1,0c0,0-0.1,0-0.1-0.1
										C131.3,26,131.4,25.9,131.4,25.8"/>
								</g>
							</g>
						</g>
						<g>
							<g>
								<g>
									<defs>
										<path id="SVGID_13_" d="M117.6,22c0,6.9,5.6,12.5,12.5,12.5c6.9,0,12.5-5.6,12.5-12.5c0-6.9-5.6-12.5-12.5-12.5
											C123.1,9.5,117.6,15.1,117.6,22"/>
									</defs>
									<clipPath id="SVGID_14_">
										<use xlink:href="#SVGID_13_"  style="overflow:visible;"/>
									</clipPath>
									<path class="st6" d="M131.3,25.5c0,0.1-0.1,0.1-0.1,0.2c-0.1,0.1-0.1,0.2-0.2,0.3c0,0.1-0.1,0.1-0.1,0.2
										c0,0-0.1,0.1-0.1,0.1c0,0,0,0,0,0c0,0,0,0-0.1,0c0,0-0.1,0-0.2,0c0,0-0.1,0-0.1,0c-0.1,0-0.3,0-0.3-0.1
										c0-0.1,0.2-0.3,0.2-0.4c0.1-0.1,0.1-0.2,0.2-0.3c0.1-0.1,0.2-0.2,0.3-0.3c0.1-0.1,0.2-0.2,0.2-0.3c0.1-0.2,0.3-0.4,0.4-0.5
										c0,0,0.1-0.1,0.1-0.1c0.1-0.1,0.2-0.3,0.4-0.4c0,0,0.1-0.1,0.1-0.1c0,0,0,0,0,0c0,0.1-0.1,0.3-0.1,0.3
										c0,0.1-0.1,0.2-0.1,0.2c-0.1,0.1-0.1,0.2-0.2,0.4c-0.1,0.1-0.1,0.2-0.2,0.4c0,0.1-0.1,0.1-0.1,0.1
										C131.3,25.4,131.3,25.4,131.3,25.5"/>
								</g>
							</g>
						</g>
						<g>
							<g>
								<g>
									<defs>
										<path id="SVGID_15_" d="M117.6,22c0,6.9,5.6,12.5,12.5,12.5c6.9,0,12.5-5.6,12.5-12.5c0-6.9-5.6-12.5-12.5-12.5
											C123.1,9.5,117.6,15.1,117.6,22"/>
									</defs>
									<clipPath id="SVGID_16_">
										<use xlink:href="#SVGID_15_"  style="overflow:visible;"/>
									</clipPath>
									<path class="st7" d="M130.3,24.3c0,0.1-0.1,0.2-0.2,0.2c0,0-0.1,0.1-0.1,0.1c0,0-0.1,0-0.1,0c-0.1,0-0.1,0-0.2,0
										c-0.1-0.1-0.2-0.2-0.2-0.3c0,0,0-0.1,0-0.1c0-0.1,0.2,0,0.2-0.1c0.1,0,0.2,0,0.3,0c0.1,0,0.1,0,0.2,0
										C130.2,24.2,130.3,24.2,130.3,24.3C130.3,24.3,130.3,24.3,130.3,24.3"/>
								</g>
							</g>
						</g>
						<g>
							<g>
								<g>
									<defs>
										<path id="SVGID_17_" d="M117.6,22c0,6.9,5.6,12.5,12.5,12.5c6.9,0,12.5-5.6,12.5-12.5c0-6.9-5.6-12.5-12.5-12.5
											C123.1,9.5,117.6,15.1,117.6,22"/>
									</defs>
									<clipPath id="SVGID_18_">
										<use xlink:href="#SVGID_17_"  style="overflow:visible;"/>
									</clipPath>
									<path class="st8" d="M121.9,21.9C122,21.9,122,22,121.9,21.9c0.1,0.1,0.2,0.1,0.2,0.1c0.1,0.1,0.2,0.1,0.3,0.2
										c0.1,0,0.1,0.1,0.2,0.1c0.2,0.1,0.4,0.3,0.6,0.4c0,0,0.1,0.1,0.1,0.1c0,0,0.1,0.1,0.1,0.1c0.1,0.1,0.2,0.2,0.3,0.2
										c0,0,0.1,0.1,0.1,0.1c0,0,0.1,0.1,0.1,0.1c0.1,0.1,0.2,0.1,0.2,0.2c0,0,0.1,0.1,0.1,0.1c0,0.1,0.1,0.1,0.1,0.2
										c0,0,0,0,0.1,0.1c0,0,0,0,0,0.1c0,0,0,0,0,0c0,0-0.1,0-0.1,0c-0.1,0-0.1-0.1-0.2-0.1c0,0-0.1-0.1-0.2-0.1
										c-0.1-0.1-0.1-0.1-0.2-0.2c-0.1-0.1-0.3-0.2-0.4-0.3c-0.1,0-0.1-0.1-0.2-0.1c-0.1-0.1-0.2-0.1-0.3-0.2c0,0-0.1-0.1-0.2-0.1
										c0,0-0.1-0.1-0.1-0.1c-0.1-0.1-0.2-0.1-0.3-0.2c-0.1-0.1-0.2-0.1-0.3-0.2c0,0-0.1-0.1-0.1-0.1c0,0-0.1-0.1-0.1-0.1
										C122,22.1,122,22.1,121.9,21.9C121.9,22,121.9,22,121.9,21.9c-0.1,0-0.1,0-0.1,0C121.9,21.9,121.9,21.9,121.9,21.9"/>
								</g>
							</g>
						</g>
						<g>
							<g>
								<g>
									<defs>
										<path id="SVGID_19_" d="M117.6,22c0,6.9,5.6,12.5,12.5,12.5c6.9,0,12.5-5.6,12.5-12.5c0-6.9-5.6-12.5-12.5-12.5
											C123.1,9.5,117.6,15.1,117.6,22"/>
									</defs>
									<clipPath id="SVGID_20_">
										<use xlink:href="#SVGID_19_"  style="overflow:visible;"/>
									</clipPath>
									<path class="st9" d="M122.4,24.5C122.3,24.5,122.3,24.5,122.4,24.5c-0.1,0-0.2-0.1-0.2-0.2c-0.1,0-0.1-0.1-0.2-0.2
										c0,0,0-0.1,0-0.1c0,0,0-0.1-0.1-0.1c0,0,0-0.1-0.1-0.1c-0.1-0.2-0.2-0.3-0.3-0.5c0,0,0-0.1,0-0.1c0-0.1-0.1-0.2-0.1-0.2
										c0,0,0-0.1,0-0.1c0,0,0-0.1-0.1-0.1c-0.1-0.1-0.1-0.3-0.2-0.5c0-0.1-0.2-0.4-0.2-0.6c0.1,0,0.2,0.1,0.3,0.1
										c0.1,0,0.1,0.1,0.2,0.1c0.1,0.1,0.3,0.2,0.4,0.3c0,0,0.1,0,0.1,0.1c0.1,0.1,0.1,0.1,0.2,0.2c0.1,0.1,0.2,0.1,0.2,0.2
										c0,0,0.1,0.1,0.1,0.1c0.1,0,0.1,0.1,0.2,0.1c0.1,0,0.2,0.1,0.2,0.2c0,0.1-0.1,0.2-0.1,0.3c0,0.1-0.1,0.2-0.1,0.3
										c0,0.1-0.1,0.3-0.1,0.4C122.5,24.2,122.5,24.4,122.4,24.5"/>
								</g>
							</g>
						</g>
						<g>
							<g>
								<g>
									<defs>
										<path id="SVGID_21_" d="M117.6,22c0,6.9,5.6,12.5,12.5,12.5c6.9,0,12.5-5.6,12.5-12.5c0-6.9-5.6-12.5-12.5-12.5
											C123.1,9.5,117.6,15.1,117.6,22"/>
									</defs>
									<clipPath id="SVGID_22_">
										<use xlink:href="#SVGID_21_"  style="overflow:visible;"/>
									</clipPath>
									<path class="st10" d="M123.3,29.4c-0.2,0-0.3,0-0.5,0c-0.1,0-0.2,0-0.3,0c-0.1,0-0.1,0-0.2,0c-0.1,0-0.2,0-0.3,0
										c-0.1,0-0.1,0-0.2,0c0,0-0.1,0-0.1,0c-0.1,0-0.1,0-0.2,0c-0.1,0-0.1,0-0.2,0c0,0-0.1,0-0.2,0c-0.3,0-0.7,0-0.9-0.4
										c-0.2-0.3,0.1-0.7,0.3-0.9c0.4-0.5,0.9-0.9,1.3-1.4c0.1-0.1,0.2-0.3,0.4-0.4c0.1-0.1,0.1-0.1,0.2-0.2c0,0,0.1,0,0.1-0.1
										c0,0,0.1,0,0.1,0.1c0,0.1,0,0.2,0,0.3c0,0,0,0.1,0,0.1c0,0.1,0,0.1,0,0.2c0,0,0,0.1,0,0.1c0,0,0,0.1,0,0.1
										c0,0.1,0,0.2,0,0.2c0,0.3,0.1,0.6,0.1,0.9c0,0.1,0,0.2,0.1,0.2c0,0.1,0,0.1,0.1,0.1c0,0,0,0.1,0,0.1c0,0.1,0.1,0.2,0.1,0.2
										c0,0,0,0.1,0.1,0.2c0.1,0.1,0.1,0.2,0.2,0.3c0,0,0.1,0.1,0.1,0.2C123.4,29.3,123.4,29.3,123.3,29.4"/>
								</g>
							</g>
						</g>
						<g>
							<g>
								<g>
									<defs>
										<path id="SVGID_23_" d="M117.6,22c0,6.9,5.6,12.5,12.5,12.5c6.9,0,12.5-5.6,12.5-12.5c0-6.9-5.6-12.5-12.5-12.5
											C123.1,9.5,117.6,15.1,117.6,22"/>
									</defs>
									<clipPath id="SVGID_24_">
										<use xlink:href="#SVGID_23_"  style="overflow:visible;"/>
									</clipPath>
									<path class="st11" d="M129.2,30.6c0,0-0.1,0-0.1,0.1c-0.1,0-0.2,0-0.3-0.1c-0.1,0-0.1-0.1-0.2-0.1c-0.2,0-0.2,0.1-0.4,0.2
										c-0.1,0-0.1,0-0.2,0.1c0,0,0,0,0,0c0,0,0,0,0,0c0,0,0,0,0,0c0,0,0,0,0,0c0,0,0,0-0.1,0c0,0-0.1,0-0.1,0c0,0-0.1,0-0.1,0
										c0,0,0,0-0.1,0c0,0-0.1,0-0.1,0c-0.1,0-0.2,0-0.3,0c0,0-0.1,0-0.1,0c-0.1,0-0.2,0-0.3,0c-0.1,0-0.2-0.1-0.3-0.2
										c-0.1-0.1-0.2-0.1-0.3-0.2c-0.1,0-0.1-0.1-0.2-0.1c-0.1-0.2,0.2-0.3,0-0.5c-0.1-0.1-0.1-0.1-0.2-0.1
										c-0.1,0-0.2-0.1-0.3-0.1c-0.1,0-0.1-0.1-0.2-0.1c-0.1,0-0.2-0.1-0.3-0.2c-0.1-0.1-0.2-0.2-0.3-0.3c-0.1,0-0.2,0.1-0.3,0.2
										c0,0-0.1,0-0.1,0.1c-0.1,0-0.2,0-0.3,0c0,0-0.1,0-0.1-0.1c-0.1-0.1-0.2-0.1-0.2-0.2c0,0,0,0,0-0.1
										c-0.1-0.1-0.2-0.3-0.3-0.4c-0.1-0.1-0.1-0.2-0.2-0.3c0-0.1-0.1-0.1-0.1-0.2c0-0.1-0.1-0.1-0.1-0.2c0-0.1,0-0.1-0.1-0.2
										c0-0.2-0.1-0.3-0.1-0.5c0-0.2-0.1-0.4-0.1-0.6c0-0.1,0-0.2,0-0.2c0-0.1,0-0.2,0-0.3c0-0.1,0-0.1,0-0.2c0-0.1,0-0.1,0-0.2
										c0-0.2-0.1-0.4,0-0.5c0-0.2,0-0.3,0-0.5c0-0.1,0-0.1,0-0.2c0-0.2,0.1-0.4,0.1-0.5c0,0,0,0,0-0.1c0-0.1,0.1-0.2,0.2-0.3
										c0,0,0,0,0,0c0.1,0,0.2,0.1,0.3,0.1c0,0,0.1,0.1,0.2,0.1c0.1,0.1,0.2,0.2,0.4,0.2c0.1,0.1,0.2,0.2,0.4,0.2
										c0.1,0,0.1,0.1,0.2,0.1c0.1,0,0.2,0.1,0.2,0.1c0,0,0.1,0,0.1,0c0.1,0,0.1,0,0.2,0c0,0,0.1,0.1,0.1,0.2c0,0,0.1,0.1,0.1,0.1
										c0.1,0.1,0.1,0.2,0.2,0.3c0,0.1,0.1,0.2,0.2,0.3h0c0,0,0,0,0,0c0,0-0.1-0.1-0.1-0.1c0,0-0.1-0.1-0.1-0.1
										c-0.1-0.1-0.1-0.1-0.2-0.2c-0.1-0.1-0.2-0.2-0.3-0.3c0,0-0.1,0-0.1,0c-0.1,0.1,0,0.2,0.1,0.3c0,0,0.1,0.1,0.1,0.1
										c0.1,0.1,0.2,0.2,0.3,0.3c0.1,0.1,0.2,0.2,0.3,0.3c0,0,0.1,0.1,0.1,0.1c0.1,0.1,0.2,0.1,0.2,0.2c0,0.1,0,0.1,0.1,0.2
										c0,0,0,0.1,0.1,0.1c0,0.1,0.1,0.2,0.1,0.3c0,0.1,0.1,0.1,0.1,0.2c0.1,0.2,0.2,0.4,0.2,0.6c0,0.1,0.1,0.2,0.1,0.2
										c0,0,0.1,0.1,0.1,0.2c0,0.1,0.1,0.2,0.1,0.3c0.1,0.1,0.1,0.2,0.2,0.4c0,0.1,0.1,0.2,0.1,0.3c0.1,0.1,0.1,0.2,0.2,0.4
										c0,0.1,0.1,0.1,0.1,0.2c0,0,0,0.1,0.1,0.1c0.1,0.1,0.3,0.1,0.5,0.2c0.1,0,0.2,0.1,0.4,0.1c0,0,0.1,0,0.1,0
										c0.3,0.1,0.6,0.2,0.8,0.3C129.3,30.2,129.4,30.4,129.2,30.6"/>
								</g>
							</g>
						</g>
						<g>
							<g>
								<g>
									<defs>
										<path id="SVGID_25_" d="M117.6,22c0,6.9,5.6,12.5,12.5,12.5c6.9,0,12.5-5.6,12.5-12.5c0-6.9-5.6-12.5-12.5-12.5
											C123.1,9.5,117.6,15.1,117.6,22"/>
									</defs>
									<clipPath id="SVGID_26_">
										<use xlink:href="#SVGID_25_"  style="overflow:visible;"/>
									</clipPath>
									<path class="st12" d="M129.3,26.1c0,0.1-0.1,0.1-0.1,0.1h-0.1c-0.1,0-0.2,0-0.3,0c-0.1,0-0.2,0-0.3-0.1
										c-0.1-0.1-0.1-0.2-0.2-0.3c0,0,0-0.1,0-0.1c-0.1-0.2-0.1-0.4-0.2-0.6c0,0,0-0.1-0.1-0.1c0-0.1,0-0.1-0.1-0.2
										c0,0,0-0.1,0-0.1c0-0.1-0.1-0.1-0.1-0.2c0,0,0-0.1,0-0.1c-0.1-0.2-0.2-0.4-0.2-0.6c0-0.1,0-0.1,0-0.2c0,0,0,0,0-0.1
										c0.1,0,0.2,0.1,0.2,0.2c0.1,0.1,0.2,0.2,0.2,0.3c0,0,0.1,0.1,0.1,0.1c0.1,0.1,0.2,0.2,0.3,0.4c0,0,0.1,0.1,0.1,0.1
										c0,0,0.1,0.1,0.1,0.1c0.1,0.1,0.1,0.1,0.2,0.2c0.1,0.1,0.2,0.3,0.3,0.5c0.1,0.1,0.1,0.2,0.2,0.3
										C129.2,26,129.3,26,129.3,26.1C129.3,26.1,129.3,26.1,129.3,26.1"/>
								</g>
							</g>
						</g>
						<g>
							<g>
								<g>
									<defs>
										<path id="SVGID_27_" d="M117.6,22c0,6.9,5.6,12.5,12.5,12.5c6.9,0,12.5-5.6,12.5-12.5c0-6.9-5.6-12.5-12.5-12.5
											C123.1,9.5,117.6,15.1,117.6,22"/>
									</defs>
									<clipPath id="SVGID_28_">
										<use xlink:href="#SVGID_27_"  style="overflow:visible;"/>
									</clipPath>
									<path class="st13" d="M129.3,25.3C129.3,25.3,129.2,25.3,129.3,25.3c-0.1,0-0.2,0-0.2,0c0,0-0.1-0.1-0.1-0.2
										c0,0-0.1-0.1-0.1-0.1c0-0.1-0.1-0.1-0.1-0.2c-0.1-0.1-0.2-0.2-0.3-0.3c-0.1-0.1-0.2-0.2-0.2-0.3c-0.1-0.1-0.2-0.3-0.2-0.4
										c0,0,0.1,0,0.1-0.1c0.1,0,0.1,0,0.2,0c0,0,0.1,0,0.1,0c0.1,0,0.2,0.1,0.3,0.1c0.1,0,0.1,0.1,0.2,0.1
										c0.1,0.1,0.2,0.2,0.2,0.2c0.1,0.1,0.1,0.1,0.1,0.2c0,0,0.1,0.1,0.1,0.1c0.1,0.1,0.2,0.2,0.2,0.3
										C129.5,25,129.4,25.2,129.3,25.3"/>
								</g>
							</g>
						</g>
						<g>
							<g>
								<g>
									<defs>
										<path id="SVGID_29_" d="M117.6,22c0,6.9,5.6,12.5,12.5,12.5c6.9,0,12.5-5.6,12.5-12.5c0-6.9-5.6-12.5-12.5-12.5
											C123.1,9.5,117.6,15.1,117.6,22"/>
									</defs>
									<clipPath id="SVGID_30_">
										<use xlink:href="#SVGID_29_"  style="overflow:visible;"/>
									</clipPath>
									<path class="st14" d="M129.7,26c0,0-0.1,0-0.1,0c0,0-0.1-0.1-0.1-0.2c0-0.1-0.1-0.2,0-0.3c0-0.1,0.1-0.1,0.1-0.2
										c0.1-0.1,0.1-0.1,0.2-0.2c0.3-0.3,0.6-0.7,1-0.9c0.1,0,0.1-0.1,0.2-0.1c0.1,0,0.1,0,0.2-0.1c0.1,0,0.2-0.1,0.2-0.1
										c0,0,0,0,0.1,0c0,0,0,0,0,0.1c0,0-0.1,0.1-0.1,0.1c-0.1,0.1-0.1,0.2-0.2,0.2c-0.3,0.3-0.6,0.7-0.8,1
										c-0.1,0.1-0.1,0.2-0.2,0.2c0,0.1-0.1,0.1-0.2,0.2C129.9,25.9,129.8,26,129.7,26"/>
								</g>
							</g>
						</g>
						<g>
							<g>
								<g>
									<defs>
										<path id="SVGID_31_" d="M117.6,22c0,6.9,5.6,12.5,12.5,12.5c6.9,0,12.5-5.6,12.5-12.5c0-6.9-5.6-12.5-12.5-12.5
											C123.1,9.5,117.6,15.1,117.6,22"/>
									</defs>
									<clipPath id="SVGID_32_">
										<use xlink:href="#SVGID_31_"  style="overflow:visible;"/>
									</clipPath>
									<path class="st15" d="M136.3,29.4C136.2,29.4,136.2,29.4,136.3,29.4c-0.2,0-0.4,0-0.5,0c-0.1,0-0.2,0-0.3,0
										c-0.1,0-0.1-0.2-0.2-0.2c0,0,0,0,0,0c-0.1,0-0.2,0.1-0.2,0.1c-0.1,0-0.1,0.1-0.2,0.1c-0.1,0-0.1,0-0.2,0.1c0,0-0.1,0-0.1,0
										c0,0-0.1,0-0.1,0c0,0-0.1,0-0.1,0c0,0,0,0-0.1,0c0,0,0,0,0,0c0,0,0,0-0.1,0c0,0-0.1,0-0.1,0c0,0-0.1,0-0.1,0
										c0,0-0.1,0-0.2,0c-0.1,0-0.1,0-0.2,0c-0.1,0-0.2,0-0.3,0c-0.1,0-0.1,0-0.2,0c-0.1,0-0.2,0-0.3,0c-0.1,0-0.1,0-0.2,0v0l0,0
										c0,0,0.1,0.1,0.1,0.2c0,0,0.1,0.1,0.1,0.2c0,0,0.1,0.1,0.1,0.1c0,0.1-0.1,0.2-0.1,0.2c0,0.1-0.1,0.1-0.2,0.1
										c-0.1,0-0.1,0.1-0.2,0.1c-0.1,0.1-0.2,0.1-0.3,0.2c0,0-0.1,0-0.1,0c-0.1,0-0.2,0-0.2,0c0,0,0,0-0.1,0c-0.1,0-0.2,0-0.2,0
										c-0.1,0-0.2,0-0.3,0c-0.1,0-0.2,0-0.3,0c-0.1-0.1,0.1-0.1,0-0.2c0,0,0,0-0.1,0c-0.1,0-0.1,0-0.2,0.1c0,0,0,0-0.1,0
										c0,0,0,0-0.1,0c0,0-0.1,0-0.1,0c-0.1,0-0.1,0-0.2,0c0,0-0.1,0-0.1,0c-0.1,0-0.1,0-0.2,0c-0.1,0-0.2,0-0.2-0.1
										c0-0.1,0.3-0.3,0.4-0.3c0.1,0,0.2-0.1,0.3-0.1c0.1,0,0.2-0.1,0.3-0.1c0,0,0.1,0,0.1-0.1c0,0,0.1,0,0.1-0.1
										c0.1-0.1,0.2-0.1,0.3-0.2c0,0,0.1,0,0.1-0.1c0.1-0.1,0.2-0.2,0.3-0.3c0.1-0.1,0.2-0.3,0.4-0.5c0-0.1,0.1-0.1,0.2-0.2
										c0.3-0.3,0.5-0.6,0.8-0.9c0,0,0.1-0.1,0.1-0.1c0.2-0.2,0.3-0.4,0.5-0.6c0,0,0-0.1,0.1-0.1c0,0,0.1-0.1,0.1-0.1
										c0.1-0.1,0.1-0.2,0.2-0.2c0.1-0.1,0.3-0.2,0.4-0.4c0.2-0.2,0.4-0.4,0.5-0.6c0.1-0.1,0.3-0.4,0.3-0.5c0,0-0.1,0-0.1,0
										c0,0-0.1,0.1-0.1,0.1c0,0.1-0.1,0.1-0.1,0.2c0,0.1-0.1,0.1-0.2,0.2c-0.1,0.1-0.2,0.2-0.3,0.2c0,0-0.1,0.1-0.1,0
										c-0.1-0.1,0.2-0.5,0.2-0.6c0,0,0.1-0.1,0.1-0.1c0,0,0.1-0.1,0.1-0.2c0.1-0.1,0.2-0.2,0.3-0.3c0.1,0,0.1,0,0.2,0
										c0.1,0,0.2,0,0.2-0.1c0.3-0.2,0.6-0.3,0.9-0.5c0.1-0.1,0.3-0.2,0.4-0.3c0,0,0,0,0.1,0c0,0,0.1,0,0.1,0c0,0,0.1,0.1,0.1,0.2
										c0,0.1,0.1,0.2,0.1,0.2c0,0.1,0,0.1,0.1,0.2c0,0.1,0.1,0.3,0.1,0.4c0,0.2,0,0.4,0,0.5c0,0.1,0,0.3,0,0.4
										c0,0.1,0,0.2-0.1,0.4c0,0.2-0.1,0.4-0.1,0.6c0,0.1,0,0.3-0.1,0.4c0,0,0,0.1,0,0.1c-0.1,0.3-0.1,0.5-0.2,0.8
										c0,0.1,0,0.2,0,0.2c0,0.1-0.1,0.2-0.1,0.3c0,0,0,0.1,0,0.1c0,0,0,0.1,0,0.1C136.6,28.9,136.5,29.2,136.3,29.4"/>
								</g>
							</g>
						</g>
						<g>
							<g>
								<g>
									<defs>
										<path id="SVGID_33_" d="M117.6,22c0,6.9,5.6,12.5,12.5,12.5c6.9,0,12.5-5.6,12.5-12.5c0-6.9-5.6-12.5-12.5-12.5
											C123.1,9.5,117.6,15.1,117.6,22"/>
									</defs>
									<clipPath id="SVGID_34_">
										<use xlink:href="#SVGID_33_"  style="overflow:visible;"/>
									</clipPath>
									<path class="st16" d="M139.9,28.7c0,0.2-0.2,0.3-0.3,0.4c0,0-0.1,0-0.1,0c0,0-0.1,0-0.1,0c0,0,0,0,0,0c0,0,0,0,0,0
										c0,0-0.1,0-0.1,0c0,0,0,0,0,0c0,0,0,0,0,0c0,0,0,0,0,0c0,0-0.1,0-0.1,0c0,0,0,0-0.1,0c0,0-0.1,0-0.1,0c0,0,0,0,0,0
										c0,0-0.1,0-0.1,0c0,0-0.1,0-0.1,0c0,0-0.1,0-0.1,0c0,0-0.1,0-0.1,0c0,0,0,0-0.1,0c0,0-0.1,0-0.1,0c0,0-0.1,0-0.1,0
										c0,0-0.1,0-0.1,0c0,0-0.1,0-0.2,0c0,0,0,0-0.1,0c0,0-0.1,0-0.1,0c-0.1,0-0.1,0-0.2,0c0,0-0.1,0-0.1,0c0,0-0.1,0-0.1,0
										c0,0-0.1,0-0.1,0c0,0-0.1,0-0.1,0c0,0-0.1,0-0.2,0c0,0,0,0-0.1,0c-0.1,0-0.3,0-0.3-0.1c0-0.1,0.1-0.2,0.2-0.3
										c0.1-0.1,0.1-0.2,0.1-0.3c0-0.1,0.1-0.1,0.1-0.2c0-0.1,0-0.2,0.1-0.3c0,0,0-0.1,0-0.1c0-0.2,0.1-0.3,0.1-0.5
										c0-0.1,0-0.1,0-0.2c0-0.1,0-0.1,0.1-0.2c0-0.1,0-0.3,0.1-0.5c0,0,0-0.1,0-0.2c0-0.2,0.1-0.3,0.1-0.5c0-0.1,0-0.2,0.1-0.2
										c0,0,0.1,0,0.1,0c0.1,0.1,0.2,0.2,0.3,0.3c0.1,0.1,0.3,0.3,0.4,0.5c0,0,0.1,0.1,0.1,0.1c0.1,0.1,0.2,0.2,0.2,0.3
										c0.1,0.1,0.1,0.1,0.2,0.1c0,0,0.1,0.1,0.1,0.1c0.1,0.1,0.2,0.3,0.4,0.4c0.1,0.1,0.1,0.1,0.2,0.2c0,0,0.1,0.1,0.1,0.1
										c0,0,0,0.1,0.1,0.1c0.1,0.1,0.1,0.2,0.2,0.3C139.9,28.4,139.9,28.6,139.9,28.7"/>
								</g>
							</g>
						</g>
						<g>
							<g>
								<g>
									<defs>
										<path id="SVGID_35_" d="M117.6,22c0,6.9,5.6,12.5,12.5,12.5c6.9,0,12.5-5.6,12.5-12.5c0-6.9-5.6-12.5-12.5-12.5
											C123.1,9.5,117.6,15.1,117.6,22"/>
									</defs>
									<clipPath id="SVGID_36_">
										<use xlink:href="#SVGID_35_"  style="overflow:visible;"/>
									</clipPath>
									<path class="st17" d="M127.6,19.1c0.1,0,0.1,0,0.2,0c0.1,0,0.2,0,0.2,0c0.1,0,0.2,0.1,0.3,0.1c0.1,0,0.2,0.1,0.2,0.1
										c0.1,0,0.3,0.2,0.3,0.2c0,0,0,0,0,0c0.1-0.1-0.1-0.3-0.1-0.4c-0.1-0.2-0.4-0.5-0.6-0.6c-0.1-0.1-0.2-0.1-0.3-0.1
										c0,0-0.1,0-0.1,0c-0.1,0-0.2,0-0.2,0.1c-0.1,0.1-0.3,0.2-0.4,0.4c0,0-0.1,0.1,0,0.1C127.3,19.3,127.5,19.2,127.6,19.1"/>
								</g>
							</g>
						</g>
						<g>
							<g>
								<g>
									<defs>
										<path id="SVGID_37_" d="M117.6,22c0,6.9,5.6,12.5,12.5,12.5c6.9,0,12.5-5.6,12.5-12.5c0-6.9-5.6-12.5-12.5-12.5
											C123.1,9.5,117.6,15.1,117.6,22"/>
									</defs>
									<clipPath id="SVGID_38_">
										<use xlink:href="#SVGID_37_"  style="overflow:visible;"/>
									</clipPath>
									<path class="st18" d="M131,19.3c0.1,0,0.1,0,0.2-0.1c0.1,0,0.1,0,0.2,0c0.1,0,0.1,0,0.2,0c0.2,0,0.4,0,0.6,0.2
										c0.1,0,0.2,0.1,0.3,0.2c0,0,0.1,0,0.1,0c0-0.1,0-0.1,0-0.2c-0.1-0.3-0.3-0.5-0.5-0.6c-0.1-0.1-0.2-0.1-0.4-0.1
										c-0.1,0-0.2,0-0.3,0.1c-0.1,0-0.1,0.1-0.2,0.1C131.1,18.9,130.8,19.1,131,19.3C130.9,19.3,131,19.3,131,19.3"/>
								</g>
							</g>
						</g>
						<g>
							<g>
								<g>
									<defs>
										<path id="SVGID_39_" d="M117.6,22c0,6.9,5.6,12.5,12.5,12.5c6.9,0,12.5-5.6,12.5-12.5c0-6.9-5.6-12.5-12.5-12.5
											C123.1,9.5,117.6,15.1,117.6,22"/>
									</defs>
									<clipPath id="SVGID_40_">
										<use xlink:href="#SVGID_39_"  style="overflow:visible;"/>
									</clipPath>
									<path class="st19" d="M128.3,20.2c-0.1,0-0.2,0-0.3,0c-0.1,0-0.2,0-0.2,0.1c-0.1,0-0.1,0.1-0.2,0.1c-0.1,0-0.4,0.3-0.3,0.4
										c0,0.1,0.1,0,0.2,0.1c0,0,0.1,0.1,0.1,0.1c0,0,0.1,0,0.1,0c0,0,0,0,0.1,0c0,0,0.1,0,0.2,0c0,0,0.1,0,0.1-0.1
										c0.1,0,0.1,0,0.2-0.1c0,0,0.1,0,0.1-0.1c0,0,0-0.1,0.1-0.1c0,0,0.1,0,0.1,0c0.1,0,0.2,0.1,0.2,0
										C128.9,20.4,128.4,20.2,128.3,20.2"/>
								</g>
							</g>
						</g>
						<g>
							<g>
								<g>
									<defs>
										<path id="SVGID_41_" d="M117.6,22c0,6.9,5.6,12.5,12.5,12.5c6.9,0,12.5-5.6,12.5-12.5c0-6.9-5.6-12.5-12.5-12.5
											C123.1,9.5,117.6,15.1,117.6,22"/>
									</defs>
									<clipPath id="SVGID_42_">
										<use xlink:href="#SVGID_41_"  style="overflow:visible;"/>
									</clipPath>
									<path class="st20" d="M132.2,20.3c-0.1-0.1-0.1-0.1-0.2-0.1c-0.1,0-0.2,0-0.3,0c0,0,0,0-0.1,0c-0.1,0-0.1,0-0.2,0.1
										c-0.1,0-0.1,0.1-0.2,0.1c0,0-0.2,0.2-0.2,0.3c0,0.1,0.1,0,0.2,0c0,0,0,0,0.1,0c0,0,0,0,0.1,0.1c0.1,0.1,0.2,0.2,0.3,0.2
										c0,0,0.1,0,0.1,0c0,0,0.1,0,0.1,0c0.1,0,0.1-0.1,0.2-0.1c0.1,0,0.2,0,0.3,0c0,0,0,0,0.1,0
										C132.5,20.6,132.3,20.3,132.2,20.3"/>
								</g>
							</g>
						</g>
						<g>
							<g>
								<g>
									<defs>
										<path id="SVGID_43_" d="M117.6,22c0,6.9,5.6,12.5,12.5,12.5c6.9,0,12.5-5.6,12.5-12.5c0-6.9-5.6-12.5-12.5-12.5
											C123.1,9.5,117.6,15.1,117.6,22"/>
									</defs>
									<clipPath id="SVGID_44_">
										<use xlink:href="#SVGID_43_"  style="overflow:visible;"/>
									</clipPath>
									<path class="st21" d="M129.6,22.1c0.2,0,0.3,0,0.5,0c0,0,0.1,0,0.1,0c0,0,0.1,0,0.1,0c0.1,0,0.2,0,0.2,0c0,0,0.1,0,0.1,0
										c0,0,0.1,0,0.1-0.1c0.1-0.1,0.2-0.2,0.2-0.3c0-0.1-0.1-0.3-0.1-0.4c0,0,0,0-0.1-0.1c0-0.1,0-0.2-0.1-0.2c0,0-0.1,0-0.1,0v0
										c0,0-0.1,0-0.1,0c0,0,0,0.1,0,0.1c0,0.1,0,0.2,0.1,0.2c0,0.1,0.1,0.1,0.1,0.2c0,0.1-0.1,0.1-0.1,0.2c-0.1,0-0.2,0-0.3,0
										c0,0-0.1,0-0.1,0c-0.1,0-0.1,0-0.2,0c-0.1,0-0.5,0-0.6-0.1c0,0,0-0.1,0-0.1c0,0,0,0,0,0c0-0.1,0.2-0.4,0.1-0.5
										c0,0-0.1,0-0.1,0c0,0-0.1,0-0.1,0c0,0.1,0,0.1-0.1,0.2c0,0.1-0.1,0.2-0.1,0.3c0,0.1,0,0.2,0,0.2
										C129.1,22,129.4,22.1,129.6,22.1"/>
								</g>
							</g>
						</g>
						<g>
							<g>
								<g>
									<defs>
										<path id="SVGID_45_" d="M117.6,22c0,6.9,5.6,12.5,12.5,12.5c6.9,0,12.5-5.6,12.5-12.5c0-6.9-5.6-12.5-12.5-12.5
											C123.1,9.5,117.6,15.1,117.6,22"/>
									</defs>
									<clipPath id="SVGID_46_">
										<use xlink:href="#SVGID_45_"  style="overflow:visible;"/>
									</clipPath>
									<path class="st22" d="M130.4,22.4C130.4,22.4,130.4,22.5,130.4,22.4c-0.1,0-0.2,0.1-0.2,0.1c0,0-0.1,0-0.1,0
										c-0.1,0-0.2,0-0.3,0c-0.1,0-0.1,0-0.2-0.1c0,0-0.1,0-0.1,0c0,0-0.1,0-0.1,0c-0.1,0-0.2,0-0.2,0c0,0,0,0,0,0.1
										c0,0.1,0.3,0.2,0.3,0.3c0.2,0.1,0.4,0.2,0.6,0.2c0.1,0,0.2,0,0.3-0.1c0.1,0,0.2-0.1,0.3-0.2c0.1-0.1,0.1-0.1,0.2-0.2
										c0,0,0,0-0.1,0C130.6,22.3,130.5,22.4,130.4,22.4"/>
								</g>
							</g>
						</g>
						<g>
							<g>
								<g>
									<defs>
										<path id="SVGID_47_" d="M117.6,22c0,6.9,5.6,12.5,12.5,12.5c6.9,0,12.5-5.6,12.5-12.5c0-6.9-5.6-12.5-12.5-12.5
											C123.1,9.5,117.6,15.1,117.6,22"/>
									</defs>
									<clipPath id="SVGID_48_">
										<use xlink:href="#SVGID_47_"  style="overflow:visible;"/>
									</clipPath>
									<path class="st23" d="M130,23c0,0-0.2,0-0.2,0.1c0,0.1,0.2,0.1,0.2,0.1c0,0,0.1,0,0.1-0.1C130.2,23,130,23,130,23"/>
								</g>
							</g>
						</g>
					</g>
				</g>
				<g>
					<path d="M82.1,44c0.3-0.3,0.4-0.6,0.4-1c0-0.6-0.3-1.1-1-1.5c-0.6-0.4-1.5-0.6-2.6-0.6c-1.1,0-2.2,0.2-3.3,0.4
						s-1.9,0.7-2.6,1.2c-0.8,0.6-1.4,1.2-1.7,1.9c-0.3,0.7-0.5,1.7-0.5,2.9v5h-3v0.8h3v10.5c0,1.2,0,2.1-0.1,2.7
						c-0.1,0.6-0.2,1.1-0.3,1.4c-0.2,0.5-0.5,0.8-0.8,1c-0.4,0.2-0.9,0.4-1.8,0.5l0,0v0.5H77v-0.5l0,0c-1-0.2-1.7-0.5-2.1-0.8
						c-0.3-0.3-0.5-0.6-0.6-1.1c-0.1-0.4-0.2-1.1-0.2-2l0-1.6V53.2h4.1v-0.8h-4v-5.4c0-1.2,0.1-2.1,0.2-2.7c0.1-0.6,0.3-1.1,0.6-1.5
						c0.3-0.3,0.6-0.6,1.1-0.8c0.5-0.2,1-0.3,1.5-0.3c0.4,0,0.7,0.1,1,0.3c0.2,0.2,0.6,0.6,0.9,1.2c0.3,0.5,0.6,0.8,0.8,1
						c0.3,0.2,0.6,0.3,1,0.3C81.5,44.4,81.8,44.3,82.1,44z"/>
					<path d="M99.7,68.6c-0.3-0.2-0.6-0.4-0.8-0.8c-0.2-0.3-0.4-0.8-0.4-1.4c-0.1-0.6-0.1-1.5-0.1-3V52.3h-6.1v0.5l0,0
						c1,0.2,1.7,0.4,2.1,0.8c0.3,0.3,0.5,0.7,0.6,1.1c0.1,0.4,0.2,1.1,0.2,2l0,1.5v4c0,1.6-0.1,2.7-0.2,3.4
						c-0.1,0.7-0.4,1.3-0.8,1.8c-0.4,0.5-0.9,0.9-1.6,1.2c-0.7,0.3-1.4,0.4-2.1,0.4c-0.7,0-1.3-0.1-1.9-0.4c-0.6-0.3-1-0.6-1.3-1.1
						c-0.3-0.4-0.5-1-0.6-1.7c-0.1-0.7-0.2-1.8-0.2-3.2V52.3h-6.1v0.5l0,0c1,0.2,1.7,0.4,2.1,0.8c0.3,0.3,0.5,0.7,0.6,1.1
						c0.1,0.4,0.2,1.1,0.2,2l0,1.6v7.1c0,1.5,0.5,2.7,1.5,3.5c1,0.8,2.4,1.3,4.1,1.3c2.3,0,4.3-0.8,6-2.5c0,0.8,0.1,1.7,0.3,2.5l0,0
						l5.7-0.8l0,0v-0.5l0,0C100.5,68.9,100.1,68.8,99.7,68.6z"/>
					<path d="M120.9,68.8c-0.4-0.2-0.8-0.5-1.2-0.8c-0.3-0.3-0.8-0.8-1.6-1.5c0,0-1.2-1.4-1.7-1.9l-4.7-5.9l2.2-2.4l0.8-0.9
						c1-1.1,1.8-1.8,2.4-2.1c0.6-0.3,1.4-0.5,2.4-0.5h0v-0.5h-7.9v0.5l0,0c0.7,0,1.2,0.1,1.4,0.2c0.6,0.2,0.9,0.6,0.9,1.2
						c0,0.4-0.1,0.8-0.4,1.2c-0.3,0.4-0.8,1.1-1.5,1.9l-3.7,4V41l-5.9,0.7l0,0v0.5l0,0c0.6,0,1.1,0.1,1.4,0.3
						c0.3,0.2,0.6,0.4,0.8,0.8c0.2,0.3,0.4,0.8,0.4,1.4c0.1,0.6,0.1,1.5,0.1,2.9v16.1c0,1.2,0,2.1-0.1,2.7c-0.1,0.6-0.2,1.1-0.3,1.4
						c-0.2,0.5-0.5,0.8-0.8,1c-0.4,0.2-0.9,0.3-1.8,0.5l0,0v0.5h9.1v-0.5l0,0c-1-0.2-1.7-0.5-2.1-0.8c-0.3-0.3-0.5-0.6-0.6-1.1
						c-0.1-0.4-0.2-1.1-0.2-2l0-1.6v-1.5l1.2-1.3l4.4,5.5l0.4,0.5c0.4,0.4,0.6,0.8,0.6,1.2c0,0.4-0.2,0.6-0.5,0.8
						c-0.2,0.1-0.6,0.2-1.2,0.3l0,0v0.5h9.4v-0.5l0,0C121.9,69.2,121.4,69.1,120.9,68.8z"/>
					<path d="M141,68.6c-0.3-0.2-0.6-0.4-0.8-0.8c-0.2-0.3-0.4-0.8-0.4-1.4c-0.1-0.6-0.1-1.5-0.1-3V52.3h-6.1v0.5l0,0
						c1,0.2,1.7,0.4,2.1,0.8c0.3,0.3,0.5,0.7,0.6,1.1c0.1,0.4,0.2,1.1,0.2,2l0,1.5v4c0,1.6-0.1,2.7-0.2,3.4
						c-0.1,0.7-0.4,1.3-0.8,1.8c-0.4,0.5-0.9,0.9-1.6,1.2c-0.7,0.3-1.4,0.4-2.1,0.4c-0.7,0-1.3-0.1-1.9-0.4c-0.6-0.3-1-0.6-1.3-1.1
						c-0.3-0.4-0.5-1-0.6-1.7c-0.1-0.7-0.2-1.8-0.2-3.2V52.3h-6.1v0.5l0,0c1,0.2,1.7,0.4,2.1,0.8c0.3,0.3,0.5,0.7,0.6,1.1
						c0.1,0.4,0.2,1.1,0.2,2l0,1.6v7.1c0,1.5,0.5,2.7,1.5,3.5c1,0.8,2.4,1.3,4.1,1.3c2.3,0,4.3-0.8,6-2.5c0,0.9,0.1,1.7,0.3,2.5l0,0
						l5.7-0.8l0,0v-0.5l0,0C141.8,68.9,141.3,68.8,141,68.6z"/>
					<path d="M152,59.6l-2.2-1c-1-0.4-1.7-0.9-2.2-1.5c-0.5-0.5-0.7-1.1-0.7-1.8c0-0.8,0.3-1.5,0.8-2c0.5-0.5,1.2-0.8,1.9-0.8
						c0.5,0,1.1,0.1,1.6,0.4c0.6,0.3,1,0.7,1.5,1.2c0.3,0.4,0.6,0.8,0.7,1.1c0.2,0.4,0.3,0.9,0.5,1.6l0,0h0.5l-0.2-4.7l0,0h-0.5l0,0
						c-0.2,0.4-0.5,0.6-0.7,0.6c-0.2,0-0.3,0-0.6-0.1l-0.7-0.3c-0.6-0.2-1.3-0.4-2-0.4c-1.6,0-2.8,0.5-3.8,1.5
						c-0.8,0.9-1.2,2-1.2,3.2c0,1.2,0.4,2.2,1.2,3.1c0.6,0.6,1.7,1.4,3.4,2.3c1,0.5,1.7,0.9,2.1,1.2c0.4,0.3,0.8,0.6,1,0.9
						c0.5,0.6,0.7,1.4,0.7,2.2c0,1-0.3,1.8-1,2.4c-0.6,0.5-1.4,0.8-2.2,0.8c-1.4,0-2.6-0.8-3.7-2.3c-0.6-0.8-1-2-1.4-3.4l0,0h-0.4
						v5.9h0.4l0,0c0.2-0.4,0.6-0.6,1.1-0.6c0.2,0,0.3,0,0.5,0.1c0.1,0,0.5,0.2,1.1,0.4c0.9,0.4,1.9,0.5,2.8,0.5
						c1.7,0,3.1-0.6,4.1-1.6c0.9-0.9,1.4-2.2,1.4-3.6c0-1.2-0.3-2.2-1-3.1C154.3,60.9,153.3,60.2,152,59.6z"/>
					<path d="M175.8,68.8c-0.4-0.2-0.8-0.5-1.2-0.8c-0.3-0.3-0.9-0.8-1.6-1.5c0,0-1.3-1.4-1.8-1.9l-4.6-5.9l2.2-2.4l0.8-0.9
						c1-1.1,1.8-1.8,2.4-2.1c0.6-0.3,1.4-0.5,2.4-0.5h0v-0.5h-7.9v0.5l0,0c0.7,0,1.2,0.1,1.5,0.2c0.6,0.2,0.9,0.6,0.9,1.2
						c0,0.4-0.1,0.8-0.4,1.2c-0.3,0.4-0.8,1.1-1.5,1.9l-3.7,4V41l-5.9,0.7l0,0v0.5l0,0c0.6,0,1.1,0.1,1.4,0.3
						c0.3,0.2,0.6,0.4,0.8,0.8c0.2,0.3,0.4,0.8,0.4,1.4c0.1,0.6,0.1,1.5,0.1,2.9v16.1c0,1.2,0,2.1-0.1,2.7c-0.1,0.6-0.2,1.1-0.3,1.4
						c-0.2,0.5-0.5,0.8-0.8,1c-0.4,0.2-0.9,0.3-1.8,0.5l0,0v0.5h9.1v-0.5l0,0c-1-0.2-1.7-0.5-2.1-0.8c-0.3-0.3-0.5-0.6-0.6-1.1
						c-0.1-0.4-0.2-1.1-0.2-2l0-1.6v-1.5l1.2-1.3l4.4,5.5l0.4,0.5c0.4,0.4,0.6,0.8,0.6,1.2c0,0.4-0.2,0.6-0.5,0.8
						c-0.2,0.1-0.6,0.2-1.2,0.3l0,0v0.5h9.4v-0.5l0,0C176.8,69.2,176.3,69.1,175.8,68.8z"/>
					<path d="M191.6,65.1L191.6,65.1c-0.4,1.1-0.8,1.8-1.3,2.3c-0.4,0.4-1,0.8-1.6,1c-0.7,0.2-1.4,0.4-2.1,0.4c-1,0-1.9-0.2-2.8-0.7
						c-0.9-0.4-1.7-1-2.3-1.8c-0.6-0.7-1.1-1.7-1.4-2.8c-0.3-1.1-0.5-2.3-0.5-3.5c0-0.3,0-0.8,0.1-1.4h12v0c0-1.7-0.5-3.2-1.5-4.3
						c-0.6-0.7-1.4-1.3-2.4-1.7s-2-0.6-3-0.6c-2,0-3.9,0.6-5.5,1.9c-2.2,1.7-3.3,4.2-3.3,7.3c0,2.3,0.6,4.2,1.7,5.7
						c0.8,1.1,1.9,1.9,3.1,2.5c1.2,0.5,2.7,0.8,4.3,0.8c1.9,0,3.5-0.4,4.7-1.2c1.2-0.8,1.9-2,2.3-3.6l0,0L191.6,65.1z M184.4,52.5
						c0.7,0,1.3,0.2,1.9,0.6c0.6,0.4,1.1,0.9,1.5,1.6c0.4,0.7,0.7,1.8,0.7,3.1h-8.7c0.2-1.5,0.7-2.8,1.5-3.8
						C182.2,53,183.3,52.5,184.4,52.5z"/>
				</g>
			</g>
		</g>
	</g>
	<g>
		<polygon class="st24" points="99.8,100.1 113.7,100.1 113.7,103.7 103.8,103.7 103.8,108.2 112.1,108.2 112.1,111.9 103.8,111.9 
			103.8,118.2 99.8,118.2 		"/>
		<path class="st24" d="M121,110.5v-10.4h4v10.3c0,3,1.5,4.5,3.9,4.5c2.4,0,3.9-1.5,3.9-4.4v-10.4h4v10.2c0,5.5-3.1,8.2-8,8.2
			C124,118.5,121,115.8,121,110.5"/>
		<polygon class="st24" points="144,100.1 147.7,100.1 156.2,111.3 156.2,100.1 160.1,100.1 160.1,118.2 156.7,118.2 147.9,106.7 
			147.9,118.2 144,118.2 		"/>
		<path class="st24" d="M127,95.7c0,1.1-0.9,2.1-2,2.1c-1.1,0-2.1-0.9-2.1-2.1c0-1.1,0.9-2.1,2.1-2.1C126.1,93.6,127,94.5,127,95.7"
			/>
		<path class="st24" d="M134.9,95.7c0,1.1-0.9,2-2,2s-2.1-0.9-2.1-2c0-1.1,0.9-2.1,2.1-2.1S134.9,94.5,134.9,95.7"/>
	</g>
</g>
</svg>
