<?xml version="1.0" encoding="utf-8"?>
<!-- Generator: Adobe Illustrator 24.2.3, SVG Export Plug-In . SVG Version: 6.00 Build 0)  -->
<svg version="1.0" id="レイヤー_1" focusable="false"
	 xmlns="http://www.w3.org/2000/svg" xmlns:xlink="http://www.w3.org/1999/xlink" x="0px" y="0px" width="16.004px" height="16px"
	 viewBox="0 0 16.004 16" style="enable-background:new 0 0 16.004 16;" xml:space="preserve">
<path d="M8.004,3.898C5.733,3.898,3.901,5.729,3.901,8s1.832,4.102,4.102,4.102S12.106,10.271,12.106,8S10.274,3.898,8.004,3.898z
	 M8.004,10.667c-1.467,0-2.667-1.196-2.667-2.667s1.196-2.667,2.667-2.667S10.671,6.529,10.671,8S9.471,10.667,8.004,10.667
	L8.004,10.667z M13.23,3.73c0,0.532-0.428,0.957-0.957,0.957c-0.532,0-0.957-0.428-0.957-0.957s0.428-0.957,0.957-0.957
	C12.802,2.773,13.23,3.202,13.23,3.73z M15.947,4.701c-0.061-1.282-0.353-2.417-1.292-3.352c-0.935-0.935-2.071-1.228-3.352-1.292
	c-1.321-0.075-5.28-0.075-6.601,0C3.423,0.117,2.288,0.41,1.349,1.345S0.12,3.416,0.056,4.698c-0.075,1.321-0.075,5.28,0,6.601
	c0.061,1.282,0.353,2.417,1.292,3.352c0.939,0.935,2.071,1.228,3.352,1.292c1.321,0.075,5.28,0.075,6.601,0
	c1.282-0.061,2.417-0.353,3.352-1.292c0.935-0.935,1.228-2.071,1.292-3.352C16.022,9.978,16.022,6.022,15.947,4.701L15.947,4.701z
	 M14.241,12.716c-0.278,0.7-0.818,1.239-1.521,1.521c-1.053,0.418-3.552,0.321-4.716,0.321s-3.667,0.093-4.716-0.321
	c-0.7-0.278-1.239-0.818-1.521-1.521C1.349,11.663,1.445,9.164,1.445,8S1.352,4.333,1.766,3.284c0.278-0.7,0.818-1.239,1.521-1.521
	C4.341,1.345,6.84,1.441,8.004,1.441s3.667-0.093,4.716,0.321c0.7,0.278,1.239,0.818,1.521,1.521
	C14.658,4.337,14.562,6.836,14.562,8S14.658,11.667,14.241,12.716z"/>
</svg>
