<?xml version="1.0" encoding="utf-8"?>
<!-- Generator: Adobe Illustrator 24.2.3, SVG Export Plug-In . SVG Version: 6.00 Build 0)  -->
<svg version="1.1" id="レイヤー_1" xmlns="http://www.w3.org/2000/svg" xmlns:xlink="http://www.w3.org/1999/xlink" x="0px"
	 y="0px" width="260px" height="130px" viewBox="0 0 260 130" style="enable-background:new 0 0 260 130;" xml:space="preserve">
<style type="text/css">
	.st0{clip-path:url(#SVGID_2_);fill:#D72A1A;}
	.st1{clip-path:url(#SVGID_4_);fill:#221613;}
	.st2{clip-path:url(#SVGID_6_);fill:#FFFFFF;}
	.st3{clip-path:url(#SVGID_8_);fill:#FFFFFF;}
	.st4{clip-path:url(#SVGID_10_);fill:#FFFFFF;}
	.st5{clip-path:url(#SVGID_12_);fill:#FFFFFF;}
	.st6{clip-path:url(#SVGID_14_);fill:#FFFFFF;}
	.st7{clip-path:url(#SVGID_16_);fill:#FFFFFF;}
	.st8{clip-path:url(#SVGID_18_);fill:#FFFFFF;}
	.st9{clip-path:url(#SVGID_20_);fill:#FFFFFF;}
	.st10{clip-path:url(#SVGID_22_);fill:#FFFFFF;}
	.st11{clip-path:url(#SVGID_24_);fill:#FFFFFF;}
	.st12{clip-path:url(#SVGID_26_);fill:#FFFFFF;}
	.st13{clip-path:url(#SVGID_28_);fill:#FFFFFF;}
	.st14{clip-path:url(#SVGID_30_);fill:#FFFFFF;}
	.st15{clip-path:url(#SVGID_32_);fill:#FFFFFF;}
	.st16{clip-path:url(#SVGID_34_);fill:#FFFFFF;}
	.st17{clip-path:url(#SVGID_36_);fill:#221613;}
	.st18{clip-path:url(#SVGID_38_);fill:#221613;}
	.st19{clip-path:url(#SVGID_40_);fill:#221613;}
	.st20{clip-path:url(#SVGID_42_);fill:#221613;}
	.st21{clip-path:url(#SVGID_44_);fill:#221613;}
	.st22{clip-path:url(#SVGID_46_);fill:#221613;}
	.st23{clip-path:url(#SVGID_48_);fill:#FFFFFF;}
	.st24{fill:#221613;}
	.st25{fill:#040000;}
</style>
<g>
	<g>
		<g>
			<g>
				<g>
					<defs>
						<path id="SVGID_1_" d="M38.4,60.8c0,10.8,8.8,19.6,19.6,19.6c10.8,0,19.6-8.8,19.6-19.6c0-10.8-8.8-19.6-19.6-19.6
							C47.2,41.2,38.4,50,38.4,60.8"/>
					</defs>
					<clipPath id="SVGID_2_">
						<use xlink:href="#SVGID_1_"  style="overflow:visible;"/>
					</clipPath>
					<path class="st0" d="M77.6,60.8c0,10.8-8.8,19.6-19.6,19.6c-10.8,0-19.6-8.8-19.6-19.6c0-10.8,8.8-19.6,19.6-19.6
						C68.8,41.2,77.6,50,77.6,60.8"/>
				</g>
			</g>
		</g>
		<g>
			<g>
				<g>
					<defs>
						<path id="SVGID_3_" d="M38.4,60.8c0,10.8,8.8,19.6,19.6,19.6c10.8,0,19.6-8.8,19.6-19.6c0-10.8-8.8-19.6-19.6-19.6
							C47.2,41.2,38.4,50,38.4,60.8"/>
					</defs>
					<clipPath id="SVGID_4_">
						<use xlink:href="#SVGID_3_"  style="overflow:visible;"/>
					</clipPath>
					<path class="st1" d="M77.5,70.2l-0.1-0.3c-0.1-0.2-0.3-0.5-0.5-0.6c-0.1-0.1-0.2-0.2-0.4-0.3L76.4,69l-0.2-0.1l-0.3-0.2
						l-0.2-0.1l-0.2-0.1c-0.3-0.2-0.6-0.3-0.8-0.5c-0.2-0.1-0.4-0.2-0.5-0.2c-0.4-0.2-0.7-0.3-1.1-0.5c-0.4-0.2-0.8-0.3-1.1-0.5
						l-0.2-0.1l-0.2-0.1c-0.2-0.1-0.4-0.1-0.6-0.2c-0.1,0-0.2-0.1-0.3-0.1c-0.2-0.1-0.4-0.1-0.6-0.2l-0.1-0.2c0-0.1,0-0.4,0.1-0.5
						c0.1-0.2,0.2-0.3,0.4-0.4c0.2-0.3,0.4-0.5,0.6-0.7c0.3-0.5,0.6-0.9,0.8-1.4l0.1-0.2c0.1-0.1,0.1-0.3,0.2-0.5
						c0.1-0.2,0.2-0.4,0.3-0.7l0.1-0.2l0.1-0.2l0.1-0.3c0-0.1,0.1-0.3,0.1-0.4l0.1-0.3l0-0.2l0-0.2l-0.1-0.1l-0.3-0.2
						c-0.2-0.1-0.4-0.3-0.6-0.4c-0.1-0.1-0.3-0.2-0.5-0.3c-0.3-0.2-0.5-0.4-0.8-0.5l-0.2-0.1c-0.5-0.4-1-0.7-1.5-1
						c-0.2-0.1-0.4-0.3-0.6-0.4c-0.3-0.2-0.6-0.3-0.9-0.5c-0.1-0.1-0.2-0.2-0.3-0.3L67,55.7c0-0.2,0-0.3,0.1-0.5
						c0-0.2,0.1-0.5,0.1-0.8c0-0.2,0-0.4,0-0.6c0-0.2,0-0.3,0-0.5c0-0.1,0-0.2,0-0.4c0-0.2-0.1-0.3-0.1-0.5c0-0.2-0.1-0.4-0.1-0.6
						c0-0.1-0.1-0.3-0.1-0.4l-0.1-0.2c-0.1-0.2-0.2-0.4-0.3-0.6l-0.2-0.3L66.2,50l-0.1-0.2L66,49.6l-0.1-0.3
						c-0.1-0.2-0.2-0.3-0.3-0.4l-0.2-0.3l-0.1-0.1l-0.1-0.2l-0.2-0.1L64.8,48c-0.1-0.1-0.3-0.2-0.4-0.4c-0.2-0.2-0.5-0.4-0.7-0.6
						c-0.2-0.1-0.3-0.2-0.4-0.3c-0.1-0.1-0.2-0.2-0.3-0.2l-0.3-0.1c-0.5-0.2-0.9-0.4-1.4-0.6c-0.1,0-0.3-0.1-0.4-0.1
						c-0.2-0.1-0.5-0.1-0.7-0.2c-0.1,0-0.2,0-0.4-0.1c-0.1,0-0.3-0.1-0.5-0.1c-0.2,0-0.3,0-0.5-0.1l-0.2-0.1
						c-0.1-0.1-0.1-0.3-0.2-0.4l-0.1-0.2c-0.1-0.2-0.1-0.3-0.3-0.3v0c-0.2,0-0.3,0.5-0.4,0.6l-0.1,0.2l-0.2,0.2l-0.1,0l-0.3,0
						l-0.1,0l-0.1,0l-0.1,0l-0.2,0l-0.1,0l-0.1,0l-0.3,0.1l-0.2,0l-0.3,0.1c-0.3,0.1-0.6,0.2-0.9,0.3l-0.2,0.1
						c-0.1,0-0.3,0.1-0.4,0.2c-0.1,0-0.3,0.1-0.4,0.2l-0.3,0.2l-0.3,0.2l-0.3,0.2c-0.2,0.1-0.4,0.3-0.6,0.4l-0.3,0.2l-0.3,0.3
						c-0.7,0.5-1.2,1.2-1.6,2c-0.1,0.2-0.2,0.4-0.3,0.7l-0.1,0.1c0,0.1-0.1,0.3-0.2,0.4c-0.2,0.4-0.3,0.9-0.3,1.4l-0.1,0.3l0,0.3
						l0,0.2c0,0.3,0,0.6,0,1v0.3c0,0.2,0,0.4,0.1,0.6c0,0.1,0,0.3,0,0.4c0,0.1,0,0.3,0,0.4l-0.1,0.2L48.6,56
						c-0.1,0.1-0.2,0.2-0.4,0.3c-0.3,0.2-0.5,0.3-0.8,0.5c-0.5,0.4-1.1,0.7-1.6,1.1c-0.3,0.2-0.5,0.4-0.8,0.6l-0.1,0.1l-0.3,0.2
						c-0.3,0.2-0.6,0.4-0.8,0.6c-0.1,0.1-0.3,0.2-0.5,0.3l-0.1,0.2c0,0.2,0.1,0.3,0.1,0.4c0.1,0.3,0.2,0.7,0.3,1
						c0,0.1,0.1,0.2,0.1,0.3l0.1,0.3l0.1,0.2c0.1,0.2,0.2,0.5,0.3,0.7l0.1,0.3l0.2,0.3c0.1,0.2,0.1,0.3,0.2,0.5l0.2,0.3
						c0.1,0.1,0.1,0.3,0.2,0.3c0.1,0.1,0.2,0.3,0.3,0.4l0.3,0.3c0.1,0.1,0.2,0.2,0.3,0.3l0,0.2c0,0.1,0,0.2-0.1,0.3
						c-0.1,0.2-0.1,0.4-0.3,0.6l-0.2,0.2c-0.2,0-0.3,0-0.4-0.1c-0.1,0-0.2,0-0.3,0l-0.3,0c-0.3,0.1-0.6,0.4-0.8,0.6
						c-0.2,0.1-0.3,0.3-0.5,0.4l-0.2,0.2l-0.1,0.1c-0.2,0-0.4,0-0.5,0l-0.2,0l-0.3,0c-0.2,0-0.3,0-0.5,0l-0.4,0l-0.1,0
						c-0.3,0-0.5,0.2-0.7,0.4l-0.1,0c-0.2,0-0.4-0.1-0.5-0.1c-0.2,0-0.4-0.1-0.6-0.1L38.7,68l-0.4-0.1c-0.6,0-0.1,0.8,0,1l0.1,0.2
						l0.1,0.2l0.2,0.2l0.2,0.3c0.2,0.2,0.3,0.4,0.5,0.6l0.3,0.2l0.3,0.2l0.1,0.3l0.1,0.3c0,0.1,0.1,0.3,0.2,0.5l0.2,0.2l0.2,0.2
						l0.1,0.3c0,0.2,0,0.2,0.1,0.3c0.2,0.1,0.6-0.1,0.8-0.2c0.2-0.1,0.4-0.1,0.5-0.2c0.2-0.1,0.3-0.2,0.5-0.1c0.1,0,0.2,0.1,0.4,0.1
						c0.3,0,0.5,0.1,0.8,0.1l0.3,0c0.2,0,0.5,0.1,0.7,0.1c0.2,0,0.3,0,0.5,0l0.3,0l0.3,0l0.2,0c0.1,0,0.2,0,0.4,0c0.2,0,0.4,0,0.6,0
						l0.3,0c0.2,0,0.3,0,0.5,0c0.2,0,0.5,0,0.7,0l0.3,0c0.2,0,0.4,0,0.6,0l0.3-0.1c0.1-0.1,0.2-0.2,0.3-0.1l0,0l0.3,0.2l0.3,0.2
						c0.1,0.1,0.3,0.1,0.4,0.2l0.3,0.1l0,0l0.1,0.4l0.1,0.3c0.1,0.2,0.3,0.3,0.5,0.5c0.2,0.1,0.3,0.2,0.5,0.3
						c0.2,0.1,0.4,0.3,0.6,0.3c0.4,0.1,0.8,0,1.3,0l0.3-0.1c0.2,0,0.5,0,0.7-0.1c0.2-0.1,0.4-0.3,0.6-0.3l0.3,0.1l0.2,0.1l0.2,0.1
						l0.3,0c0.1,0,0.3-0.1,0.4-0.2c0.1-0.1,0.2-0.3,0.3-0.3c0.2,0,0.3,0,0.5,0.1c0.2,0,0.4,0,0.6,0l0.3,0l0.3,0.1c0.1,0,0.3,0,0.4,0
						l0.3,0l0.2,0h0.3c0.2,0,0.4,0.1,0.6,0l0.2,0l0.2,0c0.2-0.1,0.3-0.2,0.5-0.3l0.2-0.1c0.2-0.1,0.4-0.3,0.6-0.5
						c0.1-0.1,0.2-0.2,0.2-0.3l0.1-0.2l0.2-0.1l0.2,0h0.3l0.2,0c0.2,0,0.4,0,0.7-0.1c0.2,0,0.4-0.1,0.5-0.1l0.3-0.1
						c0.2-0.1,0.3-0.2,0.5-0.2c0.1,0,0.3,0.1,0.4,0.2l0.2,0.1c0.1,0,0.3,0,0.5,0c0.4,0,0.8,0,1.2,0c0.4,0,0.7,0,1.1,0
						c0.2,0,0.4-0.1,0.7-0.1c0.3,0,0.5,0,0.8,0c0.1,0,0.3-0.1,0.4-0.1c0.2,0,0.4,0,0.6,0c0.3,0,0.7-0.1,1-0.1c0.1,0,0.3,0,0.4-0.1
						c0.1-0.1,0.2-0.2,0.3-0.3c0.1-0.1,0.2-0.3,0.4-0.4c0.1,0,0.3,0,0.5,0c0.2,0,0.4,0,0.6-0.1l0.3-0.1l0.1,0
						c0.2-0.1,0.4-0.1,0.5-0.2l0.2-0.1l0.3-0.1l0.2-0.1c0.1-0.1,0.2-0.1,0.4-0.2l0.2-0.1c0.1-0.1,0.3-0.2,0.4-0.4L77.5,70.2"/>
				</g>
			</g>
		</g>
		<g>
			<g>
				<g>
					<defs>
						<path id="SVGID_5_" d="M38.4,60.8c0,10.8,8.8,19.6,19.6,19.6c10.8,0,19.6-8.8,19.6-19.6c0-10.8-8.8-19.6-19.6-19.6
							C47.2,41.2,38.4,50,38.4,60.8"/>
					</defs>
					<clipPath id="SVGID_6_">
						<use xlink:href="#SVGID_5_"  style="overflow:visible;"/>
					</clipPath>
					<path class="st2" d="M71.6,60.6c0.2-0.1,0.3-0.2,0.5-0.4l0.1,0c0.1,0.1-0.2,0.7-0.2,0.9l-0.1,0.2l-0.1,0.2l-0.1,0.3
						c-0.1,0.2-0.1,0.3-0.2,0.4l-0.1,0.1l-0.2,0.3c-0.1,0.1-0.1,0.3-0.2,0.4c-0.1,0.2-0.2,0.4-0.3,0.6c-0.1,0.1-0.5,0.9-0.7,0.8
						c-0.1-0.1-0.2-0.6-0.2-0.8l-0.1-0.2c0-0.2-0.1-0.3-0.2-0.4L69.4,63c0-0.1-0.2-0.3-0.1-0.4l0.2-0.2c0.2-0.1,0.3-0.3,0.5-0.4
						c0.2-0.2,0.4-0.3,0.6-0.5l0.3-0.2C71.1,61,71.4,60.8,71.6,60.6"/>
				</g>
			</g>
		</g>
		<g>
			<g>
				<g>
					<defs>
						<path id="SVGID_7_" d="M38.4,60.8c0,10.8,8.8,19.6,19.6,19.6c10.8,0,19.6-8.8,19.6-19.6c0-10.8-8.8-19.6-19.6-19.6
							C47.2,41.2,38.4,50,38.4,60.8"/>
					</defs>
					<clipPath id="SVGID_8_">
						<use xlink:href="#SVGID_7_"  style="overflow:visible;"/>
					</clipPath>
					<path class="st3" d="M67.5,62.8c0.2-0.1,0.3-0.2,0.5-0.3c0.4-0.4,0.8-0.7,1.3-1c0.2-0.1,0.4-0.2,0.5-0.4L70,61
						c0.3-0.2,0.5-0.4,0.7-0.5l0.3-0.2l0,0.1l-0.2,0.2c-0.3,0.2-0.5,0.5-0.8,0.7c-0.2,0.2-0.4,0.3-0.6,0.4c-0.2,0.2-0.4,0.3-0.6,0.5
						c-0.2,0.1-0.3,0.2-0.5,0.3c-0.2,0.1-0.3,0.2-0.4,0.3c-0.2,0.1-0.4,0.2-0.5,0.4l-0.3,0.2c-0.2,0.2-0.4,0.3-0.6,0.4L66.3,64v0
						l0-0.1l0.3-0.3l0.3-0.3C67.1,63.2,67.3,63,67.5,62.8"/>
				</g>
			</g>
		</g>
		<g>
			<g>
				<g>
					<defs>
						<path id="SVGID_9_" d="M38.4,60.8c0,10.8,8.8,19.6,19.6,19.6c10.8,0,19.6-8.8,19.6-19.6c0-10.8-8.8-19.6-19.6-19.6
							C47.2,41.2,38.4,50,38.4,60.8"/>
					</defs>
					<clipPath id="SVGID_10_">
						<use xlink:href="#SVGID_9_"  style="overflow:visible;"/>
					</clipPath>
					<path class="st4" d="M49,58.6c0.1-0.1,0.3-0.2,0.4-0.1l0,0.3c0,0.2,0,0.3,0,0.5l0.1,0.3c0.2,0.4,0.5,0.9,0.9,1l0.3,0
						c0.1-0.1,0.2-0.2,0.2-0.3l-0.1-0.3l-0.1-0.1c-0.1-0.2-0.2-0.4-0.2-0.6c0-0.1,0-0.2,0-0.4l0-0.4c-0.2-0.1-0.4,0.5-0.4,0.6l0,0.3
						L50,59.3l-0.1-0.2c-0.1-0.2-0.1-0.5,0-0.7l0.2-0.3l0.2-0.5c-0.1-0.2-0.6,0.4-0.5,0.1c0-0.2,0.2-0.6,0.4-0.7
						c0.4-0.2,0.8,0.2,1.1,0.5l0.3,0.3l0.2-0.2c0.1-0.1,0.2-0.3,0.2-0.4c0-0.2,0.1-0.3,0.2-0.5l0-0.2c0-0.1,0-0.3,0.1-0.4
						c0-0.1,0-0.2,0-0.3c0-0.2,0-0.4,0.1-0.6c0-0.1,0-0.2,0-0.3c0-0.2,0.1-0.5-0.1-0.5l0,0l-0.2,0c-0.1,0.1-0.2,0.2-0.3,0.3
						c-0.2,0.1-0.3,0.3-0.5,0.4l-0.3,0.1l-0.2,0.1l-0.1,0l-0.1,0l-0.1,0c-0.3,0-0.6-0.1-0.8-0.2l-0.2-0.3c-0.1-0.1-0.2-0.3-0.3-0.5
						c0-0.1,0-0.2,0-0.4c0-0.1,0-0.2,0-0.3c0-0.1,0-0.2,0-0.3c0-0.2,0-0.4,0-0.6c0-0.2,0.1-0.3,0.1-0.5l0-0.3c0-0.2,0.1-0.3,0.1-0.5
						l0.1-0.2c0.1-0.2,0.2-0.5,0.3-0.7l0.1-0.3c0.1-0.2,0.3-0.5,0.4-0.7l0.3-0.3c0.1-0.1,0.2-0.3,0.4-0.4c0.3-0.3,0.6-0.6,0.9-0.8
						l0.3-0.2l0.3-0.2c0.3-0.2,0.7-0.4,1-0.6l0.3-0.1c0.2-0.1,0.3-0.2,0.5-0.2l0.2-0.1c0.1-0.1,0.2-0.1,0.4-0.1l0.3-0.1l0.3-0.1
						l0.2,0c0.2-0.1,0.4-0.1,0.6-0.1c0.1,0,0.3,0,0.4-0.1l0.3,0c0.4,0.1,0.1,0.4-0.1,0.5l-0.1,0.1l-0.1,0l-0.2,0.1
						c-0.3,0.1-0.4,0.4-0.1,0.6l0.1,0.1c0.1,0,0.2,0,0.4,0c0.2,0,0.4,0,0.5-0.1c0.1-0.1,0.3-0.3,0.5-0.3c0.1,0,0.3,0.2,0.4,0.3
						c0.2,0.1,0.5,0.1,0.8,0.1l0.3,0c0.2-0.1,0.4-0.4,0.1-0.6c-0.2-0.1-0.3-0.1-0.5-0.2l-0.2-0.2l0-0.2c0.1-0.1,0.5,0,0.7,0
						c0.3,0,0.6,0.1,0.9,0.2c0.3,0.1,0.6,0.1,0.9,0.2c0.1,0,0.3,0.1,0.4,0.1l0.3,0.1l0.3,0.1l0.2,0.1l0.2,0.1l0.3,0.2
						c0.1,0.1,0.2,0.2,0.4,0.2c0.2,0.1,0.5,0.3,0.7,0.4l0.2,0.2l0.2,0.1l0.2,0.2c0.2,0.1,0.3,0.3,0.5,0.5c0.2,0.2,0.3,0.4,0.5,0.6
						l0.1,0.2c0.1,0.1,0.2,0.3,0.3,0.4c0.1,0.2,0.1,0.3,0.2,0.5c0.2,0.4,0.4,0.8,0.5,1.2l0.1,0.3l0.1,0.2l0,0.2l0,0.2
						c0,0.4,0.1,0.8,0.1,1.2l0,0.1l-0.1,0.4c-0.1,0.3-0.4,0.6-0.7,0.8l-0.2,0.1l-0.1,0l-0.1,0l-0.1,0c-0.6,0-1.1-0.3-1.6-0.6
						c-0.1-0.1-0.4-0.3-0.5-0.1c-0.1,0.2-0.1,0.4,0,0.6c0,0.2,0,0.4,0.1,0.7l0.1,0.2c0.1,0.4,0.2,0.7,0.3,1.1l0.1,0.2
						c0.1,0.2,0.2,0.7,0.4,0.7c0.2,0,0.4-0.5,0.5-0.7c0.2-0.2,0.4-0.4,0.6-0.4l0.2,0.1c0.1,0.1,0.4,0.6,0.3,0.8l-0.3-0.2l-0.1-0.1v0
						l0,0.1l0.2,0.2l0.1,0.2c0.2,0.4,0.1,1-0.1,1.4l-0.2,0.2v0l0-0.2c0-0.2,0.1-0.4,0.1-0.6c0-0.2-0.1-0.8-0.4-0.8l-0.1,0.2l0,0.2
						c0,0.2,0.1,0.4,0.1,0.6c0,0.2-0.1,0.3-0.1,0.5l-0.1,0.2c0,0.1-0.1,0.3-0.1,0.4c0,0.2,0.1,0.3,0.3,0.3l0.3,0l0.2-0.2
						c0.2-0.2,0.4-0.5,0.5-0.6c0.1-0.1,0.1-0.2,0.1-0.4l0-0.2c0-0.2,0-0.4,0-0.5c0-0.1,0.2-0.1,0.3-0.1l0.1,0.1
						c0.2,0.2,0.2,0.4,0.3,0.7c0,0.4,0,0.7-0.1,1c-0.1,0.4-0.4,0.7-0.7,0.9l-0.3,0.1l-0.1,0l-0.2,0.1l-0.3,0.1l-0.1,0l-0.1,0l-0.1,0
						c-0.2,0-0.4,0-0.5,0c-0.3-0.1-0.5-0.3-0.6-0.6c-0.1-0.2-0.1-0.8-0.3-0.9c-0.2-0.1-0.5,0.5-0.6,0.6c-0.2,0.3-0.4,0.5-0.5,0.8
						l-0.1,0.2c-0.1,0.3-0.1,0.6-0.3,0.8l-0.3,0.3L62,62.8l-0.1,0l-0.1,0l-0.2,0l-0.1,0l-0.3,0c-0.1-0.1,0.1-0.3-0.1-0.4h0l-0.3,0.2
						c-0.1,0.1-0.2,0.2-0.4,0.3l-0.1,0.1c-0.1,0.1-0.3,0.3-0.4,0.4c-0.2,0.1-0.4,0.1-0.6,0.2h-0.1l-0.1,0l-0.1,0l-0.1,0l-0.1,0
						l-0.1,0l-0.1,0h-0.1l-0.1,0l-0.1,0l-0.1,0l-0.2,0c-0.3,0-0.5,0-0.8-0.1c-0.2,0-0.3-0.1-0.5-0.1c-0.2-0.1-0.4-0.1-0.6-0.2
						L56,63.3l-0.2-0.1L55.5,63c-0.2-0.1-0.4-0.4-0.6-0.4c-0.1,0-0.1,0.1-0.2,0.2L54.6,63l-0.2,0c-0.1,0-0.2-0.1-0.4-0.1
						c-0.1,0-0.3-0.1-0.4-0.2c-0.4-0.3-0.4-0.8-0.5-1.2c-0.1-0.2-0.2-0.4-0.3-0.6l-0.2-0.3l-0.1-0.2L52.4,60l-0.1-0.2l-0.1-0.1
						c-0.3,0-0.3,0.6-0.4,0.9c-0.1,0.3-0.3,0.6-0.5,0.7l-0.2,0.1c-0.8,0-1.6-0.2-2.1-0.8l-0.1-0.2c-0.1-0.3-0.2-0.6-0.2-0.9
						C48.7,59.2,48.8,58.9,49,58.6"/>
				</g>
			</g>
		</g>
		<g>
			<g>
				<g>
					<defs>
						<path id="SVGID_11_" d="M38.4,60.8c0,10.8,8.8,19.6,19.6,19.6c10.8,0,19.6-8.8,19.6-19.6c0-10.8-8.8-19.6-19.6-19.6
							C47.2,41.2,38.4,50,38.4,60.8"/>
					</defs>
					<clipPath id="SVGID_12_">
						<use xlink:href="#SVGID_11_"  style="overflow:visible;"/>
					</clipPath>
					<path class="st5" d="M60.1,66.8l0.2-0.3c0.2-0.4,0.4-0.8,0.7-1.2l0.1-0.2c0.1-0.1,0.1-0.3,0.2-0.4c0.1-0.1,0.1-0.3,0.2-0.4
						c0.1-0.2,0.2-0.4,0.3-0.6l0.1-0.2v0l0.1,0.1l-0.1,0.2l-0.1,0.2l-0.1,0.2l-0.1,0.3l-0.1,0.2c-0.1,0.1-0.1,0.3-0.1,0.4
						c0,0.2-0.1,0.3-0.2,0.4c0,0.1-0.1,0.2-0.1,0.4c-0.1,0.2-0.2,0.4-0.2,0.6c-0.1,0.2-0.1,0.4-0.2,0.5c-0.1,0.2-0.2,0.4-0.4,0.5
						l-0.2,0L60,67.3C59.9,67.1,60,66.9,60.1,66.8"/>
				</g>
			</g>
		</g>
		<g>
			<g>
				<g>
					<defs>
						<path id="SVGID_13_" d="M38.4,60.8c0,10.8,8.8,19.6,19.6,19.6c10.8,0,19.6-8.8,19.6-19.6c0-10.8-8.8-19.6-19.6-19.6
							C47.2,41.2,38.4,50,38.4,60.8"/>
					</defs>
					<clipPath id="SVGID_14_">
						<use xlink:href="#SVGID_13_"  style="overflow:visible;"/>
					</clipPath>
					<path class="st6" d="M59.9,66.2l-0.1,0.3c-0.1,0.2-0.2,0.3-0.3,0.5c-0.1,0.1-0.1,0.2-0.2,0.3l-0.2,0.1l-0.1,0l-0.1,0h-0.3
						l-0.2,0c-0.1,0-0.5,0-0.5-0.2c0-0.2,0.3-0.4,0.4-0.6c0.1-0.1,0.2-0.3,0.4-0.4c0.1-0.2,0.3-0.3,0.4-0.5c0.1-0.1,0.2-0.3,0.4-0.4
						c0.2-0.3,0.5-0.6,0.7-0.8l0.2-0.2c0.2-0.2,0.4-0.4,0.6-0.6l0.2-0.1l0.1,0.1c0,0.2-0.2,0.4-0.2,0.5c-0.1,0.1-0.1,0.2-0.2,0.4
						c-0.1,0.2-0.2,0.4-0.3,0.6c-0.1,0.2-0.2,0.4-0.3,0.6L60,66L59.9,66.2"/>
				</g>
			</g>
		</g>
		<g>
			<g>
				<g>
					<defs>
						<path id="SVGID_15_" d="M38.4,60.8c0,10.8,8.8,19.6,19.6,19.6c10.8,0,19.6-8.8,19.6-19.6c0-10.8-8.8-19.6-19.6-19.6
							C47.2,41.2,38.4,50,38.4,60.8"/>
					</defs>
					<clipPath id="SVGID_16_">
						<use xlink:href="#SVGID_15_"  style="overflow:visible;"/>
					</clipPath>
					<path class="st7" d="M58.3,64.4c0,0.1-0.2,0.2-0.3,0.3l-0.1,0.1L57.8,65l-0.2-0.1c-0.2-0.1-0.3-0.3-0.4-0.5v-0.1l0.4-0.1
						c0.1,0,0.3,0,0.4,0l0.3,0L58.3,64.4L58.3,64.4"/>
				</g>
			</g>
		</g>
		<g>
			<g>
				<g>
					<defs>
						<path id="SVGID_17_" d="M38.4,60.8c0,10.8,8.8,19.6,19.6,19.6c10.8,0,19.6-8.8,19.6-19.6c0-10.8-8.8-19.6-19.6-19.6
							C47.2,41.2,38.4,50,38.4,60.8"/>
					</defs>
					<clipPath id="SVGID_18_">
						<use xlink:href="#SVGID_17_"  style="overflow:visible;"/>
					</clipPath>
					<path class="st8" d="M45.3,60.7l0.1,0.1l0.3,0.1c0.2,0.1,0.3,0.2,0.4,0.3l0.3,0.1c0.3,0.2,0.6,0.5,0.9,0.7l0.2,0.1l0.2,0.2
						c0.2,0.1,0.3,0.2,0.5,0.4l0.2,0.1l0.2,0.1c0.1,0.1,0.3,0.2,0.4,0.3l0.2,0.2l0.2,0.3l0.1,0.1l0,0.1l0,0l-0.1-0.1L49,63.7
						l-0.2-0.2l-0.3-0.2c-0.2-0.2-0.5-0.3-0.7-0.5l-0.2-0.2c-0.1-0.1-0.3-0.2-0.4-0.3l-0.3-0.2L46.7,62c-0.1-0.1-0.3-0.2-0.4-0.3
						c-0.1-0.1-0.3-0.2-0.4-0.3l-0.2-0.1l-0.1-0.2l-0.2-0.2l-0.2-0.1l0-0.1L45.3,60.7"/>
				</g>
			</g>
		</g>
		<g>
			<g>
				<g>
					<defs>
						<path id="SVGID_19_" d="M38.4,60.8c0,10.8,8.8,19.6,19.6,19.6c10.8,0,19.6-8.8,19.6-19.6c0-10.8-8.8-19.6-19.6-19.6
							C47.2,41.2,38.4,50,38.4,60.8"/>
					</defs>
					<clipPath id="SVGID_20_">
						<use xlink:href="#SVGID_19_"  style="overflow:visible;"/>
					</clipPath>
					<path class="st9" d="M46,64.7l-0.1,0l-0.2-0.2l-0.2-0.3L45.4,64l-0.1-0.1l-0.1-0.2c-0.2-0.3-0.3-0.5-0.5-0.8l-0.1-0.2
						c-0.1-0.1-0.1-0.2-0.2-0.4l-0.1-0.2L44.4,62c-0.1-0.2-0.2-0.5-0.3-0.7c-0.1-0.1-0.3-0.7-0.3-0.9c0.2,0,0.3,0.1,0.4,0.2l0.2,0.2
						c0.2,0.2,0.4,0.3,0.6,0.5l0.2,0.1l0.3,0.3c0.1,0.1,0.2,0.2,0.4,0.3l0.2,0.1l0.2,0.2c0.1,0.1,0.3,0.1,0.3,0.3
						c0,0.2-0.1,0.3-0.1,0.4c-0.1,0.2-0.2,0.3-0.2,0.5c-0.1,0.2-0.1,0.4-0.2,0.6C46.1,64.3,46.1,64.6,46,64.7"/>
				</g>
			</g>
		</g>
		<g>
			<g>
				<g>
					<defs>
						<path id="SVGID_21_" d="M38.4,60.8c0,10.8,8.8,19.6,19.6,19.6c10.8,0,19.6-8.8,19.6-19.6c0-10.8-8.8-19.6-19.6-19.6
							C47.2,41.2,38.4,50,38.4,60.8"/>
					</defs>
					<clipPath id="SVGID_22_">
						<use xlink:href="#SVGID_21_"  style="overflow:visible;"/>
					</clipPath>
					<path class="st10" d="M47.5,72.4c-0.3,0-0.5,0-0.8-0.1c-0.2,0-0.3,0-0.5,0l-0.3,0c-0.1,0-0.3,0-0.4,0l-0.3,0h-0.2
						c-0.1,0-0.2,0-0.4-0.1l-0.3,0l-0.2,0c-0.5-0.1-1.1,0-1.4-0.6c-0.3-0.5,0.1-1.1,0.4-1.4c0.7-0.8,1.4-1.4,2-2.2
						c0.2-0.2,0.4-0.4,0.6-0.6l0.3-0.3l0.2-0.1l0.2,0.1c0.1,0.1,0,0.3,0,0.4l0,0.2l0,0.3l0,0.2l0,0.2c0,0.1,0,0.3,0.1,0.4
						c0,0.5,0.1,0.9,0.2,1.4c0,0.1,0.1,0.2,0.1,0.4l0.1,0.2l0,0.2c0,0.1,0.1,0.2,0.2,0.4l0.1,0.2c0.1,0.2,0.2,0.3,0.3,0.5l0.2,0.3
						L47.5,72.4"/>
				</g>
			</g>
		</g>
		<g>
			<g>
				<g>
					<defs>
						<path id="SVGID_23_" d="M38.4,60.8c0,10.8,8.8,19.6,19.6,19.6c10.8,0,19.6-8.8,19.6-19.6c0-10.8-8.8-19.6-19.6-19.6
							C47.2,41.2,38.4,50,38.4,60.8"/>
					</defs>
					<clipPath id="SVGID_24_">
						<use xlink:href="#SVGID_23_"  style="overflow:visible;"/>
					</clipPath>
					<path class="st11" d="M56.7,74.3l-0.2,0.1c-0.2,0-0.3,0-0.5-0.1l-0.2-0.1c-0.3,0-0.4,0.2-0.6,0.3L55,74.6l-0.1,0l-0.1,0l-0.1,0
						l-0.1,0l-0.1,0l-0.2,0l-0.1,0l-0.1,0l-0.1,0c-0.2,0-0.3,0-0.5,0l-0.2,0c-0.2,0-0.3,0-0.5,0c-0.2-0.1-0.4-0.2-0.5-0.3
						c-0.2-0.1-0.3-0.2-0.5-0.3c-0.1-0.1-0.2-0.1-0.2-0.2c-0.1-0.2,0.3-0.4,0.1-0.7L51.6,73c-0.1,0-0.3-0.1-0.4-0.2l-0.3-0.1
						c-0.1-0.1-0.3-0.2-0.4-0.3c-0.1-0.1-0.3-0.4-0.5-0.4c-0.2,0-0.3,0.2-0.4,0.3l-0.2,0.1c-0.2,0-0.4,0-0.5-0.1l-0.2-0.1
						c-0.1-0.1-0.3-0.2-0.4-0.3l-0.1-0.1c-0.2-0.2-0.3-0.4-0.5-0.6c-0.1-0.2-0.2-0.4-0.3-0.5l-0.1-0.3L47.2,70l-0.1-0.3
						c-0.1-0.2-0.2-0.5-0.2-0.7c-0.1-0.3-0.1-0.6-0.2-1c0-0.1,0-0.3-0.1-0.4c0-0.1,0-0.3,0-0.4l0-0.2l0-0.3c0-0.3-0.1-0.6-0.1-0.9
						c0-0.3-0.1-0.5-0.1-0.8l0.1-0.3c0.1-0.3,0.1-0.6,0.2-0.9l0-0.1c0.1-0.2,0.1-0.4,0.3-0.5l0.1,0c0.2,0,0.3,0.1,0.4,0.2l0.3,0.2
						c0.2,0.1,0.4,0.3,0.5,0.4c0.2,0.1,0.4,0.2,0.6,0.3l0.3,0.2c0.1,0.1,0.3,0.1,0.4,0.2l0.2,0.1l0.2,0l0.2,0.2l0.2,0.2
						c0.1,0.2,0.2,0.3,0.3,0.5c0.1,0.1,0.2,0.3,0.2,0.4h0l0,0l-0.2-0.1l-0.2-0.1l-0.3-0.3c-0.1-0.1-0.2-0.3-0.4-0.4l-0.2,0
						c-0.1,0.1,0,0.4,0.1,0.5l0.1,0.2c0.2,0.2,0.3,0.3,0.4,0.5c0.2,0.2,0.3,0.3,0.5,0.5l0.2,0.2c0.1,0.1,0.3,0.2,0.4,0.3l0.1,0.3
						l0.1,0.2c0.1,0.2,0.1,0.3,0.2,0.5l0.1,0.3c0.1,0.3,0.2,0.6,0.4,0.9c0.1,0.1,0.1,0.2,0.1,0.4l0.1,0.2c0.1,0.2,0.1,0.3,0.2,0.4
						c0.1,0.2,0.2,0.4,0.3,0.6c0.1,0.1,0.1,0.3,0.1,0.4c0.1,0.2,0.2,0.4,0.2,0.6l0.1,0.3l0.1,0.2c0.1,0.2,0.5,0.2,0.7,0.2
						c0.2,0.1,0.4,0.1,0.6,0.2l0.2,0c0.4,0.1,0.9,0.3,1.3,0.5C56.8,73.6,57,74,56.7,74.3"/>
				</g>
			</g>
		</g>
		<g>
			<g>
				<g>
					<defs>
						<path id="SVGID_25_" d="M38.4,60.8c0,10.8,8.8,19.6,19.6,19.6c10.8,0,19.6-8.8,19.6-19.6c0-10.8-8.8-19.6-19.6-19.6
							C47.2,41.2,38.4,50,38.4,60.8"/>
					</defs>
					<clipPath id="SVGID_26_">
						<use xlink:href="#SVGID_25_"  style="overflow:visible;"/>
					</clipPath>
					<path class="st12" d="M56.9,67.3l-0.2,0.2h-0.1c-0.2,0-0.4,0-0.5,0c-0.2,0-0.4,0-0.5-0.1c-0.2-0.1-0.2-0.4-0.3-0.6l-0.1-0.2
						c-0.1-0.3-0.2-0.6-0.3-0.9l-0.1-0.2l-0.1-0.3l-0.1-0.2l-0.1-0.3l-0.1-0.2c-0.1-0.3-0.3-0.6-0.4-0.9l-0.1-0.3l0-0.1
						c0.2,0,0.3,0.2,0.4,0.3c0.1,0.2,0.2,0.3,0.4,0.5l0.2,0.2c0.1,0.2,0.3,0.4,0.4,0.6l0.2,0.2l0.1,0.2l0.3,0.3
						c0.2,0.2,0.4,0.5,0.5,0.7c0.1,0.2,0.2,0.3,0.3,0.5L56.9,67.3L56.9,67.3"/>
				</g>
			</g>
		</g>
		<g>
			<g>
				<g>
					<defs>
						<path id="SVGID_27_" d="M38.4,60.8c0,10.8,8.8,19.6,19.6,19.6c10.8,0,19.6-8.8,19.6-19.6c0-10.8-8.8-19.6-19.6-19.6
							C47.2,41.2,38.4,50,38.4,60.8"/>
					</defs>
					<clipPath id="SVGID_28_">
						<use xlink:href="#SVGID_27_"  style="overflow:visible;"/>
					</clipPath>
					<path class="st13" d="M56.8,65.9L56.7,66l-0.2-0.1l-0.2-0.2l-0.1-0.2L56,65.3c-0.1-0.2-0.3-0.3-0.4-0.5
						c-0.1-0.2-0.3-0.4-0.4-0.5c-0.1-0.1-0.4-0.4-0.3-0.6l0.1-0.1l0.3,0l0.2,0.1c0.2,0.1,0.3,0.1,0.4,0.2l0.3,0.2
						c0.1,0.1,0.3,0.3,0.4,0.4l0.2,0.3l0.1,0.2c0.1,0.1,0.3,0.3,0.3,0.5C57.2,65.6,56.9,65.8,56.8,65.9"/>
				</g>
			</g>
		</g>
		<g>
			<g>
				<g>
					<defs>
						<path id="SVGID_29_" d="M38.4,60.8c0,10.8,8.8,19.6,19.6,19.6c10.8,0,19.6-8.8,19.6-19.6c0-10.8-8.8-19.6-19.6-19.6
							C47.2,41.2,38.4,50,38.4,60.8"/>
					</defs>
					<clipPath id="SVGID_30_">
						<use xlink:href="#SVGID_29_"  style="overflow:visible;"/>
					</clipPath>
					<path class="st14" d="M57.5,67.1L57.3,67l-0.1-0.2c0-0.1-0.1-0.3,0-0.5l0.2-0.3c0.1-0.1,0.2-0.2,0.3-0.3c0.5-0.5,1-1.1,1.6-1.4
						l0.3-0.2l0.3-0.1l0.4-0.2l0.1,0l0,0.1L60,64.2c-0.1,0.1-0.2,0.2-0.3,0.4c-0.4,0.5-0.9,1.1-1.3,1.6c-0.1,0.1-0.2,0.2-0.3,0.4
						l-0.2,0.3C57.7,66.9,57.6,67,57.5,67.1"/>
				</g>
			</g>
		</g>
		<g>
			<g>
				<g>
					<defs>
						<path id="SVGID_31_" d="M38.4,60.8c0,10.8,8.8,19.6,19.6,19.6c10.8,0,19.6-8.8,19.6-19.6c0-10.8-8.8-19.6-19.6-19.6
							C47.2,41.2,38.4,50,38.4,60.8"/>
					</defs>
					<clipPath id="SVGID_32_">
						<use xlink:href="#SVGID_31_"  style="overflow:visible;"/>
					</clipPath>
					<path class="st15" d="M67.7,72.4l-0.1,0.1c-0.2,0-0.4,0-0.6,0c-0.2,0-0.3,0-0.5-0.1c-0.2-0.1-0.2-0.3-0.4-0.3l0,0
						c-0.2,0-0.3,0.1-0.4,0.2l-0.3,0.2l-0.3,0.1l-0.1,0l-0.1,0l-0.1,0l-0.1,0l-0.1,0l-0.1,0l-0.2,0l-0.1,0l-0.3,0l-0.3,0
						c-0.1,0-0.3,0-0.4,0l-0.3-0.1c-0.2,0-0.3,0-0.5,0c-0.1,0-0.2-0.1-0.3-0.1v0h0l0.2,0.2l0.2,0.2l0.2,0.2c0,0.2-0.1,0.3-0.2,0.3
						l-0.2,0.2l-0.3,0.1c-0.2,0.1-0.3,0.2-0.5,0.3l-0.1,0.1l-0.4,0l-0.1,0h-0.3c-0.1,0-0.3,0-0.4,0c-0.1,0-0.3,0-0.4-0.1
						c-0.1-0.1,0.1-0.2,0-0.3l-0.1,0l-0.3,0.1l-0.1,0l-0.1,0l-0.2,0c-0.1,0-0.2,0-0.3,0l-0.1,0c-0.1,0-0.2,0-0.3,0
						c-0.1,0-0.4,0-0.3-0.2c0-0.2,0.5-0.4,0.7-0.5c0.1-0.1,0.3-0.2,0.4-0.2c0.1-0.1,0.3-0.2,0.4-0.2l0.2-0.1l0.2-0.1
						c0.2-0.1,0.4-0.2,0.5-0.3l0.2-0.1c0.2-0.1,0.3-0.3,0.5-0.5c0.2-0.2,0.4-0.5,0.6-0.7l0.2-0.3c0.4-0.5,0.8-1,1.2-1.5l0.2-0.2
						c0.2-0.3,0.5-0.6,0.8-0.9l0.1-0.2l0.2-0.2c0.1-0.1,0.2-0.2,0.3-0.4c0.2-0.2,0.4-0.4,0.6-0.6c0.3-0.3,0.6-0.6,0.8-0.9
						c0.1-0.1,0.5-0.6,0.4-0.8l-0.2,0l-0.1,0.2l-0.2,0.3l-0.3,0.3c-0.1,0.1-0.3,0.3-0.4,0.4l-0.2,0.1c-0.1-0.2,0.2-0.7,0.4-0.9
						l0.2-0.1l0.2-0.2c0.1-0.1,0.3-0.3,0.4-0.4l0.3,0c0.1,0,0.3-0.1,0.4-0.1c0.5-0.2,1-0.5,1.4-0.8c0.2-0.1,0.4-0.3,0.7-0.4l0.1-0.1
						l0.1,0.1l0.2,0.3c0.1,0.1,0.1,0.2,0.1,0.4l0.1,0.3c0.1,0.2,0.1,0.4,0.2,0.6c0,0.3,0,0.6,0,0.8c0,0.2,0,0.4-0.1,0.7
						c0,0.2-0.1,0.4-0.1,0.6c-0.1,0.4-0.1,0.7-0.2,1c0,0.2-0.1,0.4-0.1,0.6l-0.1,0.2c-0.1,0.4-0.2,0.8-0.3,1.3l-0.1,0.4
						c0,0.2-0.1,0.3-0.1,0.5l0,0.2l-0.1,0.2C68.2,71.6,68.1,72.2,67.7,72.4"/>
				</g>
			</g>
		</g>
		<g>
			<g>
				<g>
					<defs>
						<path id="SVGID_33_" d="M38.4,60.8c0,10.8,8.8,19.6,19.6,19.6c10.8,0,19.6-8.8,19.6-19.6c0-10.8-8.8-19.6-19.6-19.6
							C47.2,41.2,38.4,50,38.4,60.8"/>
					</defs>
					<clipPath id="SVGID_34_">
						<use xlink:href="#SVGID_33_"  style="overflow:visible;"/>
					</clipPath>
					<path class="st16" d="M73.4,71.4c-0.1,0.2-0.3,0.4-0.5,0.6L72.7,72l-0.1,0l-0.1,0l-0.1,0l-0.1,0l-0.1,0l-0.1,0l-0.1,0l-0.1,0
						l-0.1,0l-0.2,0l-0.1,0l-0.2,0l-0.2,0l-0.2,0l-0.2,0l-0.1,0l-0.2,0l-0.1,0l-0.2,0l-0.3,0l-0.1,0l-0.1,0l-0.3,0l-0.1,0l-0.1,0
						l-0.1,0l-0.2,0l-0.3,0l-0.1,0c-0.1,0-0.5,0-0.5-0.2c0-0.1,0.2-0.3,0.2-0.4c0.1-0.2,0.1-0.3,0.2-0.5l0.1-0.3
						c0-0.1,0.1-0.3,0.1-0.4l0-0.1c0.1-0.3,0.1-0.5,0.2-0.8l0-0.3c0-0.1,0.1-0.2,0.1-0.3c0-0.2,0.1-0.5,0.1-0.7l0-0.2
						c0-0.2,0.1-0.5,0.1-0.7c0-0.1,0.1-0.3,0.1-0.4l0.2,0c0.2,0.1,0.3,0.3,0.4,0.4c0.2,0.2,0.4,0.5,0.6,0.7l0.2,0.2
						c0.1,0.1,0.3,0.3,0.4,0.4l0.2,0.2l0.1,0.1c0.2,0.2,0.4,0.4,0.6,0.7l0.2,0.3l0.1,0.1l0.1,0.1c0.1,0.2,0.2,0.3,0.3,0.4
						C73.4,70.8,73.4,71.2,73.4,71.4"/>
				</g>
			</g>
		</g>
		<g>
			<g>
				<g>
					<defs>
						<path id="SVGID_35_" d="M38.4,60.8c0,10.8,8.8,19.6,19.6,19.6c10.8,0,19.6-8.8,19.6-19.6c0-10.8-8.8-19.6-19.6-19.6
							C47.2,41.2,38.4,50,38.4,60.8"/>
					</defs>
					<clipPath id="SVGID_36_">
						<use xlink:href="#SVGID_35_"  style="overflow:visible;"/>
					</clipPath>
					<path class="st17" d="M54.1,56.3l0.3,0c0.1,0,0.3,0,0.4,0c0.2,0,0.4,0.1,0.5,0.2c0.1,0.1,0.2,0.1,0.4,0.2l0.5,0.4l0.1,0
						c0.1-0.1-0.1-0.4-0.1-0.6c-0.1-0.3-0.6-0.8-0.9-1c-0.2-0.1-0.3-0.1-0.5-0.1l-0.2,0.1c-0.1,0-0.2,0.1-0.3,0.1
						c-0.2,0.1-0.4,0.3-0.6,0.6l0,0.2C53.7,56.5,54,56.4,54.1,56.3"/>
				</g>
			</g>
		</g>
		<g>
			<g>
				<g>
					<defs>
						<path id="SVGID_37_" d="M38.4,60.8c0,10.8,8.8,19.6,19.6,19.6c10.8,0,19.6-8.8,19.6-19.6c0-10.8-8.8-19.6-19.6-19.6
							C47.2,41.2,38.4,50,38.4,60.8"/>
					</defs>
					<clipPath id="SVGID_38_">
						<use xlink:href="#SVGID_37_"  style="overflow:visible;"/>
					</clipPath>
					<path class="st18" d="M59.5,56.5c0.1,0,0.2-0.1,0.3-0.1l0.2,0l0.3,0c0.3,0,0.7,0.1,0.9,0.2c0.1,0.1,0.3,0.2,0.4,0.3l0.2,0v-0.3
						c-0.1-0.4-0.4-0.8-0.7-1c-0.2-0.1-0.4-0.1-0.6-0.1c-0.1,0.1-0.3,0.1-0.4,0.1l-0.3,0.2c-0.1,0.1-0.6,0.5-0.4,0.7L59.5,56.5"/>
				</g>
			</g>
		</g>
		<g>
			<g>
				<g>
					<defs>
						<path id="SVGID_39_" d="M38.4,60.8c0,10.8,8.8,19.6,19.6,19.6c10.8,0,19.6-8.8,19.6-19.6c0-10.8-8.8-19.6-19.6-19.6
							C47.2,41.2,38.4,50,38.4,60.8"/>
					</defs>
					<clipPath id="SVGID_40_">
						<use xlink:href="#SVGID_39_"  style="overflow:visible;"/>
					</clipPath>
					<path class="st19" d="M55.3,57.9c-0.1,0-0.3-0.1-0.4-0.1c-0.1,0-0.3,0.1-0.4,0.1l-0.3,0.2c-0.1,0.1-0.6,0.5-0.4,0.7l0.3,0.1
						l0.2,0.1l0.2,0l0.1,0h0.2L55,59l0.3-0.1l0.1-0.1l0.1-0.1l0.2,0c0.1,0,0.3,0.1,0.3-0.1C56.1,58.4,55.5,58,55.3,57.9"/>
				</g>
			</g>
		</g>
		<g>
			<g>
				<g>
					<defs>
						<path id="SVGID_41_" d="M38.4,60.8c0,10.8,8.8,19.6,19.6,19.6c10.8,0,19.6-8.8,19.6-19.6c0-10.8-8.8-19.6-19.6-19.6
							C47.2,41.2,38.4,50,38.4,60.8"/>
					</defs>
					<clipPath id="SVGID_42_">
						<use xlink:href="#SVGID_41_"  style="overflow:visible;"/>
					</clipPath>
					<path class="st20" d="M61.3,58.1l-0.3-0.2c-0.1-0.1-0.3-0.1-0.4-0.1l-0.1,0c-0.1,0-0.2,0-0.3,0.1l-0.4,0.2
						c-0.1,0.1-0.3,0.3-0.3,0.4c0,0.1,0.2,0,0.2,0l0.1,0l0.1,0.1c0.2,0.1,0.3,0.3,0.5,0.3l0.2,0l0.2,0l0.3-0.1
						c0.1,0,0.3-0.1,0.4-0.1l0.1-0.1C61.9,58.6,61.5,58.2,61.3,58.1"/>
				</g>
			</g>
		</g>
		<g>
			<g>
				<g>
					<defs>
						<path id="SVGID_43_" d="M38.4,60.8c0,10.8,8.8,19.6,19.6,19.6c10.8,0,19.6-8.8,19.6-19.6c0-10.8-8.8-19.6-19.6-19.6
							C47.2,41.2,38.4,50,38.4,60.8"/>
					</defs>
					<clipPath id="SVGID_44_">
						<use xlink:href="#SVGID_43_"  style="overflow:visible;"/>
					</clipPath>
					<path class="st21" d="M57.3,60.9c0.3,0,0.6,0,0.8,0l0.2,0l0.1,0l0.4,0l0.2,0l0.2-0.1c0.1-0.1,0.3-0.3,0.3-0.4
						c0-0.1-0.1-0.5-0.2-0.6l-0.1-0.1l-0.1-0.4l-0.2-0.1v0l-0.1,0.1l-0.1,0.2c0,0.2,0.1,0.3,0.1,0.4l0.1,0.3c0,0.2-0.1,0.2-0.2,0.3
						c-0.1,0-0.3,0-0.4,0l-0.1,0c-0.1,0-0.2,0-0.3,0c-0.2,0-0.8,0.1-0.9-0.1l0-0.2l0,0c0.1-0.2,0.4-0.6,0.2-0.9l-0.1,0l-0.1,0.1
						l-0.1,0.3c-0.1,0.2-0.2,0.3-0.2,0.5l0,0.3C56.6,60.8,57,60.9,57.3,60.9"/>
				</g>
			</g>
		</g>
		<g>
			<g>
				<g>
					<defs>
						<path id="SVGID_45_" d="M38.4,60.8c0,10.8,8.8,19.6,19.6,19.6c10.8,0,19.6-8.8,19.6-19.6c0-10.8-8.8-19.6-19.6-19.6
							C47.2,41.2,38.4,50,38.4,60.8"/>
					</defs>
					<clipPath id="SVGID_46_">
						<use xlink:href="#SVGID_45_"  style="overflow:visible;"/>
					</clipPath>
					<path class="st22" d="M58.6,61.5l-0.1,0l-0.3,0.1l-0.1,0c-0.2,0-0.4,0-0.5-0.1l-0.3-0.1l-0.1,0L57,61.4c-0.1,0-0.3-0.1-0.4-0.1
						l0,0.1c0.1,0.1,0.4,0.3,0.5,0.4c0.3,0.2,0.6,0.3,1,0.3c0.1,0,0.3-0.1,0.4-0.1c0.2-0.1,0.3-0.1,0.4-0.3c0.1-0.1,0.2-0.2,0.2-0.3
						l-0.1,0C58.9,61.3,58.8,61.4,58.6,61.5"/>
				</g>
			</g>
		</g>
		<g>
			<g>
				<g>
					<defs>
						<path id="SVGID_47_" d="M38.4,60.8c0,10.8,8.8,19.6,19.6,19.6c10.8,0,19.6-8.8,19.6-19.6c0-10.8-8.8-19.6-19.6-19.6
							C47.2,41.2,38.4,50,38.4,60.8"/>
					</defs>
					<clipPath id="SVGID_48_">
						<use xlink:href="#SVGID_47_"  style="overflow:visible;"/>
					</clipPath>
					<path class="st23" d="M57.9,62.5l-0.2,0.1l0.3,0.1l0.2-0.1C58.2,62.4,58,62.5,57.9,62.5"/>
				</g>
			</g>
		</g>
	</g>
	<g>
		<path class="st24" d="M99.8,48.4c0.3-0.3,0.4-0.7,0.4-1.1c0-0.7-0.3-1.2-1-1.6c-0.7-0.4-1.6-0.6-2.8-0.6c-1.2,0-2.4,0.2-3.5,0.5
			c-1.1,0.3-2.1,0.8-2.8,1.3c-0.9,0.6-1.5,1.3-1.8,2.1c-0.3,0.7-0.5,1.8-0.5,3.1v5.3h-3.2v0.9h3.2v11.3c0,1.3,0,2.3-0.1,2.9
			c-0.1,0.7-0.2,1.2-0.3,1.5c-0.2,0.5-0.5,0.9-0.9,1.1c-0.4,0.2-1,0.4-1.9,0.5l0,0V76h9.8v-0.5l0,0c-1.1-0.2-1.8-0.5-2.2-0.9
			c-0.3-0.3-0.6-0.7-0.7-1.1c-0.1-0.5-0.2-1.2-0.2-2.2l0-1.7V58.2h4.3v-0.9h-4.3v-5.8c0-1.3,0.1-2.2,0.2-2.9
			c0.1-0.7,0.3-1.2,0.6-1.6c0.3-0.4,0.7-0.7,1.1-0.9c0.5-0.2,1-0.3,1.6-0.3c0.4,0,0.8,0.1,1.1,0.3c0.3,0.2,0.6,0.7,1,1.3
			c0.3,0.5,0.6,0.8,0.9,1c0.3,0.2,0.6,0.3,1.1,0.3C99.2,48.9,99.5,48.7,99.8,48.4"/>
		<path class="st24" d="M118.7,74.7c-0.3-0.2-0.6-0.5-0.9-0.9c-0.2-0.4-0.4-0.9-0.5-1.5c-0.1-0.6-0.1-1.6-0.1-3.2V57.3h-6.5v0.5l0,0
			c1.1,0.2,1.9,0.5,2.3,0.9c0.3,0.3,0.6,0.7,0.7,1.1c0.1,0.5,0.2,1.2,0.2,2.2l0,1.6v4.3c0,1.7-0.1,2.9-0.2,3.7
			c-0.1,0.7-0.4,1.4-0.8,2c-0.4,0.5-1,1-1.7,1.3c-0.7,0.3-1.5,0.5-2.3,0.5c-0.7,0-1.4-0.1-2-0.4c-0.6-0.3-1.1-0.7-1.4-1.2
			c-0.3-0.5-0.5-1.1-0.6-1.8c-0.1-0.7-0.2-1.9-0.2-3.5V57.3h-6.5v0.5l0,0c1.1,0.2,1.8,0.5,2.3,0.9c0.3,0.3,0.5,0.7,0.7,1.1
			c0.1,0.5,0.2,1.2,0.2,2.2l0,1.7v7.6c0,1.6,0.6,2.9,1.6,3.7c1.1,0.9,2.6,1.3,4.4,1.3c2.5,0,4.6-0.9,6.5-2.7c0,0.9,0.1,1.8,0.3,2.7
			l0,0l6.1-0.8l0,0v-0.5l0,0C119.6,75,119.1,74.9,118.7,74.7"/>
		<path class="st24" d="M141.4,75c-0.5-0.3-0.9-0.5-1.2-0.8c-0.3-0.3-0.9-0.8-1.7-1.6c0,0-1.3-1.5-1.8-2l-5.1-6.3l2.4-2.5l0.9-1
			c1.1-1.1,1.9-1.9,2.6-2.3c0.6-0.4,1.5-0.5,2.6-0.5h0v-0.5h-8.5v0.5l0,0c0.8,0,1.3,0.1,1.6,0.2c0.6,0.2,1,0.7,1,1.3
			c0,0.4-0.1,0.9-0.4,1.3c-0.3,0.4-0.8,1.1-1.6,2L128,67V45.2l-6.4,0.8l0,0v0.5l0,0c0.6,0,1.2,0.2,1.5,0.3c0.3,0.2,0.6,0.5,0.9,0.9
			c0.2,0.4,0.4,0.9,0.5,1.5c0.1,0.6,0.1,1.6,0.1,3.1v17.2c0,1.3,0,2.3-0.1,2.9c-0.1,0.7-0.2,1.2-0.3,1.5c-0.2,0.5-0.5,0.9-0.9,1.1
			c-0.4,0.2-1,0.4-1.9,0.5l0,0V76h9.8v-0.5l0,0c-1.1-0.2-1.8-0.5-2.2-0.9c-0.3-0.3-0.6-0.7-0.7-1.1c-0.1-0.5-0.2-1.2-0.2-2.2l0-1.7
			v-1.6l1.3-1.4l4.7,5.8l0.5,0.5c0.4,0.5,0.6,0.9,0.6,1.3c0,0.4-0.2,0.7-0.5,0.9c-0.2,0.1-0.7,0.2-1.3,0.3l0,0V76h10.1v-0.5l0,0
			C142.4,75.4,141.9,75.2,141.4,75"/>
		<path class="st24" d="M162.9,74.7c-0.3-0.2-0.6-0.5-0.9-0.9c-0.2-0.4-0.4-0.9-0.5-1.5c-0.1-0.6-0.1-1.6-0.1-3.2V57.3h-6.5v0.5l0,0
			c1.1,0.2,1.9,0.5,2.3,0.9c0.3,0.3,0.6,0.7,0.7,1.1C158,60.3,158,61,158,62l0,1.6v4.3c0,1.7-0.1,2.9-0.2,3.7
			c-0.1,0.7-0.4,1.4-0.8,2c-0.4,0.6-1,1-1.7,1.3c-0.7,0.3-1.5,0.5-2.3,0.5c-0.7,0-1.4-0.1-2-0.4c-0.6-0.3-1-0.7-1.4-1.2
			c-0.3-0.5-0.5-1.1-0.6-1.8c-0.1-0.7-0.2-1.9-0.2-3.5V57.3h-6.5v0.5l0,0c1.1,0.2,1.8,0.5,2.3,0.9c0.3,0.3,0.5,0.7,0.7,1.1
			c0.1,0.5,0.2,1.2,0.2,2.2l0,1.7v7.6c0,1.6,0.6,2.9,1.6,3.7c1.1,0.9,2.6,1.3,4.4,1.3c2.5,0,4.6-0.9,6.5-2.7c0,0.9,0.1,1.8,0.3,2.7
			l0,0l6.1-0.8l0,0v-0.5l0,0C163.8,75,163.3,74.9,162.9,74.7"/>
		<path class="st24" d="M174.8,65.1l-2.3-1.1c-1.1-0.5-1.9-1-2.4-1.6c-0.5-0.6-0.8-1.2-0.8-1.9c0-0.8,0.3-1.6,0.9-2.2
			c0.6-0.6,1.3-0.9,2.1-0.9c0.6,0,1.2,0.2,1.8,0.5c0.6,0.3,1.1,0.7,1.6,1.3c0.3,0.4,0.6,0.8,0.8,1.2c0.2,0.4,0.4,1,0.5,1.7l0,0h0.5
			l-0.2-5l0,0h-0.5l0,0c-0.2,0.4-0.5,0.6-0.8,0.6c-0.2,0-0.4,0-0.6-0.1l-0.7-0.3c-0.6-0.3-1.4-0.4-2.1-0.4c-1.7,0-3,0.5-4,1.6
			c-0.9,1-1.3,2.1-1.3,3.4c0,1.2,0.4,2.3,1.3,3.3c0.6,0.7,1.9,1.5,3.7,2.5c1,0.6,1.8,1,2.2,1.3c0.4,0.3,0.8,0.6,1.1,1
			c0.5,0.7,0.8,1.5,0.8,2.4c0,1.1-0.4,2-1.1,2.6c-0.7,0.5-1.5,0.8-2.4,0.8c-1.5,0-2.8-0.8-3.9-2.5c-0.6-0.9-1.1-2.1-1.5-3.6l0,0
			h-0.4V76h0.4l0,0c0.3-0.4,0.6-0.6,1.1-0.6c0.2,0,0.4,0,0.5,0.1c0.1,0,0.5,0.2,1.2,0.4c1,0.4,2,0.6,3,0.6c1.8,0,3.3-0.6,4.4-1.8
			c1-1,1.5-2.3,1.5-3.8c0-1.3-0.3-2.4-1-3.3C177.2,66.6,176.1,65.8,174.8,65.1"/>
		<path class="st24" d="M200.2,75c-0.5-0.3-0.9-0.5-1.2-0.8c-0.3-0.3-0.9-0.8-1.7-1.6c0,0-1.4-1.5-1.9-2l-4.9-6.3l2.4-2.5l0.9-1
			c1.1-1.1,1.9-1.9,2.6-2.3c0.6-0.4,1.5-0.5,2.6-0.5h0v-0.5h-8.5v0.5l0,0c0.8,0,1.3,0.1,1.6,0.2c0.6,0.2,1,0.7,1,1.3
			c0,0.4-0.1,0.9-0.4,1.3c-0.3,0.4-0.8,1.1-1.6,2l-3.9,4.3V45.2l-6.4,0.8l0,0v0.5l0,0c0.6,0,1.1,0.2,1.5,0.3
			c0.3,0.2,0.6,0.5,0.9,0.9c0.2,0.4,0.4,0.9,0.5,1.5c0.1,0.6,0.1,1.6,0.1,3.1v17.2c0,1.3,0,2.3-0.1,2.9c-0.1,0.7-0.2,1.2-0.3,1.5
			c-0.2,0.5-0.5,0.9-0.9,1.1c-0.4,0.2-1,0.4-1.9,0.5l0,0V76h9.8v-0.5l0,0c-1.1-0.2-1.8-0.5-2.2-0.9c-0.3-0.3-0.6-0.7-0.7-1.1
			c-0.1-0.5-0.2-1.2-0.2-2.2l0-1.7v-1.6l1.3-1.4l4.7,5.8l0.5,0.5c0.4,0.5,0.6,0.9,0.6,1.3c0,0.4-0.2,0.7-0.5,0.9
			c-0.2,0.1-0.7,0.2-1.3,0.3l0,0V76h10.1v-0.5l0,0C201.3,75.4,200.8,75.2,200.2,75"/>
		<path class="st24" d="M217.2,71L217.2,71c-0.4,1.1-0.8,2-1.4,2.5c-0.5,0.5-1.1,0.8-1.7,1.1c-0.7,0.3-1.5,0.4-2.2,0.4
			c-1.1,0-2.1-0.2-3-0.7c-1-0.5-1.8-1.1-2.4-1.9c-0.6-0.8-1.1-1.8-1.5-3c-0.4-1.2-0.6-2.5-0.6-3.7c0-0.3,0-0.8,0.1-1.5h12.9v0
			c0-1.8-0.5-3.4-1.6-4.6c-0.7-0.8-1.5-1.4-2.5-1.8S211,57,209.8,57c-2.2,0-4.2,0.7-5.9,2c-2.4,1.9-3.5,4.5-3.5,7.8
			c0,2.4,0.6,4.5,1.9,6.1c0.9,1.2,2,2.1,3.3,2.6c1.3,0.6,2.8,0.9,4.6,0.9c2.1,0,3.8-0.4,5-1.3c1.3-0.9,2.1-2.2,2.5-3.9l0,0L217.2,71
			z M209.4,57.5c0.7,0,1.4,0.2,2.1,0.6c0.6,0.4,1.2,1,1.6,1.7c0.4,0.8,0.7,1.9,0.8,3.3h-9.4c0.2-1.6,0.7-3,1.7-4
			C207.1,58.1,208.2,57.5,209.4,57.5"/>
	</g>
	<path class="st25" d="M207.8,86.1h3.4v-1.3h-3.4v-2.2h3.9v-1.3h-5.5v8.5h5.7v-1.3h-4.2L207.8,86.1L207.8,86.1z M197,85.2v-2.6h1.1
		c0.3,0,0.6,0,0.8,0c0.2,0,0.4,0.1,0.6,0.2c0.2,0.1,0.4,0.2,0.5,0.4c0.1,0.2,0.1,0.4,0.1,0.6c0,0.3-0.1,0.5-0.2,0.7
		c-0.1,0.2-0.3,0.4-0.6,0.5c-0.2,0.1-0.4,0.1-0.6,0.1c-0.2,0-0.5,0-0.9,0L197,85.2L197,85.2L197,85.2z M201.3,82.5
		c-0.3-0.4-0.7-0.7-1.2-0.8c-0.3-0.1-0.6-0.2-0.9-0.2c-0.4,0-0.8-0.1-1.2-0.1h-2.6v8.5h1.6v-3.3h1.1l2.3,3.3h1.9l-2.5-3.5v0
		c0.7-0.2,1.2-0.5,1.5-0.9c0.3-0.4,0.5-0.9,0.5-1.5C201.7,83.3,201.6,82.8,201.3,82.5z M190.8,83.8c-0.2-0.5-0.5-1-0.8-1.4
		c-0.4-0.4-0.8-0.7-1.3-0.9c-0.5-0.2-1.1-0.3-1.8-0.3s-1.2,0.1-1.8,0.3c-0.5,0.2-0.9,0.5-1.3,0.9c-0.4,0.4-0.6,0.9-0.8,1.4
		s-0.3,1.1-0.3,1.8c0,0.6,0.1,1.2,0.3,1.8s0.5,1,0.8,1.4s0.8,0.7,1.3,0.9s1.1,0.3,1.8,0.3s1.2-0.1,1.8-0.3c0.5-0.2,0.9-0.5,1.3-0.9
		c0.4-0.4,0.6-0.9,0.8-1.4s0.3-1.1,0.3-1.8C191.1,84.9,191,84.3,190.8,83.8z M189.3,86.9c-0.1,0.4-0.3,0.7-0.5,1
		c-0.2,0.3-0.5,0.4-0.8,0.6c-0.3,0.1-0.6,0.2-1,0.2c-0.4,0-0.7-0.1-1-0.2c-0.3-0.1-0.6-0.3-0.8-0.6c-0.2-0.3-0.4-0.6-0.5-1
		c-0.1-0.4-0.2-0.8-0.2-1.4s0.1-1,0.2-1.4s0.3-0.7,0.5-1c0.2-0.3,0.5-0.5,0.8-0.6c0.3-0.1,0.6-0.2,1-0.2s0.7,0.1,1,0.2
		c0.3,0.1,0.6,0.3,0.8,0.6c0.2,0.3,0.4,0.6,0.5,1s0.2,0.8,0.2,1.4C189.5,86.1,189.4,86.5,189.3,86.9z M176.7,82.6h2.7v-1.3h-7v1.3
		h2.7v7.2h1.6L176.7,82.6L176.7,82.6z M167,88c-0.1,0.2-0.3,0.3-0.5,0.4c-0.2,0.1-0.4,0.2-0.6,0.2c-0.2,0-0.5,0.1-0.7,0.1
		c-0.4,0-0.8,0-1.2-0.1c-0.4-0.1-0.8-0.2-1.2-0.4v1.3c0.3,0.2,0.7,0.3,1.1,0.4c0.4,0.1,0.9,0.1,1.4,0.1c0.5,0,1-0.1,1.5-0.2
		c0.4-0.1,0.8-0.3,1.1-0.5c0.3-0.2,0.6-0.5,0.7-0.8s0.3-0.7,0.3-1.2c0-0.4-0.1-0.8-0.2-1.1c-0.1-0.3-0.3-0.5-0.6-0.7
		c-0.3-0.2-0.5-0.3-0.9-0.4c-0.3-0.1-0.7-0.2-1-0.3c-0.2,0-0.4-0.1-0.6-0.2c-0.2-0.1-0.4-0.1-0.5-0.2c-0.2-0.1-0.3-0.2-0.4-0.3
		c-0.1-0.1-0.1-0.3-0.1-0.5c0-0.4,0.1-0.7,0.4-0.8c0.3-0.2,0.7-0.3,1.2-0.3c0.4,0,0.7,0,1.1,0.1c0.4,0.1,0.8,0.2,1.3,0.4v-1.3
		c-0.3-0.1-0.7-0.3-1.2-0.3c-0.5-0.1-0.9-0.1-1.4-0.1c-0.5,0-0.9,0.1-1.2,0.2s-0.7,0.3-0.9,0.5s-0.5,0.5-0.6,0.8
		c-0.2,0.3-0.2,0.7-0.2,1.2c0,0.4,0.1,0.7,0.2,1c0.1,0.3,0.3,0.5,0.5,0.7c0.2,0.2,0.5,0.3,0.8,0.4c0.3,0.1,0.6,0.2,0.9,0.3
		c0.2,0.1,0.5,0.1,0.7,0.2c0.2,0.1,0.4,0.1,0.6,0.2s0.3,0.2,0.4,0.3c0.1,0.1,0.2,0.3,0.2,0.5C167.2,87.6,167.1,87.8,167,88z"/>
	<path class="st25" d="M147,86.1h3.4v-1.3H147v-2.2h3.9v-1.3h-5.5v8.5h5.7v-1.3H147L147,86.1L147,86.1z M134.9,81.3h-1.6v8.5h1.6V86
		c0-0.6,0-1.4-0.1-2.4h0c0.5,0.9,1,1.7,1.5,2.4l2.8,3.9h1.6v-8.5h-1.6v3.8c0,0.5,0,1.3,0.1,2.4h0c-0.4-0.7-0.9-1.4-1.5-2.3
		L134.9,81.3z M128.5,89.8v-8.5h-1.6v8.5C126.9,89.8,128.5,89.8,128.5,89.8z M117.3,81.3v8.5h5.5v-1.3h-4v-7.2H117.3z M106.7,81.3
		h-1.6v8.5h1.6V86c0-0.6,0-1.4-0.1-2.4h0c0.5,0.9,1,1.7,1.5,2.4l2.8,3.9h1.6v-8.5H111v3.8c0,0.5,0,1.3,0.1,2.4h0
		c-0.4-0.7-0.9-1.4-1.5-2.3L106.7,81.3z M100.4,83.8c-0.2-0.5-0.5-1-0.8-1.4c-0.4-0.4-0.8-0.7-1.3-0.9c-0.5-0.2-1.1-0.3-1.8-0.3
		s-1.2,0.1-1.8,0.3c-0.5,0.2-0.9,0.5-1.3,0.9c-0.4,0.4-0.6,0.9-0.8,1.4s-0.3,1.1-0.3,1.8c0,0.6,0.1,1.2,0.3,1.8s0.5,1,0.8,1.4
		s0.8,0.7,1.3,0.9s1.1,0.3,1.8,0.3s1.2-0.1,1.8-0.3c0.5-0.2,0.9-0.5,1.3-0.9c0.4-0.4,0.6-0.9,0.8-1.4s0.3-1.1,0.3-1.8
		C100.7,84.9,100.6,84.3,100.4,83.8z M98.9,86.9c-0.1,0.4-0.3,0.7-0.5,1c-0.2,0.3-0.5,0.4-0.8,0.6c-0.3,0.1-0.6,0.2-1,0.2
		s-0.7-0.1-1-0.2c-0.3-0.1-0.6-0.3-0.8-0.6c-0.2-0.3-0.4-0.6-0.5-1c-0.1-0.4-0.2-0.8-0.2-1.4s0.1-1,0.2-1.4c0.1-0.4,0.3-0.7,0.5-1
		c0.2-0.3,0.5-0.5,0.8-0.6c0.3-0.1,0.6-0.2,1-0.2s0.7,0.1,1,0.2c0.3,0.1,0.6,0.3,0.8,0.6c0.2,0.3,0.4,0.6,0.5,1
		c0.1,0.4,0.2,0.8,0.2,1.4C99.1,86.1,99,86.5,98.9,86.9z"/>
</g>
</svg>
