<?xml version="1.0" encoding="utf-8"?>
<!-- Generator: Adobe Illustrator 24.2.3, SVG Export Plug-In . SVG Version: 6.00 Build 0)  -->
<svg version="1.0" id="レイヤー_1" focusable="false"
	 xmlns="http://www.w3.org/2000/svg" xmlns:xlink="http://www.w3.org/1999/xlink" x="0px" y="0px" width="17.237px" height="14px"
	 viewBox="0 0 17.237 14" style="enable-background:new 0 0 17.237 14;" xml:space="preserve">
<path d="M15.466,3.489c0.011,0.153,0.011,0.306,0.011,0.459C15.477,8.619,11.922,14,5.425,14C3.423,14,1.564,13.42,0,12.414
	c0.284,0.033,0.558,0.044,0.853,0.044c1.652,0,3.172-0.558,4.386-1.509c-1.553-0.033-2.855-1.05-3.303-2.45
	c0.219,0.033,0.438,0.055,0.667,0.055c0.317,0,0.634-0.044,0.93-0.12C1.914,8.105,0.7,6.683,0.7,4.966V4.922
	C1.17,5.184,1.717,5.348,2.297,5.37C1.345,4.736,0.722,3.653,0.722,2.428c0-0.656,0.175-1.258,0.481-1.783
	c1.739,2.144,4.353,3.544,7.284,3.697C8.433,4.08,8.4,3.806,8.4,3.533C8.4,1.586,9.975,0,11.933,0c1.017,0,1.936,0.427,2.581,1.116
	c0.798-0.153,1.564-0.448,2.242-0.853c-0.263,0.82-0.82,1.509-1.553,1.947c0.711-0.077,1.4-0.273,2.034-0.547
	C16.756,2.362,16.155,2.986,15.466,3.489L15.466,3.489z"/>
</svg>
